{"glyphs":{"0":{"ha":817,"x_min":83,"x_max":733,"o":"m 408 -14 q 228 52 301 -14 q 119 231 156 118 q 83 486 83 344 q 119 741 83 628 q 228 920 156 854 q 408 986 301 986 q 588 920 515 986 q 697 741 661 854 q 733 486 733 628 q 697 231 733 344 q 588 52 661 118 q 408 -14 515 -14 m 408 44 q 606 165 538 44 q 675 486 675 286 q 606 807 675 686 q 408 928 538 928 q 210 807 279 928 q 142 486 142 686 q 210 165 142 286 q 408 44 279 44 z "},"1":{"ha":449,"x_min":7,"x_max":310,"o":"m 282 974 q 302 965 294 974 q 310 944 310 957 l 310 28 q 301 8 310 17 q 281 0 293 0 q 260 8 268 0 q 251 28 251 17 l 251 892 l 49 771 q 38 768 44 768 q 16 778 25 768 q 7 799 7 789 q 22 822 7 811 l 265 968 q 282 974 272 974 z "},"2":{"ha":801,"x_min":122,"x_max":732,"o":"m 704 56 q 724 47 715 56 q 732 28 732 39 q 724 8 732 15 q 704 0 715 0 l 168 0 q 144 7 154 0 q 133 29 133 14 q 140 47 133 38 l 467 411 q 594 574 554 504 q 635 713 635 644 q 573 874 635 817 q 396 931 511 931 q 262 897 319 931 q 179 789 204 863 q 170 774 176 781 q 153 767 164 767 q 133 774 143 767 q 122 789 122 781 q 129 814 122 796 q 234 942 161 897 q 400 986 307 986 q 618 913 540 986 q 696 718 696 839 q 656 567 696 644 q 513 378 615 489 l 229 56 l 704 56 z "},"3":{"ha":721,"x_min":69,"x_max":640,"o":"m 336 614 q 483 579 414 614 q 597 475 553 544 q 640 307 640 406 q 595 141 640 214 q 474 27 550 68 q 308 -14 397 -14 q 190 8 246 -14 q 92 75 133 31 q 83 94 83 83 q 92 115 83 106 q 113 125 100 125 q 138 111 125 125 q 308 44 199 44 q 447 78 385 44 q 546 172 510 111 q 582 307 582 232 q 544 448 582 392 q 444 531 506 504 q 315 557 383 557 q 281 555 301 557 q 258 553 261 553 q 238 561 246 553 q 231 583 231 569 q 238 603 231 596 l 518 917 l 97 917 q 78 925 86 917 q 69 944 69 933 q 78 965 69 957 q 97 972 86 972 l 578 972 q 600 962 593 972 q 607 943 607 951 q 599 924 607 932 l 322 613 q 336 614 328 614 z "},"4":{"ha":701,"x_min":21,"x_max":661,"o":"m 633 365 q 653 358 644 365 q 661 339 661 350 q 653 320 661 328 q 633 313 644 313 l 528 313 l 528 28 q 519 8 528 17 q 500 0 511 0 q 480 8 488 0 q 472 28 472 17 l 472 313 l 49 313 q 28 322 36 313 q 21 342 21 331 q 28 360 21 353 l 476 961 q 500 972 485 972 q 520 964 513 972 q 528 944 528 956 l 528 365 l 633 365 m 101 365 l 472 365 l 472 864 l 101 365 z "},"5":{"ha":749,"x_min":75,"x_max":651,"o":"m 342 643 q 500 604 429 643 q 611 495 571 565 q 651 336 651 425 q 609 160 651 236 q 489 43 567 85 q 307 1 411 1 q 189 21 246 1 q 86 79 132 40 q 75 100 75 88 q 83 121 75 110 q 103 132 92 132 q 122 124 114 132 q 307 57 204 57 q 517 133 438 57 q 596 332 596 208 q 522 518 596 447 q 321 589 449 589 q 228 574 271 589 q 139 538 185 560 q 108 525 111 525 q 85 535 96 525 q 79 558 75 544 l 144 949 q 154 965 146 957 q 175 972 163 972 l 599 972 q 618 964 610 972 q 626 943 626 956 q 618 922 626 931 q 599 914 610 914 l 196 914 l 139 597 q 342 643 233 643 z "},"6":{"ha":740,"x_min":83,"x_max":699,"o":"m 415 610 q 565 565 500 610 q 664 447 629 519 q 699 293 699 374 q 660 142 699 213 q 553 29 621 72 q 400 -14 485 -14 q 222 33 293 -14 q 117 157 151 81 q 83 322 83 233 q 138 585 83 446 q 289 840 192 725 q 508 1007 386 956 q 521 1010 517 1010 q 543 1001 535 1010 q 551 978 551 993 q 532 953 551 961 q 377 844 453 918 q 245 677 301 771 q 165 489 189 583 q 276 578 211 546 q 415 610 342 610 m 397 42 q 523 74 468 42 q 609 163 578 106 q 640 293 640 219 q 613 421 640 361 q 533 517 586 481 q 406 553 481 553 q 263 517 324 553 q 172 420 203 481 q 140 288 140 360 q 171 166 140 222 q 260 76 201 110 q 397 42 318 42 z "},"7":{"ha":696,"x_min":83,"x_max":654,"o":"m 631 972 q 654 947 654 972 q 651 933 654 939 l 264 15 q 253 2 261 7 q 236 -3 246 -3 q 217 4 226 -3 q 207 22 207 11 q 210 36 207 28 l 582 917 l 111 917 q 92 924 100 917 q 83 944 83 932 q 92 965 83 957 q 111 972 100 972 l 631 972 z "},"8":{"ha":774,"x_min":97,"x_max":676,"o":"m 513 490 q 630 396 583 460 q 676 249 676 332 q 638 117 676 176 q 533 22 600 57 q 386 -14 467 -14 q 240 21 306 -14 q 135 116 174 56 q 97 249 97 176 q 143 394 97 332 q 260 489 189 457 q 160 579 201 518 q 119 714 119 640 q 155 845 119 786 q 251 938 190 904 q 386 972 313 972 q 519 938 458 972 q 616 845 581 904 q 651 714 651 786 q 611 579 651 639 q 513 490 571 519 m 178 714 q 207 608 178 654 q 284 535 236 561 q 386 510 332 510 q 488 535 440 510 q 564 608 535 561 q 593 714 593 654 q 535 860 593 804 q 386 917 478 917 q 235 860 293 917 q 178 714 178 804 m 386 42 q 554 99 490 42 q 618 249 618 157 q 586 356 618 308 q 501 432 554 404 q 386 460 447 460 q 272 432 325 460 q 187 356 218 404 q 156 249 156 308 q 219 99 156 157 q 386 42 283 42 z "},"9":{"ha":771,"x_min":83,"x_max":699,"o":"m 382 986 q 560 939 489 986 q 665 815 631 892 q 699 650 699 739 q 645 392 699 526 q 494 149 592 258 q 274 -14 397 39 q 261 -17 265 -17 q 240 -7 249 -17 q 231 15 231 3 q 250 40 231 32 q 405 144 329 75 q 537 303 481 214 q 617 483 593 392 q 506 397 572 428 q 367 365 440 365 q 217 410 282 365 q 118 526 153 454 q 83 679 83 599 q 122 830 83 760 q 229 943 161 900 q 382 986 297 986 m 376 422 q 519 458 458 422 q 610 553 579 493 q 642 685 642 613 q 611 806 642 750 q 522 897 581 863 q 385 931 464 931 q 259 899 314 931 q 173 810 204 867 q 142 679 142 753 q 168 552 142 611 q 248 458 194 493 q 376 422 301 422 z "},"\u0000":{"ha":0,"x_min":0,"x_max":0,"o":""},"\r":{"ha":375,"x_min":0,"x_max":0,"o":""}," ":{"ha":375,"x_min":0,"x_max":0,"o":""},"A":{"ha":901,"x_min":47,"x_max":853,"o":"m 851 38 q 853 26 853 33 q 844 7 853 14 q 824 0 836 0 q 806 5 814 0 q 796 18 799 10 l 679 304 l 681 301 l 215 301 l 103 18 q 78 0 96 0 q 58 7 65 0 q 49 24 50 14 q 50 38 47 29 l 424 957 q 434 972 428 968 q 450 975 440 975 q 478 957 471 975 l 851 38 m 238 357 l 658 357 l 446 881 l 238 357 z "},"Á":{"ha":901,"x_min":49,"x_max":853,"o":"m 851 38 q 853 26 853 33 q 844 7 853 14 q 824 0 836 0 q 806 5 814 0 q 796 18 799 10 l 679 304 l 681 301 l 215 301 l 103 18 q 78 0 96 0 q 58 7 65 0 q 49 24 50 14 q 50 38 47 29 l 424 957 q 434 972 428 968 q 450 975 440 975 q 478 957 471 975 l 851 38 m 238 357 l 658 357 l 446 881 l 238 357 m 457 1039 q 444 1044 449 1039 q 440 1056 440 1049 q 453 1076 440 1067 l 578 1169 q 608 1181 592 1181 q 632 1171 624 1181 q 640 1147 640 1161 q 621 1114 640 1125 l 486 1049 q 457 1039 467 1039 z "},"Ă":{"ha":901,"x_min":49,"x_max":853,"o":"m 851 38 q 853 26 853 33 q 844 7 853 14 q 824 0 836 0 q 806 5 814 0 q 796 18 799 10 l 679 304 l 681 301 l 215 301 l 103 18 q 78 0 96 0 q 58 7 65 0 q 49 24 50 14 q 50 38 47 29 l 424 957 q 434 972 428 968 q 450 975 440 975 q 478 957 471 975 l 851 38 m 238 357 l 658 357 l 446 881 l 238 357 m 451 1083 q 335 1121 382 1083 q 271 1226 288 1158 q 269 1236 269 1229 q 292 1257 269 1257 q 309 1252 304 1257 q 319 1233 314 1247 q 451 1138 357 1138 q 582 1233 544 1138 q 592 1251 586 1246 q 610 1256 599 1256 q 630 1249 625 1256 q 632 1226 635 1242 q 568 1121 615 1158 q 451 1083 521 1083 z "},"Ắ":{"ha":901,"x_min":49,"x_max":853,"o":"m 851 38 q 853 26 853 33 q 844 7 853 14 q 824 0 836 0 q 806 5 814 0 q 796 18 799 10 l 679 304 l 681 301 l 215 301 l 103 18 q 78 0 96 0 q 58 7 65 0 q 49 24 50 14 q 50 38 47 29 l 424 957 q 434 972 428 968 q 450 975 440 975 q 478 957 471 975 l 851 38 m 238 357 l 658 357 l 446 881 l 238 357 m 451 1083 q 335 1121 382 1083 q 271 1226 288 1158 q 269 1236 269 1229 q 292 1257 269 1257 q 309 1252 304 1257 q 319 1233 314 1247 q 451 1138 357 1138 q 582 1233 544 1138 q 592 1251 586 1246 q 610 1256 599 1256 q 630 1249 625 1256 q 632 1226 635 1242 q 568 1121 615 1158 q 451 1083 521 1083 m 457 1322 q 444 1327 449 1322 q 440 1339 440 1332 q 453 1360 440 1350 l 578 1453 q 608 1464 592 1464 q 632 1454 624 1464 q 640 1431 640 1444 q 621 1397 640 1408 l 486 1332 q 457 1322 467 1322 z "},"Ặ":{"ha":901,"x_min":49,"x_max":853,"o":"m 851 38 q 853 26 853 33 q 844 7 853 14 q 824 0 836 0 q 806 5 814 0 q 796 18 799 10 l 679 304 l 681 301 l 215 301 l 103 18 q 78 0 96 0 q 58 7 65 0 q 49 24 50 14 q 50 38 47 29 l 424 957 q 434 972 428 968 q 450 975 440 975 q 478 957 471 975 l 851 38 m 238 357 l 658 357 l 446 881 l 238 357 m 451 -190 q 416 -176 429 -190 q 403 -140 403 -162 l 403 -129 q 417 -93 403 -107 q 453 -79 431 -79 q 485 -93 472 -79 q 499 -129 499 -107 l 499 -140 q 485 -176 499 -162 q 451 -190 472 -190 m 451 1083 q 335 1121 382 1083 q 271 1226 288 1158 q 269 1236 269 1229 q 292 1257 269 1257 q 309 1252 304 1257 q 319 1233 314 1247 q 451 1138 357 1138 q 582 1233 544 1138 q 592 1251 586 1246 q 610 1256 599 1256 q 630 1249 625 1256 q 632 1226 635 1242 q 568 1121 615 1158 q 451 1083 521 1083 z "},"Ằ":{"ha":901,"x_min":49,"x_max":853,"o":"m 851 38 q 853 26 853 33 q 844 7 853 14 q 824 0 836 0 q 806 5 814 0 q 796 18 799 10 l 679 304 l 681 301 l 215 301 l 103 18 q 78 0 96 0 q 58 7 65 0 q 49 24 50 14 q 50 38 47 29 l 424 957 q 434 972 428 968 q 450 975 440 975 q 478 957 471 975 l 851 38 m 238 357 l 658 357 l 446 881 l 238 357 m 451 1083 q 335 1121 382 1083 q 271 1226 288 1158 q 269 1236 269 1229 q 292 1257 269 1257 q 309 1252 304 1257 q 319 1233 314 1247 q 451 1138 357 1138 q 582 1233 544 1138 q 592 1251 586 1246 q 610 1256 599 1256 q 630 1249 625 1256 q 632 1226 635 1242 q 568 1121 615 1158 q 451 1083 521 1083 m 451 1322 q 422 1332 442 1322 l 288 1397 q 268 1431 268 1408 q 276 1454 268 1444 q 300 1464 285 1464 q 331 1453 317 1464 l 456 1360 q 468 1339 468 1350 q 464 1327 468 1332 q 451 1322 460 1322 z "},"Ẳ":{"ha":901,"x_min":49,"x_max":853,"o":"m 851 38 q 853 26 853 33 q 844 7 853 14 q 824 0 836 0 q 806 5 814 0 q 796 18 799 10 l 679 304 l 681 301 l 215 301 l 103 18 q 78 0 96 0 q 58 7 65 0 q 49 24 50 14 q 50 38 47 29 l 424 957 q 434 972 428 968 q 450 975 440 975 q 478 957 471 975 l 851 38 m 238 357 l 658 357 l 446 881 l 238 357 m 451 1083 q 335 1121 382 1083 q 271 1226 288 1158 q 269 1236 269 1229 q 292 1257 269 1257 q 309 1252 304 1257 q 319 1233 314 1247 q 451 1138 357 1138 q 582 1233 544 1138 q 592 1251 586 1246 q 610 1256 599 1256 q 630 1249 625 1256 q 632 1226 635 1242 q 568 1121 615 1158 q 451 1083 521 1083 m 354 1525 q 456 1569 399 1569 q 533 1540 507 1569 q 558 1474 558 1510 q 546 1433 558 1451 q 506 1386 533 1414 q 493 1354 494 1375 q 485 1340 492 1344 q 469 1335 479 1335 q 453 1341 458 1335 q 447 1357 447 1347 q 467 1413 447 1392 q 486 1433 474 1419 q 504 1455 499 1446 q 510 1475 510 1464 q 494 1506 510 1493 q 458 1519 479 1519 q 393 1493 428 1519 q 368 1482 379 1482 q 350 1490 358 1482 q 344 1506 344 1499 q 354 1525 344 1515 z "},"Ẵ":{"ha":901,"x_min":49,"x_max":853,"o":"m 851 38 q 853 26 853 33 q 844 7 853 14 q 824 0 836 0 q 806 5 814 0 q 796 18 799 10 l 679 304 l 681 301 l 215 301 l 103 18 q 78 0 96 0 q 58 7 65 0 q 49 24 50 14 q 50 38 47 29 l 424 957 q 434 972 428 968 q 450 975 440 975 q 478 957 471 975 l 851 38 m 238 357 l 658 357 l 446 881 l 238 357 m 451 1083 q 335 1121 382 1083 q 271 1226 288 1158 q 269 1236 269 1229 q 292 1257 269 1257 q 309 1252 304 1257 q 319 1233 314 1247 q 451 1138 357 1138 q 582 1233 544 1138 q 592 1251 586 1246 q 610 1256 599 1256 q 630 1249 625 1256 q 632 1226 635 1242 q 568 1121 615 1158 q 451 1083 521 1083 m 275 1369 q 254 1393 254 1369 q 258 1418 254 1404 q 300 1482 269 1461 q 368 1503 331 1503 q 411 1492 389 1503 q 469 1460 433 1482 q 519 1432 501 1440 q 551 1424 536 1424 q 585 1440 572 1424 q 603 1486 599 1457 q 610 1504 604 1497 q 628 1511 617 1511 q 650 1485 650 1511 q 647 1464 650 1481 q 540 1374 626 1374 q 501 1383 522 1374 q 447 1414 481 1393 q 394 1442 411 1433 q 363 1450 378 1450 q 300 1389 318 1450 q 275 1369 294 1369 z "},"Ǎ":{"ha":901,"x_min":49,"x_max":853,"o":"m 851 38 q 853 26 853 33 q 844 7 853 14 q 824 0 836 0 q 806 5 814 0 q 796 18 799 10 l 679 304 l 681 301 l 215 301 l 103 18 q 78 0 96 0 q 58 7 65 0 q 49 24 50 14 q 50 38 47 29 l 424 957 q 434 972 428 968 q 450 975 440 975 q 478 957 471 975 l 851 38 m 238 357 l 658 357 l 446 881 l 238 357 m 594 1224 q 606 1219 601 1224 q 611 1207 611 1214 q 603 1190 611 1199 l 490 1071 q 457 1054 479 1054 l 443 1054 q 410 1071 421 1054 l 297 1189 q 289 1206 289 1197 q 294 1217 289 1213 q 306 1222 299 1222 q 332 1208 315 1222 l 454 1114 l 568 1210 q 594 1224 585 1224 z "},"Â":{"ha":901,"x_min":49,"x_max":853,"o":"m 851 38 q 853 26 853 33 q 844 7 853 14 q 824 0 836 0 q 806 5 814 0 q 796 18 799 10 l 679 304 l 681 301 l 215 301 l 103 18 q 78 0 96 0 q 58 7 65 0 q 49 24 50 14 q 50 38 47 29 l 424 957 q 434 972 428 968 q 450 975 440 975 q 478 957 471 975 l 851 38 m 238 357 l 658 357 l 446 881 l 238 357 m 603 1101 q 611 1085 611 1093 q 606 1073 611 1078 q 594 1068 601 1068 q 568 1082 585 1068 l 446 1176 l 332 1081 q 306 1067 315 1067 q 294 1072 299 1067 q 289 1083 289 1076 q 297 1100 289 1092 l 410 1219 q 426 1233 419 1229 q 443 1236 432 1236 l 457 1236 q 474 1233 468 1236 q 490 1219 481 1229 l 603 1101 z "},"Ấ":{"ha":901,"x_min":49,"x_max":853,"o":"m 851 38 q 853 26 853 33 q 844 7 853 14 q 824 0 836 0 q 806 5 814 0 q 796 18 799 10 l 679 304 l 681 301 l 215 301 l 103 18 q 78 0 96 0 q 58 7 65 0 q 49 24 50 14 q 50 38 47 29 l 424 957 q 434 972 428 968 q 450 975 440 975 q 478 957 471 975 l 851 38 m 238 357 l 658 357 l 446 881 l 238 357 m 603 1101 q 611 1085 611 1093 q 606 1073 611 1078 q 594 1068 601 1068 q 568 1082 585 1068 l 446 1176 l 332 1081 q 306 1067 315 1067 q 294 1072 299 1067 q 289 1083 289 1076 q 297 1100 289 1092 l 410 1219 q 426 1233 419 1229 q 443 1236 432 1236 l 457 1236 q 474 1233 468 1236 q 490 1219 481 1229 l 603 1101 m 619 1150 q 607 1155 611 1150 q 603 1167 603 1160 q 615 1188 603 1178 l 740 1281 q 771 1292 754 1292 q 794 1282 786 1292 q 803 1258 803 1272 q 783 1225 803 1236 l 649 1160 q 619 1150 629 1150 z "},"Ậ":{"ha":901,"x_min":49,"x_max":853,"o":"m 851 38 q 853 26 853 33 q 844 7 853 14 q 824 0 836 0 q 806 5 814 0 q 796 18 799 10 l 679 304 l 681 301 l 215 301 l 103 18 q 78 0 96 0 q 58 7 65 0 q 49 24 50 14 q 50 38 47 29 l 424 957 q 434 972 428 968 q 450 975 440 975 q 478 957 471 975 l 851 38 m 238 357 l 658 357 l 446 881 l 238 357 m 451 -190 q 416 -176 429 -190 q 403 -140 403 -162 l 403 -129 q 417 -93 403 -107 q 453 -79 431 -79 q 485 -93 472 -79 q 499 -129 499 -107 l 499 -140 q 485 -176 499 -162 q 451 -190 472 -190 m 603 1101 q 611 1085 611 1093 q 606 1073 611 1078 q 594 1068 601 1068 q 568 1082 585 1068 l 446 1176 l 332 1081 q 306 1067 315 1067 q 294 1072 299 1067 q 289 1083 289 1076 q 297 1100 289 1092 l 410 1219 q 426 1233 419 1229 q 443 1236 432 1236 l 457 1236 q 474 1233 468 1236 q 490 1219 481 1229 l 603 1101 z "},"Ầ":{"ha":901,"x_min":49,"x_max":853,"o":"m 851 38 q 853 26 853 33 q 844 7 853 14 q 824 0 836 0 q 806 5 814 0 q 796 18 799 10 l 679 304 l 681 301 l 215 301 l 103 18 q 78 0 96 0 q 58 7 65 0 q 49 24 50 14 q 50 38 47 29 l 424 957 q 434 972 428 968 q 450 975 440 975 q 478 957 471 975 l 851 38 m 238 357 l 658 357 l 446 881 l 238 357 m 603 1101 q 611 1085 611 1093 q 606 1073 611 1078 q 594 1068 601 1068 q 568 1082 585 1068 l 446 1176 l 332 1081 q 306 1067 315 1067 q 294 1072 299 1067 q 289 1083 289 1076 q 297 1100 289 1092 l 410 1219 q 426 1233 419 1229 q 443 1236 432 1236 l 457 1236 q 474 1233 468 1236 q 490 1219 481 1229 l 603 1101 m 607 1211 q 578 1221 597 1211 l 443 1286 q 424 1319 424 1297 q 432 1343 424 1333 q 456 1353 440 1353 q 486 1342 472 1353 l 611 1249 q 624 1228 624 1239 q 619 1216 624 1221 q 607 1211 615 1211 z "},"Ẩ":{"ha":901,"x_min":49,"x_max":853,"o":"m 851 38 q 853 26 853 33 q 844 7 853 14 q 824 0 836 0 q 806 5 814 0 q 796 18 799 10 l 679 304 l 681 301 l 215 301 l 103 18 q 78 0 96 0 q 58 7 65 0 q 49 24 50 14 q 50 38 47 29 l 424 957 q 434 972 428 968 q 450 975 440 975 q 478 957 471 975 l 851 38 m 238 357 l 658 357 l 446 881 l 238 357 m 603 1101 q 611 1085 611 1093 q 606 1073 611 1078 q 594 1068 601 1068 q 568 1082 585 1068 l 446 1176 l 332 1081 q 306 1067 315 1067 q 294 1072 299 1067 q 289 1083 289 1076 q 297 1100 289 1092 l 410 1219 q 426 1233 419 1229 q 443 1236 432 1236 l 457 1236 q 474 1233 468 1236 q 490 1219 481 1229 l 603 1101 m 556 1301 q 657 1346 600 1346 q 734 1316 708 1346 q 760 1250 760 1286 q 747 1209 760 1228 q 707 1163 735 1190 q 694 1131 696 1151 q 687 1116 693 1121 q 671 1111 681 1111 q 654 1117 660 1111 q 649 1133 649 1124 q 668 1189 649 1168 q 688 1209 675 1196 q 706 1231 700 1222 q 711 1251 711 1240 q 696 1283 711 1269 q 660 1296 681 1296 q 594 1269 629 1296 q 569 1258 581 1258 q 551 1267 560 1258 q 546 1282 546 1275 q 556 1301 546 1292 z "},"Ẫ":{"ha":901,"x_min":49,"x_max":853,"o":"m 851 38 q 853 26 853 33 q 844 7 853 14 q 824 0 836 0 q 806 5 814 0 q 796 18 799 10 l 679 304 l 681 301 l 215 301 l 103 18 q 78 0 96 0 q 58 7 65 0 q 49 24 50 14 q 50 38 47 29 l 424 957 q 434 972 428 968 q 450 975 440 975 q 478 957 471 975 l 851 38 m 238 357 l 658 357 l 446 881 l 238 357 m 603 1047 q 611 1031 611 1039 q 606 1019 611 1024 q 594 1014 601 1014 q 568 1028 585 1014 l 446 1122 l 332 1026 q 306 1013 315 1013 q 294 1017 299 1013 q 289 1029 289 1022 q 297 1046 289 1038 l 410 1165 q 426 1178 419 1175 q 443 1182 432 1182 l 457 1182 q 474 1178 468 1182 q 490 1165 481 1175 l 603 1047 m 275 1188 q 254 1211 254 1188 q 258 1236 254 1222 q 300 1300 269 1279 q 368 1321 331 1321 q 411 1310 389 1321 q 469 1278 433 1300 q 519 1250 501 1258 q 551 1242 536 1242 q 585 1258 572 1242 q 603 1304 599 1275 q 610 1322 604 1315 q 628 1329 617 1329 q 650 1303 650 1329 q 647 1282 650 1299 q 540 1192 626 1192 q 501 1201 522 1192 q 447 1232 481 1211 q 394 1260 411 1251 q 363 1268 378 1268 q 300 1207 318 1268 q 275 1188 294 1188 z "},"Ȁ":{"ha":901,"x_min":49,"x_max":853,"o":"m 851 38 q 853 26 853 33 q 844 7 853 14 q 824 0 836 0 q 806 5 814 0 q 796 18 799 10 l 679 304 l 681 301 l 215 301 l 103 18 q 78 0 96 0 q 58 7 65 0 q 49 24 50 14 q 50 38 47 29 l 424 957 q 434 972 428 968 q 450 975 440 975 q 478 957 471 975 l 851 38 m 238 357 l 658 357 l 446 881 l 238 357 m 407 1050 q 378 1060 397 1050 l 243 1125 q 224 1158 224 1136 q 232 1182 224 1172 q 256 1192 240 1192 q 286 1181 272 1192 l 411 1088 q 424 1067 424 1078 q 419 1055 424 1060 q 407 1050 415 1050 m 622 1044 q 593 1054 613 1044 l 458 1119 q 439 1153 439 1131 q 447 1176 439 1167 q 471 1186 456 1186 q 501 1175 488 1186 l 626 1082 q 639 1061 639 1072 q 635 1049 639 1054 q 622 1044 631 1044 z "},"Ä":{"ha":901,"x_min":49,"x_max":853,"o":"m 851 38 q 853 26 853 33 q 844 7 853 14 q 824 0 836 0 q 806 5 814 0 q 796 18 799 10 l 679 304 l 681 301 l 215 301 l 103 18 q 78 0 96 0 q 58 7 65 0 q 49 24 50 14 q 50 38 47 29 l 424 957 q 434 972 428 968 q 450 975 440 975 q 478 957 471 975 l 851 38 m 238 357 l 658 357 l 446 881 l 238 357 m 339 1083 q 303 1097 317 1083 q 290 1133 290 1111 l 290 1144 q 304 1181 290 1167 q 340 1194 318 1194 q 373 1181 360 1194 q 386 1144 386 1167 l 386 1133 q 373 1097 386 1111 q 339 1083 360 1083 m 565 1083 q 530 1097 543 1083 q 517 1133 517 1111 l 517 1144 q 531 1181 517 1167 q 567 1194 544 1194 q 599 1181 586 1194 q 613 1144 613 1167 l 613 1133 q 599 1097 613 1111 q 565 1083 586 1083 z "},"Ạ":{"ha":901,"x_min":49,"x_max":853,"o":"m 851 38 q 853 26 853 33 q 844 7 853 14 q 824 0 836 0 q 806 5 814 0 q 796 18 799 10 l 679 304 l 681 301 l 215 301 l 103 18 q 78 0 96 0 q 58 7 65 0 q 49 24 50 14 q 50 38 47 29 l 424 957 q 434 972 428 968 q 450 975 440 975 q 478 957 471 975 l 851 38 m 238 357 l 658 357 l 446 881 l 238 357 m 451 -190 q 416 -176 429 -190 q 403 -140 403 -162 l 403 -129 q 417 -93 403 -107 q 453 -79 431 -79 q 485 -93 472 -79 q 499 -129 499 -107 l 499 -140 q 485 -176 499 -162 q 451 -190 472 -190 z "},"À":{"ha":901,"x_min":49,"x_max":853,"o":"m 851 38 q 853 26 853 33 q 844 7 853 14 q 824 0 836 0 q 806 5 814 0 q 796 18 799 10 l 679 304 l 681 301 l 215 301 l 103 18 q 78 0 96 0 q 58 7 65 0 q 49 24 50 14 q 50 38 47 29 l 424 957 q 434 972 428 968 q 450 975 440 975 q 478 957 471 975 l 851 38 m 238 357 l 658 357 l 446 881 l 238 357 m 451 1039 q 422 1049 442 1039 l 288 1114 q 268 1147 268 1125 q 276 1171 268 1161 q 300 1181 285 1181 q 331 1169 317 1181 l 456 1076 q 468 1056 468 1067 q 464 1044 468 1049 q 451 1039 460 1039 z "},"Ả":{"ha":901,"x_min":49,"x_max":853,"o":"m 851 38 q 853 26 853 33 q 844 7 853 14 q 824 0 836 0 q 806 5 814 0 q 796 18 799 10 l 679 304 l 681 301 l 215 301 l 103 18 q 78 0 96 0 q 58 7 65 0 q 49 24 50 14 q 50 38 47 29 l 424 957 q 434 972 428 968 q 450 975 440 975 q 478 957 471 975 l 851 38 m 238 357 l 658 357 l 446 881 l 238 357 m 354 1242 q 456 1286 399 1286 q 533 1256 507 1286 q 558 1190 558 1226 q 546 1149 558 1168 q 506 1103 533 1131 q 493 1071 494 1092 q 485 1056 492 1061 q 469 1051 479 1051 q 453 1058 458 1051 q 447 1074 447 1064 q 467 1129 447 1108 q 486 1149 474 1136 q 504 1172 499 1163 q 510 1192 510 1181 q 494 1223 510 1210 q 458 1236 479 1236 q 393 1210 428 1236 q 368 1199 379 1199 q 350 1207 358 1199 q 344 1222 344 1215 q 354 1242 344 1232 z "},"Ȃ":{"ha":901,"x_min":49,"x_max":853,"o":"m 851 38 q 853 26 853 33 q 844 7 853 14 q 824 0 836 0 q 806 5 814 0 q 796 18 799 10 l 679 304 l 681 301 l 215 301 l 103 18 q 78 0 96 0 q 58 7 65 0 q 49 24 50 14 q 50 38 47 29 l 424 957 q 434 972 428 968 q 450 975 440 975 q 478 957 471 975 l 851 38 m 238 357 l 658 357 l 446 881 l 238 357 m 449 1172 q 533 1153 494 1172 q 594 1101 571 1133 q 617 1033 617 1069 q 609 1016 617 1024 q 590 1008 601 1008 q 561 1036 565 1008 q 523 1097 554 1075 q 449 1119 492 1119 q 374 1097 406 1119 q 336 1036 342 1075 q 307 1008 333 1008 q 288 1016 296 1008 q 281 1033 281 1024 q 303 1101 281 1069 q 365 1153 326 1133 q 449 1172 403 1172 z "},"Ā":{"ha":901,"x_min":49,"x_max":853,"o":"m 851 38 q 853 26 853 33 q 844 7 853 14 q 824 0 836 0 q 806 5 814 0 q 796 18 799 10 l 679 304 l 681 301 l 215 301 l 103 18 q 78 0 96 0 q 58 7 65 0 q 49 24 50 14 q 50 38 47 29 l 424 957 q 434 972 428 968 q 450 975 440 975 q 478 957 471 975 l 851 38 m 238 357 l 658 357 l 446 881 l 238 357 m 276 1111 q 246 1136 246 1111 q 276 1164 246 1164 l 638 1164 q 668 1136 668 1164 q 638 1111 668 1111 l 276 1111 z "},"Ą":{"ha":901,"x_min":47,"x_max":897,"o":"m 875 -169 q 891 -176 885 -169 q 897 -189 897 -182 q 867 -237 897 -217 q 797 -257 836 -257 q 712 -221 749 -257 q 675 -129 675 -185 q 709 -28 675 -69 q 790 31 743 13 l 679 304 l 681 301 l 215 301 l 103 18 q 78 0 96 0 q 58 7 65 0 q 49 24 50 14 q 50 38 47 29 l 424 957 q 434 972 428 968 q 450 975 440 975 q 478 957 471 975 l 851 38 q 854 25 854 29 q 847 8 854 14 q 826 0 840 3 q 758 -42 789 -7 q 728 -118 728 -78 q 751 -182 728 -158 q 804 -206 774 -206 q 849 -189 839 -206 q 860 -174 856 -179 q 875 -169 865 -169 m 238 357 l 658 357 l 446 881 l 238 357 z "},"Å":{"ha":901,"x_min":47,"x_max":853,"o":"m 851 38 q 853 26 853 33 q 844 7 853 14 q 824 0 836 0 q 806 5 814 0 q 796 18 799 10 l 679 304 l 681 301 l 215 301 l 103 18 q 78 0 96 0 q 58 7 65 0 q 49 24 50 14 q 50 38 47 29 l 415 938 q 344 983 372 949 q 315 1063 315 1018 q 356 1155 315 1117 q 451 1193 397 1193 q 547 1155 506 1193 q 588 1063 588 1117 q 558 983 588 1018 q 486 936 529 947 l 851 38 m 365 1063 q 391 1002 365 1028 q 451 976 417 976 q 513 1002 488 976 q 538 1063 538 1028 q 513 1124 538 1099 q 451 1149 488 1149 q 391 1124 417 1149 q 365 1063 365 1099 m 238 357 l 658 357 l 446 881 l 238 357 z "},"Ǻ":{"ha":901,"x_min":49,"x_max":853,"o":"m 851 38 q 853 26 853 33 q 844 7 853 14 q 824 0 836 0 q 806 5 814 0 q 796 18 799 10 l 679 304 l 681 301 l 215 301 l 103 18 q 78 0 96 0 q 58 7 65 0 q 49 24 50 14 q 50 38 47 29 l 415 938 q 344 983 372 949 q 315 1063 315 1018 q 356 1155 315 1117 q 451 1193 397 1193 q 547 1155 506 1193 q 588 1063 588 1117 q 558 983 588 1018 q 486 936 529 947 l 851 38 m 365 1063 q 391 1002 365 1028 q 451 976 417 976 q 513 1002 488 976 q 538 1063 538 1028 q 513 1124 538 1099 q 451 1149 488 1149 q 391 1124 417 1149 q 365 1063 365 1099 m 238 357 l 658 357 l 446 881 l 238 357 m 457 1260 q 444 1265 449 1260 q 440 1276 440 1269 q 453 1297 440 1288 l 578 1390 q 608 1401 592 1401 q 632 1392 624 1401 q 640 1368 640 1382 q 621 1335 640 1346 l 486 1269 q 457 1260 467 1260 z "},"Ã":{"ha":901,"x_min":49,"x_max":853,"o":"m 851 38 q 853 26 853 33 q 844 7 853 14 q 824 0 836 0 q 806 5 814 0 q 796 18 799 10 l 679 304 l 681 301 l 215 301 l 103 18 q 78 0 96 0 q 58 7 65 0 q 49 24 50 14 q 50 38 47 29 l 424 957 q 434 972 428 968 q 450 975 440 975 q 478 957 471 975 l 851 38 m 238 357 l 658 357 l 446 881 l 238 357 m 275 1086 q 254 1110 254 1086 q 258 1135 254 1121 q 300 1199 269 1178 q 368 1219 331 1219 q 411 1209 389 1219 q 469 1176 433 1199 q 519 1149 501 1157 q 551 1140 536 1140 q 585 1157 572 1140 q 603 1203 599 1174 q 610 1221 604 1214 q 628 1228 617 1228 q 650 1201 650 1228 q 647 1181 650 1197 q 540 1090 626 1090 q 501 1100 522 1090 q 447 1131 481 1110 q 394 1158 411 1150 q 363 1167 378 1167 q 300 1106 318 1167 q 275 1086 294 1086 z "},"Æ":{"ha":1293,"x_min":13,"x_max":1224,"o":"m 1196 56 q 1215 47 1207 56 q 1224 28 1224 39 q 1215 8 1224 15 q 1196 0 1207 0 l 686 0 q 667 8 675 0 q 658 28 658 17 l 658 246 l 226 246 l 63 11 q 39 -1 54 -1 q 20 7 28 -1 q 13 28 13 15 q 17 43 13 38 l 658 960 q 683 972 669 972 l 1196 972 q 1215 964 1207 972 q 1224 944 1224 956 q 1215 924 1224 932 q 1196 917 1207 917 l 714 917 l 714 529 l 1133 529 q 1153 521 1144 529 q 1161 501 1161 513 q 1153 481 1161 489 q 1133 474 1144 474 l 714 474 l 714 56 l 1196 56 m 658 863 l 265 301 l 658 301 l 658 863 z "},"Ǽ":{"ha":1293,"x_min":13,"x_max":1224,"o":"m 1196 56 q 1215 47 1207 56 q 1224 28 1224 39 q 1215 8 1224 15 q 1196 0 1207 0 l 686 0 q 667 8 675 0 q 658 28 658 17 l 658 246 l 226 246 l 63 11 q 39 -1 54 -1 q 20 7 28 -1 q 13 28 13 15 q 17 43 13 38 l 658 960 q 683 972 669 972 l 1196 972 q 1215 964 1207 972 q 1224 944 1224 956 q 1215 924 1224 932 q 1196 917 1207 917 l 714 917 l 714 529 l 1133 529 q 1153 521 1144 529 q 1161 501 1161 513 q 1153 481 1161 489 q 1133 474 1144 474 l 714 474 l 714 56 l 1196 56 m 658 863 l 265 301 l 658 301 l 658 863 m 885 1039 q 872 1044 876 1039 q 868 1056 868 1049 q 881 1076 868 1067 l 1006 1169 q 1036 1181 1019 1181 q 1060 1171 1051 1181 q 1068 1147 1068 1161 q 1049 1114 1068 1125 l 914 1049 q 885 1039 894 1039 z "},"B":{"ha":903,"x_min":139,"x_max":833,"o":"m 638 508 q 780 428 726 492 q 833 263 833 364 q 753 68 833 136 q 550 0 674 0 l 167 0 q 147 8 156 0 q 139 28 139 17 l 139 944 q 147 964 139 956 q 167 972 156 972 l 540 972 q 718 908 651 972 q 785 736 785 844 q 746 595 785 658 q 638 508 707 532 m 726 738 q 676 868 726 819 q 533 917 625 917 l 197 917 l 197 526 l 533 526 q 673 583 619 528 q 726 738 726 638 m 543 56 q 711 108 647 56 q 775 263 775 160 q 711 417 775 365 q 543 469 647 469 l 197 469 l 197 56 l 543 56 z "},"C":{"ha":919,"x_min":69,"x_max":871,"o":"m 858 892 q 871 869 871 882 q 865 851 871 858 q 844 840 857 840 q 828 846 839 840 q 554 933 699 933 q 340 876 438 933 q 185 716 242 818 q 128 486 128 614 q 185 256 128 358 q 340 97 242 154 q 554 39 438 39 q 826 125 700 39 q 843 131 833 131 q 865 119 857 131 q 871 103 871 113 q 860 81 871 89 q 720 14 806 42 q 554 -14 635 -14 q 311 51 422 -14 q 135 231 200 117 q 69 486 69 346 q 135 741 69 626 q 311 921 200 856 q 554 986 422 986 q 716 961 638 986 q 858 892 794 936 z "},"Ć":{"ha":919,"x_min":69,"x_max":871,"o":"m 858 892 q 871 869 871 882 q 865 851 871 858 q 844 840 857 840 q 828 846 839 840 q 554 933 699 933 q 340 876 438 933 q 185 716 242 818 q 128 486 128 614 q 185 256 128 358 q 340 97 242 154 q 554 39 438 39 q 826 125 700 39 q 843 131 833 131 q 865 119 857 131 q 871 103 871 113 q 860 81 871 89 q 720 14 806 42 q 554 -14 635 -14 q 311 51 422 -14 q 135 231 200 117 q 69 486 69 346 q 135 741 69 626 q 311 921 200 856 q 554 986 422 986 q 716 961 638 986 q 858 892 794 936 m 560 1039 q 547 1044 551 1039 q 543 1056 543 1049 q 556 1076 543 1067 l 681 1169 q 711 1181 694 1181 q 735 1171 726 1181 q 743 1147 743 1161 q 724 1114 743 1125 l 589 1049 q 560 1039 569 1039 z "},"Č":{"ha":919,"x_min":69,"x_max":871,"o":"m 858 892 q 871 869 871 882 q 865 851 871 858 q 844 840 857 840 q 828 846 839 840 q 554 933 699 933 q 340 876 438 933 q 185 716 242 818 q 128 486 128 614 q 185 256 128 358 q 340 97 242 154 q 554 39 438 39 q 826 125 700 39 q 843 131 833 131 q 865 119 857 131 q 871 103 871 113 q 860 81 871 89 q 720 14 806 42 q 554 -14 635 -14 q 311 51 422 -14 q 135 231 200 117 q 69 486 69 346 q 135 741 69 626 q 311 921 200 856 q 554 986 422 986 q 716 961 638 986 q 858 892 794 936 m 697 1224 q 709 1219 704 1224 q 714 1207 714 1214 q 706 1190 714 1199 l 593 1071 q 560 1054 582 1054 l 546 1054 q 513 1071 524 1054 l 400 1189 q 392 1206 392 1197 q 397 1217 392 1213 q 408 1222 401 1222 q 435 1208 418 1222 l 557 1114 l 671 1210 q 697 1224 688 1224 z "},"Ç":{"ha":919,"x_min":69,"x_max":871,"o":"m 865 119 q 871 103 871 113 q 860 81 871 89 q 735 19 811 46 q 582 -12 658 -7 l 503 -175 q 474 -196 493 -196 q 442 -184 460 -196 q 425 -158 425 -172 q 432 -139 425 -146 l 535 -14 q 301 58 407 -8 q 132 236 194 124 q 69 486 69 349 q 135 741 69 626 q 311 921 200 856 q 554 986 422 986 q 716 961 638 986 q 858 892 794 936 q 871 869 871 882 q 865 851 871 858 q 844 840 857 840 q 828 846 839 840 q 554 933 699 933 q 340 876 438 933 q 185 716 242 818 q 128 486 128 614 q 185 256 128 358 q 340 97 242 154 q 554 39 438 39 q 826 125 700 39 q 843 131 833 131 q 865 119 857 131 z "},"Ḉ":{"ha":919,"x_min":69,"x_max":871,"o":"m 560 1039 q 547 1044 551 1039 q 543 1056 543 1049 q 556 1076 543 1067 l 681 1169 q 711 1181 694 1181 q 735 1171 726 1181 q 743 1147 743 1161 q 724 1114 743 1125 l 589 1049 q 560 1039 569 1039 m 865 119 q 871 103 871 113 q 860 81 871 89 q 735 19 811 46 q 582 -12 658 -7 l 503 -175 q 474 -196 493 -196 q 442 -184 460 -196 q 425 -158 425 -172 q 432 -139 425 -146 l 535 -14 q 301 58 407 -8 q 132 236 194 124 q 69 486 69 349 q 135 741 69 626 q 311 921 200 856 q 554 986 422 986 q 716 961 638 986 q 858 892 794 936 q 871 869 871 882 q 865 851 871 858 q 844 840 857 840 q 828 846 839 840 q 554 933 699 933 q 340 876 438 933 q 185 716 242 818 q 128 486 128 614 q 185 256 128 358 q 340 97 242 154 q 554 39 438 39 q 826 125 700 39 q 843 131 833 131 q 865 119 857 131 z "},"Ĉ":{"ha":919,"x_min":69,"x_max":871,"o":"m 858 892 q 871 869 871 882 q 865 851 871 858 q 844 840 857 840 q 828 846 839 840 q 554 933 699 933 q 340 876 438 933 q 185 716 242 818 q 128 486 128 614 q 185 256 128 358 q 340 97 242 154 q 554 39 438 39 q 826 125 700 39 q 843 131 833 131 q 865 119 857 131 q 871 103 871 113 q 860 81 871 89 q 720 14 806 42 q 554 -14 635 -14 q 311 51 422 -14 q 135 231 200 117 q 69 486 69 346 q 135 741 69 626 q 311 921 200 856 q 554 986 422 986 q 716 961 638 986 q 858 892 794 936 m 706 1101 q 714 1085 714 1093 q 709 1073 714 1078 q 697 1068 704 1068 q 671 1082 688 1068 l 549 1176 l 435 1081 q 408 1067 418 1067 q 397 1072 401 1067 q 392 1083 392 1076 q 400 1100 392 1092 l 513 1219 q 528 1233 522 1229 q 546 1236 535 1236 l 560 1236 q 577 1233 571 1236 q 593 1219 583 1229 l 706 1101 z "},"Ċ":{"ha":919,"x_min":69,"x_max":871,"o":"m 858 892 q 871 869 871 882 q 865 851 871 858 q 844 840 857 840 q 828 846 839 840 q 554 933 699 933 q 340 876 438 933 q 185 716 242 818 q 128 486 128 614 q 185 256 128 358 q 340 97 242 154 q 554 39 438 39 q 826 125 700 39 q 843 131 833 131 q 865 119 857 131 q 871 103 871 113 q 860 81 871 89 q 720 14 806 42 q 554 -14 635 -14 q 311 51 422 -14 q 135 231 200 117 q 69 486 69 346 q 135 741 69 626 q 311 921 200 856 q 554 986 422 986 q 716 961 638 986 q 858 892 794 936 m 528 1083 q 492 1097 506 1083 q 479 1133 479 1111 l 479 1144 q 493 1181 479 1167 q 529 1194 507 1194 q 562 1181 549 1194 q 575 1144 575 1167 l 575 1133 q 562 1097 575 1111 q 528 1083 549 1083 z "},"D":{"ha":1000,"x_min":139,"x_max":931,"o":"m 528 972 q 752 906 661 972 q 887 728 843 839 q 931 486 931 618 q 887 239 931 349 q 753 65 843 129 q 528 0 663 0 l 167 0 q 147 8 156 0 q 139 28 139 17 l 139 944 q 147 964 139 956 q 167 972 156 972 l 528 972 m 514 56 q 783 174 694 56 q 872 486 872 293 q 834 702 872 604 q 716 858 796 800 q 514 917 636 917 l 197 917 l 197 56 l 514 56 z "},"Ǆ":{"ha":1893,"x_min":139,"x_max":1824,"o":"m 528 972 q 752 906 661 972 q 887 728 843 839 q 931 486 931 618 q 887 239 931 349 q 753 65 843 129 q 528 0 663 0 l 167 0 q 147 8 156 0 q 139 28 139 17 l 139 944 q 147 964 139 956 q 167 972 156 972 l 528 972 m 514 56 q 783 174 694 56 q 872 486 872 293 q 834 702 872 604 q 716 858 796 800 q 514 917 636 917 l 197 917 l 197 56 l 514 56 m 1794 53 q 1814 44 1806 53 q 1822 26 1822 36 q 1814 8 1822 15 q 1794 0 1806 0 l 1111 0 q 1091 9 1099 0 q 1083 29 1083 18 q 1089 46 1083 39 l 1744 919 l 1139 919 q 1119 927 1128 919 q 1111 946 1111 935 q 1119 965 1111 957 q 1139 972 1128 972 l 1792 972 q 1816 964 1808 972 q 1824 944 1824 956 q 1818 928 1824 935 l 1164 53 l 1794 53 m 1590 1224 q 1602 1219 1597 1224 q 1607 1207 1607 1214 q 1599 1190 1607 1199 l 1486 1071 q 1453 1054 1475 1054 l 1439 1054 q 1406 1071 1417 1054 l 1293 1189 q 1285 1206 1285 1197 q 1290 1217 1285 1213 q 1301 1222 1294 1222 q 1328 1208 1311 1222 l 1450 1114 l 1564 1210 q 1590 1224 1581 1224 z "},"Ð":{"ha":1000,"x_min":33,"x_max":931,"o":"m 528 972 q 752 906 661 972 q 887 728 843 839 q 931 486 931 618 q 887 239 931 349 q 753 65 843 129 q 528 0 663 0 l 167 0 q 147 8 156 0 q 139 28 139 17 l 139 461 l 61 461 q 33 488 33 461 q 61 514 33 514 l 139 514 l 139 944 q 147 964 139 956 q 167 972 156 972 l 528 972 m 514 56 q 783 174 694 56 q 872 486 872 293 q 834 702 872 604 q 716 858 796 800 q 514 917 636 917 l 197 917 l 197 514 l 283 514 q 311 486 311 514 q 283 461 311 461 l 197 461 l 197 56 l 514 56 z "},"Ď":{"ha":1000,"x_min":139,"x_max":931,"o":"m 528 972 q 752 906 661 972 q 887 728 843 839 q 931 486 931 618 q 887 239 931 349 q 753 65 843 129 q 528 0 663 0 l 167 0 q 147 8 156 0 q 139 28 139 17 l 139 944 q 147 964 139 956 q 167 972 156 972 l 528 972 m 514 56 q 783 174 694 56 q 872 486 872 293 q 834 702 872 604 q 716 858 796 800 q 514 917 636 917 l 197 917 l 197 56 l 514 56 m 578 1224 q 590 1219 585 1224 q 594 1207 594 1214 q 586 1190 594 1199 l 474 1071 q 440 1054 463 1054 l 426 1054 q 393 1071 404 1054 l 281 1189 q 272 1206 272 1197 q 277 1217 272 1213 q 289 1222 282 1222 q 315 1208 299 1222 l 438 1114 l 551 1210 q 578 1224 568 1224 z "},"Đ":{"ha":1000,"x_min":33,"x_max":931,"o":"m 528 972 q 752 906 661 972 q 887 728 843 839 q 931 486 931 618 q 887 239 931 349 q 753 65 843 129 q 528 0 663 0 l 167 0 q 147 8 156 0 q 139 28 139 17 l 139 461 l 61 461 q 33 488 33 461 q 61 514 33 514 l 139 514 l 139 944 q 147 964 139 956 q 167 972 156 972 l 528 972 m 514 56 q 783 174 694 56 q 872 486 872 293 q 834 702 872 604 q 716 858 796 800 q 514 917 636 917 l 197 917 l 197 514 l 283 514 q 311 486 311 514 q 283 461 311 461 l 197 461 l 197 56 l 514 56 z "},"Ḍ":{"ha":1000,"x_min":139,"x_max":931,"o":"m 528 972 q 752 906 661 972 q 887 728 843 839 q 931 486 931 618 q 887 239 931 349 q 753 65 843 129 q 528 0 663 0 l 167 0 q 147 8 156 0 q 139 28 139 17 l 139 944 q 147 964 139 956 q 167 972 156 972 l 528 972 m 514 56 q 783 174 694 56 q 872 486 872 293 q 834 702 872 604 q 716 858 796 800 q 514 917 636 917 l 197 917 l 197 56 l 514 56 m 444 -190 q 409 -176 422 -190 q 396 -140 396 -162 l 396 -129 q 410 -93 396 -107 q 446 -79 424 -79 q 478 -93 465 -79 q 492 -129 492 -107 l 492 -140 q 478 -176 492 -162 q 444 -190 465 -190 z "},"Ḏ":{"ha":1000,"x_min":139,"x_max":931,"o":"m 528 972 q 752 906 661 972 q 887 728 843 839 q 931 486 931 618 q 887 239 931 349 q 753 65 843 129 q 528 0 663 0 l 167 0 q 147 8 156 0 q 139 28 139 17 l 139 944 q 147 964 139 956 q 167 972 156 972 l 528 972 m 514 56 q 783 174 694 56 q 872 486 872 293 q 834 702 872 604 q 716 858 796 800 q 514 917 636 917 l 197 917 l 197 56 l 514 56 m 313 -162 q 285 -137 285 -162 q 313 -111 285 -111 l 590 -111 q 618 -137 618 -111 q 590 -162 618 -162 l 313 -162 z "},"ǲ":{"ha":1661,"x_min":139,"x_max":1592,"o":"m 528 972 q 752 906 661 972 q 887 728 843 839 q 931 486 931 618 q 887 239 931 349 q 753 65 843 129 q 528 0 663 0 l 167 0 q 147 8 156 0 q 139 28 139 17 l 139 944 q 147 964 139 956 q 167 972 156 972 l 528 972 m 514 56 q 783 174 694 56 q 872 486 872 293 q 834 702 872 604 q 716 858 796 800 q 514 917 636 917 l 197 917 l 197 56 l 514 56 m 1592 688 q 1585 668 1592 678 l 1146 53 l 1550 53 q 1569 44 1561 53 q 1578 26 1578 36 q 1569 8 1578 15 q 1550 0 1561 0 l 1097 0 q 1076 10 1085 0 q 1068 28 1068 19 q 1075 46 1068 36 l 1514 663 l 1139 663 q 1119 670 1128 663 q 1111 689 1111 678 q 1119 708 1111 700 q 1139 715 1128 715 l 1564 715 q 1583 707 1575 715 q 1592 688 1590 699 z "},"ǅ":{"ha":1663,"x_min":139,"x_max":1593,"o":"m 528 972 q 752 906 661 972 q 887 728 843 839 q 931 486 931 618 q 887 239 931 349 q 753 65 843 129 q 528 0 663 0 l 167 0 q 147 8 156 0 q 139 28 139 17 l 139 944 q 147 964 139 956 q 167 972 156 972 l 528 972 m 514 56 q 783 174 694 56 q 872 486 872 293 q 834 702 872 604 q 716 858 796 800 q 514 917 636 917 l 197 917 l 197 56 l 514 56 m 1593 688 q 1586 668 1593 678 l 1147 53 l 1551 53 q 1571 44 1563 53 q 1579 26 1579 36 q 1571 8 1579 15 q 1551 0 1563 0 l 1099 0 q 1078 10 1086 0 q 1069 28 1069 19 q 1076 46 1069 36 l 1515 663 l 1140 663 q 1121 670 1129 663 q 1113 689 1113 678 q 1121 708 1113 700 q 1140 715 1129 715 l 1565 715 q 1584 707 1576 715 q 1593 688 1592 699 m 1507 944 q 1519 940 1514 944 q 1524 928 1524 935 q 1515 911 1524 919 l 1403 792 q 1369 775 1392 775 l 1356 775 q 1322 792 1333 775 l 1210 910 q 1201 926 1201 918 q 1206 938 1201 933 q 1218 943 1211 943 q 1244 929 1228 943 l 1367 835 l 1481 931 q 1507 944 1497 944 z "},"E":{"ha":788,"x_min":139,"x_max":718,"o":"m 690 56 q 710 47 701 56 q 718 28 718 39 q 710 8 718 15 q 690 0 701 0 l 167 0 q 147 8 156 0 q 139 28 139 17 l 139 944 q 147 964 139 956 q 167 972 156 972 l 690 972 q 710 964 701 972 q 718 944 718 956 q 710 924 718 932 q 690 917 701 917 l 197 917 l 197 529 l 628 529 q 647 521 639 529 q 656 501 656 513 q 647 481 656 489 q 628 474 639 474 l 197 474 l 197 56 l 690 56 z "},"É":{"ha":788,"x_min":139,"x_max":718,"o":"m 690 56 q 710 47 701 56 q 718 28 718 39 q 710 8 718 15 q 690 0 701 0 l 167 0 q 147 8 156 0 q 139 28 139 17 l 139 944 q 147 964 139 956 q 167 972 156 972 l 690 972 q 710 964 701 972 q 718 944 718 956 q 710 924 718 932 q 690 917 701 917 l 197 917 l 197 529 l 628 529 q 647 521 639 529 q 656 501 656 513 q 647 481 656 489 q 628 474 639 474 l 197 474 l 197 56 l 690 56 m 453 1039 q 440 1044 444 1039 q 436 1056 436 1049 q 449 1076 436 1067 l 574 1169 q 604 1181 588 1181 q 628 1171 619 1181 q 636 1147 636 1161 q 617 1114 636 1125 l 482 1049 q 453 1039 463 1039 z "},"Ĕ":{"ha":788,"x_min":139,"x_max":718,"o":"m 690 56 q 710 47 701 56 q 718 28 718 39 q 710 8 718 15 q 690 0 701 0 l 167 0 q 147 8 156 0 q 139 28 139 17 l 139 944 q 147 964 139 956 q 167 972 156 972 l 690 972 q 710 964 701 972 q 718 944 718 956 q 710 924 718 932 q 690 917 701 917 l 197 917 l 197 529 l 628 529 q 647 521 639 529 q 656 501 656 513 q 647 481 656 489 q 628 474 639 474 l 197 474 l 197 56 l 690 56 m 447 1083 q 331 1121 378 1083 q 267 1226 283 1158 q 265 1236 265 1229 q 288 1257 265 1257 q 305 1252 300 1257 q 315 1233 310 1247 q 447 1138 353 1138 q 578 1233 540 1138 q 588 1251 582 1246 q 606 1256 594 1256 q 626 1249 621 1256 q 628 1226 631 1242 q 564 1121 611 1158 q 447 1083 517 1083 z "},"Ě":{"ha":788,"x_min":139,"x_max":718,"o":"m 690 56 q 710 47 701 56 q 718 28 718 39 q 710 8 718 15 q 690 0 701 0 l 167 0 q 147 8 156 0 q 139 28 139 17 l 139 944 q 147 964 139 956 q 167 972 156 972 l 690 972 q 710 964 701 972 q 718 944 718 956 q 710 924 718 932 q 690 917 701 917 l 197 917 l 197 529 l 628 529 q 647 521 639 529 q 656 501 656 513 q 647 481 656 489 q 628 474 639 474 l 197 474 l 197 56 l 690 56 m 590 1224 q 602 1219 597 1224 q 607 1207 607 1214 q 599 1190 607 1199 l 486 1071 q 453 1054 475 1054 l 439 1054 q 406 1071 417 1054 l 293 1189 q 285 1206 285 1197 q 290 1217 285 1213 q 301 1222 294 1222 q 328 1208 311 1222 l 450 1114 l 564 1210 q 590 1224 581 1224 z "},"Ḝ":{"ha":788,"x_min":139,"x_max":718,"o":"m 447 1083 q 331 1121 378 1083 q 267 1226 283 1158 q 265 1236 265 1229 q 288 1257 265 1257 q 305 1252 300 1257 q 315 1233 310 1247 q 447 1138 353 1138 q 578 1233 540 1138 q 588 1251 582 1246 q 606 1256 594 1256 q 626 1249 621 1256 q 628 1226 631 1242 q 564 1121 611 1158 q 447 1083 517 1083 m 690 56 q 710 47 701 56 q 718 28 718 39 q 710 8 718 15 q 690 0 701 0 l 463 0 l 376 -175 q 347 -196 367 -196 q 316 -184 333 -196 q 299 -158 299 -172 q 306 -139 299 -146 l 419 0 l 167 0 q 147 8 156 0 q 139 28 139 17 l 139 944 q 147 964 139 956 q 167 972 156 972 l 690 972 q 710 964 701 972 q 718 944 718 956 q 710 924 718 932 q 690 917 701 917 l 197 917 l 197 529 l 628 529 q 647 521 639 529 q 656 501 656 513 q 647 481 656 489 q 628 474 639 474 l 197 474 l 197 56 l 690 56 z "},"Ê":{"ha":788,"x_min":139,"x_max":718,"o":"m 690 56 q 710 47 701 56 q 718 28 718 39 q 710 8 718 15 q 690 0 701 0 l 167 0 q 147 8 156 0 q 139 28 139 17 l 139 944 q 147 964 139 956 q 167 972 156 972 l 690 972 q 710 964 701 972 q 718 944 718 956 q 710 924 718 932 q 690 917 701 917 l 197 917 l 197 529 l 628 529 q 647 521 639 529 q 656 501 656 513 q 647 481 656 489 q 628 474 639 474 l 197 474 l 197 56 l 690 56 m 599 1101 q 607 1085 607 1093 q 602 1073 607 1078 q 590 1068 597 1068 q 564 1082 581 1068 l 442 1176 l 328 1081 q 301 1067 311 1067 q 290 1072 294 1067 q 285 1083 285 1076 q 293 1100 285 1092 l 406 1219 q 422 1233 415 1229 q 439 1236 428 1236 l 453 1236 q 470 1233 464 1236 q 486 1219 476 1229 l 599 1101 z "},"Ế":{"ha":788,"x_min":139,"x_max":821,"o":"m 690 56 q 710 47 701 56 q 718 28 718 39 q 710 8 718 15 q 690 0 701 0 l 167 0 q 147 8 156 0 q 139 28 139 17 l 139 944 q 147 964 139 956 q 167 972 156 972 l 690 972 q 710 964 701 972 q 718 944 718 956 q 710 924 718 932 q 690 917 701 917 l 197 917 l 197 529 l 628 529 q 647 521 639 529 q 656 501 656 513 q 647 481 656 489 q 628 474 639 474 l 197 474 l 197 56 l 690 56 m 599 1101 q 607 1085 607 1093 q 602 1073 607 1078 q 590 1068 597 1068 q 564 1082 581 1068 l 442 1176 l 328 1081 q 301 1067 311 1067 q 290 1072 294 1067 q 285 1083 285 1076 q 293 1100 285 1092 l 406 1219 q 422 1233 415 1229 q 439 1236 428 1236 l 453 1236 q 470 1233 464 1236 q 486 1219 476 1229 l 599 1101 m 638 1140 q 625 1145 629 1140 q 621 1157 621 1150 q 633 1178 621 1168 l 758 1271 q 789 1282 772 1282 q 813 1272 804 1282 q 821 1249 821 1263 q 801 1215 821 1226 l 667 1150 q 638 1140 647 1140 z "},"Ệ":{"ha":788,"x_min":139,"x_max":718,"o":"m 690 56 q 710 47 701 56 q 718 28 718 39 q 710 8 718 15 q 690 0 701 0 l 167 0 q 147 8 156 0 q 139 28 139 17 l 139 944 q 147 964 139 956 q 167 972 156 972 l 690 972 q 710 964 701 972 q 718 944 718 956 q 710 924 718 932 q 690 917 701 917 l 197 917 l 197 529 l 628 529 q 647 521 639 529 q 656 501 656 513 q 647 481 656 489 q 628 474 639 474 l 197 474 l 197 56 l 690 56 m 444 -190 q 409 -176 422 -190 q 396 -140 396 -162 l 396 -129 q 410 -93 396 -107 q 446 -79 424 -79 q 478 -93 465 -79 q 492 -129 492 -107 l 492 -140 q 478 -176 492 -162 q 444 -190 465 -190 m 599 1101 q 607 1085 607 1093 q 602 1073 607 1078 q 590 1068 597 1068 q 564 1082 581 1068 l 442 1176 l 328 1081 q 301 1067 311 1067 q 290 1072 294 1067 q 285 1083 285 1076 q 293 1100 285 1092 l 406 1219 q 422 1233 415 1229 q 439 1236 428 1236 l 453 1236 q 470 1233 464 1236 q 486 1219 476 1229 l 599 1101 z "},"Ề":{"ha":788,"x_min":139,"x_max":718,"o":"m 690 56 q 710 47 701 56 q 718 28 718 39 q 710 8 718 15 q 690 0 701 0 l 167 0 q 147 8 156 0 q 139 28 139 17 l 139 944 q 147 964 139 956 q 167 972 156 972 l 690 972 q 710 964 701 972 q 718 944 718 956 q 710 924 718 932 q 690 917 701 917 l 197 917 l 197 529 l 628 529 q 647 521 639 529 q 656 501 656 513 q 647 481 656 489 q 628 474 639 474 l 197 474 l 197 56 l 690 56 m 599 1101 q 607 1085 607 1093 q 602 1073 607 1078 q 590 1068 597 1068 q 564 1082 581 1068 l 442 1176 l 328 1081 q 301 1067 311 1067 q 290 1072 294 1067 q 285 1083 285 1076 q 293 1100 285 1092 l 406 1219 q 422 1233 415 1229 q 439 1236 428 1236 l 453 1236 q 470 1233 464 1236 q 486 1219 476 1229 l 599 1101 m 606 1229 q 576 1239 596 1229 l 442 1304 q 422 1338 422 1315 q 431 1361 422 1351 q 454 1371 439 1371 q 485 1360 471 1371 l 610 1267 q 622 1246 622 1257 q 618 1234 622 1239 q 606 1229 614 1229 z "},"Ể":{"ha":788,"x_min":139,"x_max":718,"o":"m 690 56 q 710 47 701 56 q 718 28 718 39 q 710 8 718 15 q 690 0 701 0 l 167 0 q 147 8 156 0 q 139 28 139 17 l 139 944 q 147 964 139 956 q 167 972 156 972 l 690 972 q 710 964 701 972 q 718 944 718 956 q 710 924 718 932 q 690 917 701 917 l 197 917 l 197 529 l 628 529 q 647 521 639 529 q 656 501 656 513 q 647 481 656 489 q 628 474 639 474 l 197 474 l 197 56 l 690 56 m 599 1101 q 607 1085 607 1093 q 602 1073 607 1078 q 590 1068 597 1068 q 564 1082 581 1068 l 442 1176 l 328 1081 q 301 1067 311 1067 q 290 1072 294 1067 q 285 1083 285 1076 q 293 1100 285 1092 l 406 1219 q 422 1233 415 1229 q 439 1236 428 1236 l 453 1236 q 470 1233 464 1236 q 486 1219 476 1229 l 599 1101 m 350 1506 q 451 1550 394 1550 q 528 1520 503 1550 q 554 1454 554 1490 q 542 1413 554 1432 q 501 1367 529 1394 q 489 1335 490 1356 q 481 1320 488 1325 q 465 1315 475 1315 q 449 1322 454 1315 q 443 1338 443 1328 q 463 1393 443 1372 q 482 1413 469 1400 q 500 1435 494 1426 q 506 1456 506 1444 q 490 1487 506 1474 q 454 1500 475 1500 q 389 1474 424 1500 q 364 1463 375 1463 q 346 1471 354 1463 q 340 1486 340 1479 q 350 1506 340 1496 z "},"Ễ":{"ha":788,"x_min":139,"x_max":718,"o":"m 690 56 q 710 47 701 56 q 718 28 718 39 q 710 8 718 15 q 690 0 701 0 l 167 0 q 147 8 156 0 q 139 28 139 17 l 139 944 q 147 964 139 956 q 167 972 156 972 l 690 972 q 710 964 701 972 q 718 944 718 956 q 710 924 718 932 q 690 917 701 917 l 197 917 l 197 529 l 628 529 q 647 521 639 529 q 656 501 656 513 q 647 481 656 489 q 628 474 639 474 l 197 474 l 197 56 l 690 56 m 599 1101 q 607 1085 607 1093 q 602 1073 607 1078 q 590 1068 597 1068 q 564 1082 581 1068 l 442 1176 l 328 1081 q 301 1067 311 1067 q 290 1072 294 1067 q 285 1083 285 1076 q 293 1100 285 1092 l 406 1219 q 422 1233 415 1229 q 439 1236 428 1236 l 453 1236 q 470 1233 464 1236 q 486 1219 476 1229 l 599 1101 m 271 1246 q 250 1269 250 1246 q 254 1294 250 1281 q 296 1358 265 1338 q 364 1379 326 1379 q 407 1369 385 1379 q 465 1336 429 1358 q 515 1308 497 1317 q 547 1300 532 1300 q 581 1317 568 1300 q 599 1363 594 1333 q 606 1381 600 1374 q 624 1388 613 1388 q 646 1361 646 1388 q 643 1340 646 1357 q 536 1250 622 1250 q 497 1260 518 1250 q 443 1290 476 1269 q 390 1318 407 1310 q 358 1326 374 1326 q 296 1265 314 1326 q 271 1246 290 1246 z "},"Ȅ":{"ha":788,"x_min":139,"x_max":718,"o":"m 690 56 q 710 47 701 56 q 718 28 718 39 q 710 8 718 15 q 690 0 701 0 l 167 0 q 147 8 156 0 q 139 28 139 17 l 139 944 q 147 964 139 956 q 167 972 156 972 l 690 972 q 710 964 701 972 q 718 944 718 956 q 710 924 718 932 q 690 917 701 917 l 197 917 l 197 529 l 628 529 q 647 521 639 529 q 656 501 656 513 q 647 481 656 489 q 628 474 639 474 l 197 474 l 197 56 l 690 56 m 403 1050 q 374 1060 393 1050 l 239 1125 q 219 1158 219 1136 q 228 1182 219 1172 q 251 1192 236 1192 q 282 1181 268 1192 l 407 1088 q 419 1067 419 1078 q 415 1055 419 1060 q 403 1050 411 1050 m 618 1044 q 589 1054 608 1044 l 454 1119 q 435 1153 435 1131 q 443 1176 435 1167 q 467 1186 451 1186 q 497 1175 483 1186 l 622 1082 q 635 1061 635 1072 q 631 1049 635 1054 q 618 1044 626 1044 z "},"Ë":{"ha":788,"x_min":139,"x_max":718,"o":"m 690 56 q 710 47 701 56 q 718 28 718 39 q 710 8 718 15 q 690 0 701 0 l 167 0 q 147 8 156 0 q 139 28 139 17 l 139 944 q 147 964 139 956 q 167 972 156 972 l 690 972 q 710 964 701 972 q 718 944 718 956 q 710 924 718 932 q 690 917 701 917 l 197 917 l 197 529 l 628 529 q 647 521 639 529 q 656 501 656 513 q 647 481 656 489 q 628 474 639 474 l 197 474 l 197 56 l 690 56 m 335 1083 q 299 1097 313 1083 q 286 1133 286 1111 l 286 1144 q 300 1181 286 1167 q 336 1194 314 1194 q 369 1181 356 1194 q 382 1144 382 1167 l 382 1133 q 369 1097 382 1111 q 335 1083 356 1083 m 561 1083 q 526 1097 539 1083 q 513 1133 513 1111 l 513 1144 q 526 1181 513 1167 q 563 1194 540 1194 q 595 1181 582 1194 q 608 1144 608 1167 l 608 1133 q 595 1097 608 1111 q 561 1083 582 1083 z "},"Ė":{"ha":788,"x_min":139,"x_max":718,"o":"m 690 56 q 710 47 701 56 q 718 28 718 39 q 710 8 718 15 q 690 0 701 0 l 167 0 q 147 8 156 0 q 139 28 139 17 l 139 944 q 147 964 139 956 q 167 972 156 972 l 690 972 q 710 964 701 972 q 718 944 718 956 q 710 924 718 932 q 690 917 701 917 l 197 917 l 197 529 l 628 529 q 647 521 639 529 q 656 501 656 513 q 647 481 656 489 q 628 474 639 474 l 197 474 l 197 56 l 690 56 m 447 1083 q 412 1097 425 1083 q 399 1133 399 1111 l 399 1144 q 413 1181 399 1167 q 449 1194 426 1194 q 481 1181 468 1194 q 494 1144 494 1167 l 494 1133 q 481 1097 494 1111 q 447 1083 468 1083 z "},"Ẹ":{"ha":788,"x_min":139,"x_max":718,"o":"m 690 56 q 710 47 701 56 q 718 28 718 39 q 710 8 718 15 q 690 0 701 0 l 167 0 q 147 8 156 0 q 139 28 139 17 l 139 944 q 147 964 139 956 q 167 972 156 972 l 690 972 q 710 964 701 972 q 718 944 718 956 q 710 924 718 932 q 690 917 701 917 l 197 917 l 197 529 l 628 529 q 647 521 639 529 q 656 501 656 513 q 647 481 656 489 q 628 474 639 474 l 197 474 l 197 56 l 690 56 m 444 -190 q 409 -176 422 -190 q 396 -140 396 -162 l 396 -129 q 410 -93 396 -107 q 446 -79 424 -79 q 478 -93 465 -79 q 492 -129 492 -107 l 492 -140 q 478 -176 492 -162 q 444 -190 465 -190 z "},"È":{"ha":788,"x_min":139,"x_max":718,"o":"m 690 56 q 710 47 701 56 q 718 28 718 39 q 710 8 718 15 q 690 0 701 0 l 167 0 q 147 8 156 0 q 139 28 139 17 l 139 944 q 147 964 139 956 q 167 972 156 972 l 690 972 q 710 964 701 972 q 718 944 718 956 q 710 924 718 932 q 690 917 701 917 l 197 917 l 197 529 l 628 529 q 647 521 639 529 q 656 501 656 513 q 647 481 656 489 q 628 474 639 474 l 197 474 l 197 56 l 690 56 m 447 1039 q 418 1049 438 1039 l 283 1114 q 264 1147 264 1125 q 272 1171 264 1161 q 296 1181 281 1181 q 326 1169 313 1181 l 451 1076 q 464 1056 464 1067 q 460 1044 464 1049 q 447 1039 456 1039 z "},"Ẻ":{"ha":788,"x_min":139,"x_max":718,"o":"m 690 56 q 710 47 701 56 q 718 28 718 39 q 710 8 718 15 q 690 0 701 0 l 167 0 q 147 8 156 0 q 139 28 139 17 l 139 944 q 147 964 139 956 q 167 972 156 972 l 690 972 q 710 964 701 972 q 718 944 718 956 q 710 924 718 932 q 690 917 701 917 l 197 917 l 197 529 l 628 529 q 647 521 639 529 q 656 501 656 513 q 647 481 656 489 q 628 474 639 474 l 197 474 l 197 56 l 690 56 m 350 1242 q 451 1286 394 1286 q 528 1256 503 1286 q 554 1190 554 1226 q 542 1149 554 1168 q 501 1103 529 1131 q 489 1071 490 1092 q 481 1056 488 1061 q 465 1051 475 1051 q 449 1058 454 1051 q 443 1074 443 1064 q 463 1129 443 1108 q 482 1149 469 1136 q 500 1172 494 1163 q 506 1192 506 1181 q 490 1223 506 1210 q 454 1236 475 1236 q 389 1210 424 1236 q 364 1199 375 1199 q 346 1207 354 1199 q 340 1222 340 1215 q 350 1242 340 1232 z "},"Ȇ":{"ha":788,"x_min":139,"x_max":718,"o":"m 690 56 q 710 47 701 56 q 718 28 718 39 q 710 8 718 15 q 690 0 701 0 l 167 0 q 147 8 156 0 q 139 28 139 17 l 139 944 q 147 964 139 956 q 167 972 156 972 l 690 972 q 710 964 701 972 q 718 944 718 956 q 710 924 718 932 q 690 917 701 917 l 197 917 l 197 529 l 628 529 q 647 521 639 529 q 656 501 656 513 q 647 481 656 489 q 628 474 639 474 l 197 474 l 197 56 l 690 56 m 444 1172 q 528 1153 490 1172 q 590 1101 567 1133 q 613 1033 613 1069 q 605 1016 613 1024 q 586 1008 597 1008 q 557 1036 561 1008 q 519 1097 550 1075 q 444 1119 488 1119 q 369 1097 401 1119 q 332 1036 338 1075 q 303 1008 329 1008 q 284 1016 292 1008 q 276 1033 276 1024 q 299 1101 276 1069 q 360 1153 322 1133 q 444 1172 399 1172 z "},"Ē":{"ha":788,"x_min":139,"x_max":718,"o":"m 690 56 q 710 47 701 56 q 718 28 718 39 q 710 8 718 15 q 690 0 701 0 l 167 0 q 147 8 156 0 q 139 28 139 17 l 139 944 q 147 964 139 956 q 167 972 156 972 l 690 972 q 710 964 701 972 q 718 944 718 956 q 710 924 718 932 q 690 917 701 917 l 197 917 l 197 529 l 628 529 q 647 521 639 529 q 656 501 656 513 q 647 481 656 489 q 628 474 639 474 l 197 474 l 197 56 l 690 56 m 272 1111 q 242 1136 242 1111 q 272 1164 242 1164 l 633 1164 q 664 1136 664 1164 q 633 1111 664 1111 l 272 1111 z "},"Ḗ":{"ha":788,"x_min":139,"x_max":718,"o":"m 690 56 q 710 47 701 56 q 718 28 718 39 q 710 8 718 15 q 690 0 701 0 l 167 0 q 147 8 156 0 q 139 28 139 17 l 139 944 q 147 964 139 956 q 167 972 156 972 l 690 972 q 710 964 701 972 q 718 944 718 956 q 710 924 718 932 q 690 917 701 917 l 197 917 l 197 529 l 628 529 q 647 521 639 529 q 656 501 656 513 q 647 481 656 489 q 628 474 639 474 l 197 474 l 197 56 l 690 56 m 272 1111 q 242 1136 242 1111 q 272 1164 242 1164 l 633 1164 q 664 1136 664 1164 q 633 1111 664 1111 l 272 1111 m 453 1246 q 440 1251 444 1246 q 436 1263 436 1256 q 449 1283 436 1274 l 574 1376 q 604 1388 588 1388 q 628 1378 619 1388 q 636 1354 636 1368 q 617 1321 636 1332 l 482 1256 q 453 1246 463 1246 z "},"Ḕ":{"ha":788,"x_min":139,"x_max":718,"o":"m 690 56 q 710 47 701 56 q 718 28 718 39 q 710 8 718 15 q 690 0 701 0 l 167 0 q 147 8 156 0 q 139 28 139 17 l 139 944 q 147 964 139 956 q 167 972 156 972 l 690 972 q 710 964 701 972 q 718 944 718 956 q 710 924 718 932 q 690 917 701 917 l 197 917 l 197 529 l 628 529 q 647 521 639 529 q 656 501 656 513 q 647 481 656 489 q 628 474 639 474 l 197 474 l 197 56 l 690 56 m 272 1111 q 242 1136 242 1111 q 272 1164 242 1164 l 633 1164 q 664 1136 664 1164 q 633 1111 664 1111 l 272 1111 m 447 1246 q 418 1256 438 1246 l 283 1321 q 264 1354 264 1332 q 272 1378 264 1368 q 296 1388 281 1388 q 326 1376 313 1388 l 451 1283 q 464 1263 464 1274 q 460 1251 464 1256 q 447 1246 456 1246 z "},"Ę":{"ha":807,"x_min":139,"x_max":738,"o":"m 718 -169 q 732 -175 726 -169 q 738 -189 738 -181 q 709 -237 738 -217 q 638 -257 681 -257 q 552 -221 589 -257 q 515 -129 515 -185 q 586 0 515 -49 l 167 0 q 147 8 156 0 q 139 28 139 17 l 139 944 q 147 964 139 956 q 167 972 156 972 l 690 972 q 710 964 701 972 q 718 944 718 956 q 710 924 718 932 q 690 917 701 917 l 197 917 l 197 529 l 628 529 q 647 521 639 529 q 656 501 656 513 q 647 481 656 489 q 628 474 639 474 l 197 474 l 197 56 l 690 56 q 710 47 701 56 q 718 28 718 39 q 709 8 718 15 q 683 -1 700 0 q 606 -38 643 -4 q 568 -118 568 -72 q 591 -182 568 -158 q 644 -206 614 -206 q 689 -190 682 -206 q 718 -169 700 -169 z "},"Ẽ":{"ha":788,"x_min":139,"x_max":718,"o":"m 690 56 q 710 47 701 56 q 718 28 718 39 q 710 8 718 15 q 690 0 701 0 l 167 0 q 147 8 156 0 q 139 28 139 17 l 139 944 q 147 964 139 956 q 167 972 156 972 l 690 972 q 710 964 701 972 q 718 944 718 956 q 710 924 718 932 q 690 917 701 917 l 197 917 l 197 529 l 628 529 q 647 521 639 529 q 656 501 656 513 q 647 481 656 489 q 628 474 639 474 l 197 474 l 197 56 l 690 56 m 271 1086 q 250 1110 250 1086 q 254 1135 250 1121 q 296 1199 265 1178 q 364 1219 326 1219 q 407 1209 385 1219 q 465 1176 429 1199 q 515 1149 497 1157 q 547 1140 532 1140 q 581 1157 568 1140 q 599 1203 594 1174 q 606 1221 600 1214 q 624 1228 613 1228 q 646 1201 646 1228 q 643 1181 646 1197 q 536 1090 622 1090 q 497 1100 518 1090 q 443 1131 476 1110 q 390 1158 407 1150 q 358 1167 374 1167 q 296 1106 314 1167 q 271 1086 290 1086 z "},"F":{"ha":788,"x_min":139,"x_max":718,"o":"m 690 972 q 710 964 701 972 q 718 944 718 956 q 710 924 718 932 q 690 917 701 917 l 194 917 l 194 533 l 628 533 q 647 525 639 533 q 656 506 656 517 q 647 485 656 493 q 628 478 639 478 l 194 478 l 194 28 q 187 8 194 17 q 167 0 179 0 q 147 8 154 0 q 139 28 139 17 l 139 944 q 147 964 139 956 q 167 972 156 972 l 690 972 z "},"G":{"ha":964,"x_min":69,"x_max":874,"o":"m 846 479 q 866 471 858 479 q 874 451 874 463 l 874 103 q 861 78 874 86 q 722 10 797 35 q 568 -14 646 -14 q 312 51 425 -14 q 134 229 199 115 q 69 486 69 343 q 134 743 69 629 q 312 922 199 857 q 568 986 425 986 q 716 967 646 986 q 842 911 786 949 q 854 888 854 903 q 845 867 854 875 q 828 860 836 860 q 810 865 821 860 q 568 931 693 931 q 340 874 440 931 q 184 715 240 817 q 128 486 128 614 q 184 257 128 358 q 340 99 240 156 q 568 42 440 42 q 698 62 632 42 q 818 115 764 82 l 818 424 l 568 424 q 549 432 557 424 q 540 451 540 440 q 549 472 540 464 q 568 479 557 479 l 846 479 z "},"Ğ":{"ha":964,"x_min":69,"x_max":874,"o":"m 846 479 q 866 471 858 479 q 874 451 874 463 l 874 103 q 861 78 874 86 q 722 10 797 35 q 568 -14 646 -14 q 312 51 425 -14 q 134 229 199 115 q 69 486 69 343 q 134 743 69 629 q 312 922 199 857 q 568 986 425 986 q 716 967 646 986 q 842 911 786 949 q 854 888 854 903 q 845 867 854 875 q 828 860 836 860 q 810 865 821 860 q 568 931 693 931 q 340 874 440 931 q 184 715 240 817 q 128 486 128 614 q 184 257 128 358 q 340 99 240 156 q 568 42 440 42 q 698 62 632 42 q 818 115 764 82 l 818 424 l 568 424 q 549 432 557 424 q 540 451 540 440 q 549 472 540 464 q 568 479 557 479 l 846 479 m 524 1083 q 407 1121 454 1083 q 343 1226 360 1158 q 342 1236 342 1229 q 364 1257 342 1257 q 381 1252 376 1257 q 392 1233 386 1247 q 524 1138 429 1138 q 654 1233 617 1138 q 665 1251 658 1246 q 682 1256 671 1256 q 702 1249 697 1256 q 704 1226 707 1242 q 640 1121 688 1158 q 524 1083 593 1083 z "},"Ǧ":{"ha":964,"x_min":69,"x_max":874,"o":"m 846 479 q 866 471 858 479 q 874 451 874 463 l 874 103 q 861 78 874 86 q 722 10 797 35 q 568 -14 646 -14 q 312 51 425 -14 q 134 229 199 115 q 69 486 69 343 q 134 743 69 629 q 312 922 199 857 q 568 986 425 986 q 716 967 646 986 q 842 911 786 949 q 854 888 854 903 q 845 867 854 875 q 828 860 836 860 q 810 865 821 860 q 568 931 693 931 q 340 874 440 931 q 184 715 240 817 q 128 486 128 614 q 184 257 128 358 q 340 99 240 156 q 568 42 440 42 q 698 62 632 42 q 818 115 764 82 l 818 424 l 568 424 q 549 432 557 424 q 540 451 540 440 q 549 472 540 464 q 568 479 557 479 l 846 479 m 667 1224 q 678 1219 674 1224 q 683 1207 683 1214 q 675 1190 683 1199 l 563 1071 q 529 1054 551 1054 l 515 1054 q 482 1071 493 1054 l 369 1189 q 361 1206 361 1197 q 366 1217 361 1213 q 378 1222 371 1222 q 404 1208 388 1222 l 526 1114 l 640 1210 q 667 1224 657 1224 z "},"Ĝ":{"ha":964,"x_min":69,"x_max":874,"o":"m 846 479 q 866 471 858 479 q 874 451 874 463 l 874 103 q 861 78 874 86 q 722 10 797 35 q 568 -14 646 -14 q 312 51 425 -14 q 134 229 199 115 q 69 486 69 343 q 134 743 69 629 q 312 922 199 857 q 568 986 425 986 q 716 967 646 986 q 842 911 786 949 q 854 888 854 903 q 845 867 854 875 q 828 860 836 860 q 810 865 821 860 q 568 931 693 931 q 340 874 440 931 q 184 715 240 817 q 128 486 128 614 q 184 257 128 358 q 340 99 240 156 q 568 42 440 42 q 698 62 632 42 q 818 115 764 82 l 818 424 l 568 424 q 549 432 557 424 q 540 451 540 440 q 549 472 540 464 q 568 479 557 479 l 846 479 m 675 1101 q 683 1085 683 1093 q 678 1073 683 1078 q 667 1068 674 1068 q 640 1082 657 1068 l 518 1176 l 404 1081 q 378 1067 388 1067 q 366 1072 371 1067 q 361 1083 361 1076 q 369 1100 361 1092 l 482 1219 q 498 1233 492 1229 q 515 1236 504 1236 l 529 1236 q 547 1233 540 1236 q 563 1219 553 1229 l 675 1101 z "},"Ģ":{"ha":964,"x_min":69,"x_max":874,"o":"m 846 479 q 866 471 858 479 q 874 451 874 463 l 874 103 q 861 78 874 86 q 722 10 797 35 q 568 -14 646 -14 q 312 51 425 -14 q 134 229 199 115 q 69 486 69 343 q 134 743 69 629 q 312 922 199 857 q 568 986 425 986 q 716 967 646 986 q 842 911 786 949 q 854 888 854 903 q 845 867 854 875 q 828 860 836 860 q 810 865 821 860 q 568 931 693 931 q 340 874 440 931 q 184 715 240 817 q 128 486 128 614 q 184 257 128 358 q 340 99 240 156 q 568 42 440 42 q 698 62 632 42 q 818 115 764 82 l 818 424 l 568 424 q 549 432 557 424 q 540 451 540 440 q 549 472 540 464 q 568 479 557 479 l 846 479 m 610 -150 q 581 -219 610 -192 q 514 -247 551 -247 q 472 -225 472 -247 q 477 -208 472 -215 q 490 -201 482 -201 q 502 -203 494 -201 q 517 -206 510 -206 q 531 -204 525 -206 q 554 -158 554 -200 q 540 -142 554 -142 q 526 -147 535 -142 q 511 -153 518 -153 q 488 -143 497 -154 q 479 -121 479 -132 q 497 -87 479 -100 q 544 -74 514 -74 q 592 -93 574 -74 q 610 -150 610 -112 z "},"Ġ":{"ha":964,"x_min":69,"x_max":874,"o":"m 846 479 q 866 471 858 479 q 874 451 874 463 l 874 103 q 861 78 874 86 q 722 10 797 35 q 568 -14 646 -14 q 312 51 425 -14 q 134 229 199 115 q 69 486 69 343 q 134 743 69 629 q 312 922 199 857 q 568 986 425 986 q 716 967 646 986 q 842 911 786 949 q 854 888 854 903 q 845 867 854 875 q 828 860 836 860 q 810 865 821 860 q 568 931 693 931 q 340 874 440 931 q 184 715 240 817 q 128 486 128 614 q 184 257 128 358 q 340 99 240 156 q 568 42 440 42 q 698 62 632 42 q 818 115 764 82 l 818 424 l 568 424 q 549 432 557 424 q 540 451 540 440 q 549 472 540 464 q 568 479 557 479 l 846 479 m 524 1083 q 488 1097 501 1083 q 475 1133 475 1111 l 475 1144 q 489 1181 475 1167 q 525 1194 503 1194 q 558 1181 544 1194 q 571 1144 571 1167 l 571 1133 q 558 1097 571 1111 q 524 1083 544 1083 z "},"Ḡ":{"ha":964,"x_min":69,"x_max":874,"o":"m 846 479 q 866 471 858 479 q 874 451 874 463 l 874 103 q 861 78 874 86 q 722 10 797 35 q 568 -14 646 -14 q 312 51 425 -14 q 134 229 199 115 q 69 486 69 343 q 134 743 69 629 q 312 922 199 857 q 568 986 425 986 q 716 967 646 986 q 842 911 786 949 q 854 888 854 903 q 845 867 854 875 q 828 860 836 860 q 810 865 821 860 q 568 931 693 931 q 340 874 440 931 q 184 715 240 817 q 128 486 128 614 q 184 257 128 358 q 340 99 240 156 q 568 42 440 42 q 698 62 632 42 q 818 115 764 82 l 818 424 l 568 424 q 549 432 557 424 q 540 451 540 440 q 549 472 540 464 q 568 479 557 479 l 846 479 m 349 1111 q 318 1136 318 1111 q 349 1164 318 1164 l 710 1164 q 740 1136 740 1164 q 710 1111 740 1111 l 349 1111 z "},"H":{"ha":1000,"x_min":139,"x_max":861,"o":"m 832 972 q 853 964 844 972 q 861 943 861 956 l 861 29 q 851 8 860 17 q 832 0 843 0 q 810 8 818 0 q 803 29 803 17 l 803 472 l 197 472 l 197 29 q 188 8 196 17 q 168 0 179 0 q 147 8 154 0 q 139 29 139 17 l 139 943 q 147 964 139 956 q 168 972 156 972 q 189 964 181 972 q 197 943 197 956 l 197 528 l 803 528 l 803 943 q 811 964 803 956 q 832 972 819 972 z "},"Ħ":{"ha":1168,"x_min":139,"x_max":1029,"o":"m 1001 735 q 1021 726 1013 735 q 1029 707 1029 718 q 1021 687 1029 694 q 1001 679 1013 679 l 944 679 l 944 29 q 935 8 943 17 q 915 0 926 0 q 894 8 901 0 q 886 29 886 17 l 886 472 l 281 472 l 281 29 q 271 8 279 17 q 251 0 263 0 q 230 8 238 0 q 222 29 222 17 l 222 679 l 167 679 q 147 688 156 679 q 139 707 139 696 q 147 727 139 719 q 167 735 156 735 l 222 735 l 222 943 q 231 964 222 956 q 251 972 239 972 q 272 964 264 972 q 281 943 281 956 l 281 735 l 886 735 l 886 943 q 894 964 886 956 q 915 972 903 972 q 936 964 928 972 q 944 943 944 956 l 944 735 l 1001 735 m 886 528 l 886 679 l 281 679 l 281 528 l 886 528 z "},"Ḫ":{"ha":1000,"x_min":139,"x_max":861,"o":"m 832 972 q 853 964 844 972 q 861 943 861 956 l 861 29 q 851 8 860 17 q 832 0 843 0 q 810 8 818 0 q 803 29 803 17 l 803 472 l 197 472 l 197 29 q 188 8 196 17 q 168 0 179 0 q 147 8 154 0 q 139 29 139 17 l 139 943 q 147 964 139 956 q 168 972 156 972 q 189 964 181 972 q 197 943 197 956 l 197 528 l 803 528 l 803 943 q 811 964 803 956 q 832 972 819 972 m 501 -193 q 417 -167 456 -193 q 356 -100 379 -142 q 333 -12 333 -58 q 341 5 333 -3 q 360 13 349 13 q 389 -15 386 13 q 426 -107 394 -74 q 501 -140 458 -140 q 576 -106 544 -140 q 614 -15 607 -72 q 643 13 618 13 q 662 5 654 13 q 669 -12 669 -3 q 647 -100 669 -58 q 585 -167 624 -142 q 501 -193 547 -193 z "},"Ĥ":{"ha":1000,"x_min":139,"x_max":861,"o":"m 832 972 q 853 964 844 972 q 861 943 861 956 l 861 29 q 851 8 860 17 q 832 0 843 0 q 810 8 818 0 q 803 29 803 17 l 803 472 l 197 472 l 197 29 q 188 8 196 17 q 168 0 179 0 q 147 8 154 0 q 139 29 139 17 l 139 943 q 147 964 139 956 q 168 972 156 972 q 189 964 181 972 q 197 943 197 956 l 197 528 l 803 528 l 803 943 q 811 964 803 956 q 832 972 819 972 m 651 1101 q 660 1085 660 1093 q 655 1073 660 1078 q 643 1068 650 1068 q 617 1082 633 1068 l 494 1176 l 381 1081 q 354 1067 364 1067 q 342 1072 347 1067 q 338 1083 338 1076 q 346 1100 338 1092 l 458 1219 q 474 1233 468 1229 q 492 1236 481 1236 l 506 1236 q 523 1233 517 1236 q 539 1219 529 1229 l 651 1101 z "},"Ḥ":{"ha":1000,"x_min":139,"x_max":861,"o":"m 832 972 q 853 964 844 972 q 861 943 861 956 l 861 29 q 851 8 860 17 q 832 0 843 0 q 810 8 818 0 q 803 29 803 17 l 803 472 l 197 472 l 197 29 q 188 8 196 17 q 168 0 179 0 q 147 8 154 0 q 139 29 139 17 l 139 943 q 147 964 139 956 q 168 972 156 972 q 189 964 181 972 q 197 943 197 956 l 197 528 l 803 528 l 803 943 q 811 964 803 956 q 832 972 819 972 m 500 -190 q 465 -176 478 -190 q 451 -140 451 -162 l 451 -129 q 465 -93 451 -107 q 501 -79 479 -79 q 534 -93 521 -79 q 547 -129 547 -107 l 547 -140 q 534 -176 547 -162 q 500 -190 521 -190 z "},"I":{"ha":336,"x_min":139,"x_max":197,"o":"m 197 29 q 188 8 196 17 q 168 0 179 0 q 147 8 154 0 q 139 29 139 17 l 139 943 q 147 964 139 956 q 168 972 156 972 q 189 964 181 972 q 197 943 197 956 l 197 29 z "},"Ĳ":{"ha":838,"x_min":139,"x_max":699,"o":"m 406 -14 q 247 39 317 -14 q 142 179 176 92 q 139 193 139 188 q 147 211 139 204 q 167 218 156 218 q 193 200 185 218 q 276 85 219 129 q 406 42 333 42 q 576 106 513 42 q 640 276 640 169 l 640 944 q 649 964 640 956 q 671 972 657 972 q 691 964 683 972 q 699 944 699 956 l 699 276 q 662 124 699 190 q 558 22 625 58 q 406 -14 492 -14 m 219 349 q 210 328 218 336 q 190 319 201 319 q 169 328 176 319 q 161 349 161 336 l 161 943 q 169 964 161 956 q 190 972 178 972 q 211 964 203 972 q 219 943 219 956 l 219 349 z "},"Í":{"ha":336,"x_min":139,"x_max":357,"o":"m 197 29 q 188 8 196 17 q 168 0 179 0 q 147 8 154 0 q 139 29 139 17 l 139 943 q 147 964 139 956 q 168 972 156 972 q 189 964 181 972 q 197 943 197 956 l 197 29 m 174 1039 q 161 1044 165 1039 q 157 1056 157 1049 q 169 1076 157 1067 l 294 1169 q 325 1181 308 1181 q 349 1171 340 1181 q 357 1147 357 1161 q 338 1114 357 1125 l 203 1049 q 174 1039 183 1039 z "},"Ĭ":{"ha":336,"x_min":-14,"x_max":350,"o":"m 197 29 q 188 8 196 17 q 168 0 179 0 q 147 8 154 0 q 139 29 139 17 l 139 943 q 147 964 139 956 q 168 972 156 972 q 189 964 181 972 q 197 943 197 956 l 197 29 m 168 1083 q 51 1121 99 1083 q -12 1226 4 1158 q -14 1236 -14 1229 q 8 1257 -14 1257 q 26 1252 21 1257 q 36 1233 31 1247 q 168 1138 74 1138 q 299 1233 261 1138 q 309 1251 303 1246 q 326 1256 315 1256 q 347 1249 342 1256 q 349 1226 351 1242 q 285 1121 332 1158 q 168 1083 238 1083 z "},"Ǐ":{"ha":336,"x_min":6,"x_max":328,"o":"m 197 29 q 188 8 196 17 q 168 0 179 0 q 147 8 154 0 q 139 29 139 17 l 139 943 q 147 964 139 956 q 168 972 156 972 q 189 964 181 972 q 197 943 197 956 l 197 29 m 311 1224 q 323 1219 318 1224 q 328 1207 328 1214 q 319 1190 328 1199 l 207 1071 q 174 1054 196 1054 l 160 1054 q 126 1071 138 1054 l 14 1189 q 6 1206 6 1197 q 10 1217 6 1213 q 22 1222 15 1222 q 49 1208 32 1222 l 171 1114 l 285 1210 q 311 1224 301 1224 z "},"Î":{"ha":336,"x_min":6,"x_max":328,"o":"m 197 29 q 188 8 196 17 q 168 0 179 0 q 147 8 154 0 q 139 29 139 17 l 139 943 q 147 964 139 956 q 168 972 156 972 q 189 964 181 972 q 197 943 197 956 l 197 29 m 319 1101 q 328 1085 328 1093 q 323 1073 328 1078 q 311 1068 318 1068 q 285 1082 301 1068 l 163 1176 l 49 1081 q 22 1067 32 1067 q 10 1072 15 1067 q 6 1083 6 1076 q 14 1100 6 1092 l 126 1219 q 142 1233 136 1229 q 160 1236 149 1236 l 174 1236 q 191 1233 185 1236 q 207 1219 197 1229 l 319 1101 z "},"Ȉ":{"ha":336,"x_min":-60,"x_max":356,"o":"m 197 29 q 188 8 196 17 q 168 0 179 0 q 147 8 154 0 q 139 29 139 17 l 139 943 q 147 964 139 956 q 168 972 156 972 q 189 964 181 972 q 197 943 197 956 l 197 29 m 124 1050 q 94 1060 114 1050 l -40 1125 q -60 1158 -60 1136 q -51 1182 -60 1172 q -28 1192 -43 1192 q 3 1181 -11 1192 l 128 1088 q 140 1067 140 1078 q 136 1055 140 1060 q 124 1050 132 1050 m 339 1044 q 310 1054 329 1044 l 175 1119 q 156 1153 156 1131 q 164 1176 156 1167 q 188 1186 172 1186 q 218 1175 204 1186 l 343 1082 q 356 1061 356 1072 q 351 1049 356 1054 q 339 1044 347 1044 z "},"Ï":{"ha":336,"x_min":7,"x_max":329,"o":"m 197 29 q 188 8 196 17 q 168 0 179 0 q 147 8 154 0 q 139 29 139 17 l 139 943 q 147 964 139 956 q 168 972 156 972 q 189 964 181 972 q 197 943 197 956 l 197 29 m 56 1083 q 20 1097 33 1083 q 7 1133 7 1111 l 7 1144 q 21 1181 7 1167 q 57 1194 35 1194 q 90 1181 76 1194 q 103 1144 103 1167 l 103 1133 q 90 1097 103 1111 q 56 1083 76 1083 m 282 1083 q 247 1097 260 1083 q 233 1133 233 1111 l 233 1144 q 247 1181 233 1167 q 283 1194 261 1194 q 316 1181 303 1194 q 329 1144 329 1167 l 329 1133 q 316 1097 329 1111 q 282 1083 303 1083 z "},"Ḯ":{"ha":336,"x_min":7,"x_max":357,"o":"m 197 29 q 188 8 196 17 q 168 0 179 0 q 147 8 154 0 q 139 29 139 17 l 139 943 q 147 964 139 956 q 168 972 156 972 q 189 964 181 972 q 197 943 197 956 l 197 29 m 56 1083 q 20 1097 33 1083 q 7 1133 7 1111 l 7 1144 q 21 1181 7 1167 q 57 1194 35 1194 q 90 1181 76 1194 q 103 1144 103 1167 l 103 1133 q 90 1097 103 1111 q 56 1083 76 1083 m 282 1083 q 247 1097 260 1083 q 233 1133 233 1111 l 233 1144 q 247 1181 233 1167 q 283 1194 261 1194 q 316 1181 303 1194 q 329 1144 329 1167 l 329 1133 q 316 1097 329 1111 q 282 1083 303 1083 m 174 1261 q 161 1266 165 1261 q 157 1278 157 1271 q 169 1299 157 1289 l 294 1392 q 325 1403 308 1403 q 349 1393 340 1403 q 357 1369 357 1383 q 338 1336 357 1347 l 203 1271 q 174 1261 183 1261 z "},"İ":{"ha":336,"x_min":119,"x_max":215,"o":"m 197 29 q 188 8 196 17 q 168 0 179 0 q 147 8 154 0 q 139 29 139 17 l 139 943 q 147 964 139 956 q 168 972 156 972 q 189 964 181 972 q 197 943 197 956 l 197 29 m 168 1083 q 133 1097 146 1083 q 119 1133 119 1111 l 119 1144 q 133 1181 119 1167 q 169 1194 147 1194 q 202 1181 189 1194 q 215 1144 215 1167 l 215 1133 q 202 1097 215 1111 q 168 1083 189 1083 z "},"Ị":{"ha":336,"x_min":119,"x_max":215,"o":"m 197 29 q 188 8 196 17 q 168 0 179 0 q 147 8 154 0 q 139 29 139 17 l 139 943 q 147 964 139 956 q 168 972 156 972 q 189 964 181 972 q 197 943 197 956 l 197 29 m 168 -190 q 133 -176 146 -190 q 119 -140 119 -162 l 119 -129 q 133 -93 119 -107 q 169 -79 147 -79 q 202 -93 189 -79 q 215 -129 215 -107 l 215 -140 q 202 -176 215 -162 q 168 -190 189 -190 z "},"Ì":{"ha":336,"x_min":-15,"x_max":197,"o":"m 197 29 q 188 8 196 17 q 168 0 179 0 q 147 8 154 0 q 139 29 139 17 l 139 943 q 147 964 139 956 q 168 972 156 972 q 189 964 181 972 q 197 943 197 956 l 197 29 m 168 1039 q 139 1049 158 1039 l 4 1114 q -15 1147 -15 1125 q -7 1171 -15 1161 q 17 1181 1 1181 q 47 1169 33 1181 l 172 1076 q 185 1056 185 1067 q 181 1044 185 1049 q 168 1039 176 1039 z "},"Ỉ":{"ha":336,"x_min":61,"x_max":275,"o":"m 197 29 q 188 8 196 17 q 168 0 179 0 q 147 8 154 0 q 139 29 139 17 l 139 943 q 147 964 139 956 q 168 972 156 972 q 189 964 181 972 q 197 943 197 956 l 197 29 m 71 1242 q 172 1286 115 1286 q 249 1256 224 1286 q 275 1190 275 1226 q 263 1149 275 1168 q 222 1103 250 1131 q 210 1071 211 1092 q 202 1056 208 1061 q 186 1051 196 1051 q 169 1058 175 1051 q 164 1074 164 1064 q 183 1129 164 1108 q 203 1149 190 1136 q 221 1172 215 1163 q 226 1192 226 1181 q 211 1223 226 1210 q 175 1236 196 1236 q 110 1210 144 1236 q 85 1199 96 1199 q 67 1207 75 1199 q 61 1222 61 1215 q 71 1242 61 1232 z "},"Ȋ":{"ha":336,"x_min":-3,"x_max":333,"o":"m 197 29 q 188 8 196 17 q 168 0 179 0 q 147 8 154 0 q 139 29 139 17 l 139 943 q 147 964 139 956 q 168 972 156 972 q 189 964 181 972 q 197 943 197 956 l 197 29 m 165 1172 q 249 1153 211 1172 q 310 1101 288 1133 q 333 1033 333 1069 q 326 1016 333 1024 q 307 1008 318 1008 q 278 1036 282 1008 q 240 1097 271 1075 q 165 1119 208 1119 q 90 1097 122 1119 q 53 1036 58 1075 q 24 1008 50 1008 q 5 1016 13 1008 q -3 1033 -3 1024 q 20 1101 -3 1069 q 81 1153 43 1133 q 165 1172 119 1172 z "},"Ī":{"ha":336,"x_min":-37,"x_max":385,"o":"m 197 29 q 188 8 196 17 q 168 0 179 0 q 147 8 154 0 q 139 29 139 17 l 139 943 q 147 964 139 956 q 168 972 156 972 q 189 964 181 972 q 197 943 197 956 l 197 29 m -7 1111 q -37 1136 -37 1111 q -7 1164 -37 1164 l 354 1164 q 385 1136 385 1164 q 354 1111 385 1111 l -7 1111 z "},"Į":{"ha":306,"x_min":21,"x_max":243,"o":"m 224 -169 q 238 -175 232 -169 q 243 -189 243 -181 q 215 -237 243 -217 q 143 -257 186 -257 q 58 -221 94 -257 q 21 -129 21 -185 q 54 -27 21 -69 q 136 32 88 15 l 136 943 q 144 964 136 956 q 165 972 153 972 q 186 964 178 972 q 194 943 194 956 l 194 42 q 189 22 194 28 q 167 8 183 15 q 102 -40 131 -7 q 74 -118 74 -74 q 97 -182 74 -158 q 150 -206 119 -206 q 182 -199 171 -206 q 203 -181 193 -193 q 224 -169 214 -169 z "},"Ĩ":{"ha":336,"x_min":-29,"x_max":367,"o":"m 197 29 q 188 8 196 17 q 168 0 179 0 q 147 8 154 0 q 139 29 139 17 l 139 943 q 147 964 139 956 q 168 972 156 972 q 189 964 181 972 q 197 943 197 956 l 197 29 m -8 1086 q -29 1110 -29 1086 q -25 1135 -29 1121 q 17 1199 -14 1178 q 85 1219 47 1219 q 128 1209 106 1219 q 186 1176 150 1199 q 235 1149 218 1157 q 268 1140 253 1140 q 302 1157 289 1140 q 319 1203 315 1174 q 327 1221 321 1214 q 344 1228 333 1228 q 367 1201 367 1228 q 364 1181 367 1197 q 257 1090 343 1090 q 218 1100 239 1090 q 164 1131 197 1110 q 111 1158 128 1150 q 79 1167 94 1167 q 17 1106 35 1167 q -8 1086 11 1086 z "},"J":{"ha":803,"x_min":104,"x_max":664,"o":"m 371 -14 q 212 39 282 -14 q 107 179 142 92 q 104 193 104 188 q 113 211 104 204 q 132 218 121 218 q 158 200 150 218 q 242 85 185 129 q 371 42 299 42 q 542 106 478 42 q 606 276 606 169 l 606 944 q 614 964 606 956 q 636 972 622 972 q 656 964 649 972 q 664 944 664 956 l 664 276 q 627 124 664 190 q 524 22 590 58 q 371 -14 457 -14 z "},"Ĵ":{"ha":803,"x_min":104,"x_max":796,"o":"m 371 -14 q 212 39 282 -14 q 107 179 142 92 q 104 193 104 188 q 113 211 104 204 q 132 218 121 218 q 158 200 150 218 q 242 85 185 129 q 371 42 299 42 q 542 106 478 42 q 606 276 606 169 l 606 944 q 614 964 606 956 q 636 972 622 972 q 656 964 649 972 q 664 944 664 956 l 664 276 q 627 124 664 190 q 524 22 590 58 q 371 -14 457 -14 m 788 1101 q 796 1085 796 1093 q 791 1073 796 1078 q 779 1068 786 1068 q 753 1082 769 1068 l 631 1176 l 517 1081 q 490 1067 500 1067 q 478 1072 483 1067 q 474 1083 474 1076 q 482 1100 474 1092 l 594 1219 q 610 1233 604 1229 q 628 1236 617 1236 l 642 1236 q 659 1233 653 1236 q 675 1219 665 1229 l 788 1101 z "},"K":{"ha":947,"x_min":139,"x_max":874,"o":"m 867 42 q 874 22 874 32 q 863 0 874 7 q 842 -7 853 -7 q 822 3 831 -7 l 406 518 l 197 325 l 197 29 q 188 8 196 17 q 168 0 179 0 q 147 8 154 0 q 139 29 139 17 l 139 943 q 147 964 139 956 q 168 972 156 972 q 189 964 181 972 q 197 943 197 956 l 197 396 l 797 958 q 817 967 806 967 q 836 958 828 967 q 844 939 844 950 q 836 919 844 928 l 451 561 l 867 42 z "},"Ķ":{"ha":947,"x_min":139,"x_max":874,"o":"m 867 42 q 874 22 874 32 q 863 0 874 7 q 842 -7 853 -7 q 822 3 831 -7 l 406 518 l 197 325 l 197 29 q 188 8 196 17 q 168 0 179 0 q 147 8 154 0 q 139 29 139 17 l 139 943 q 147 964 139 956 q 168 972 156 972 q 189 964 181 972 q 197 943 197 956 l 197 396 l 797 958 q 817 967 806 967 q 836 958 828 967 q 844 939 844 950 q 836 919 844 928 l 451 561 l 867 42 m 488 -150 q 458 -219 488 -192 q 392 -247 429 -247 q 350 -225 350 -247 q 355 -208 350 -215 q 368 -201 360 -201 q 380 -203 372 -201 q 394 -206 388 -206 q 408 -204 403 -206 q 432 -158 432 -200 q 418 -142 432 -142 q 404 -147 413 -142 q 389 -153 396 -153 q 366 -143 375 -154 q 357 -121 357 -132 q 374 -87 357 -100 q 422 -74 392 -74 q 469 -93 451 -74 q 488 -150 488 -112 z "},"L":{"ha":725,"x_min":139,"x_max":704,"o":"m 676 56 q 696 47 688 56 q 704 28 704 39 q 696 8 704 15 q 676 0 688 0 l 167 0 q 147 8 154 0 q 139 28 139 17 l 139 944 q 147 964 139 956 q 168 972 156 972 q 189 964 181 972 q 197 944 197 956 l 197 56 l 676 56 z "},"Ǉ":{"ha":1528,"x_min":139,"x_max":1389,"o":"m 676 56 q 696 47 688 56 q 704 28 704 39 q 696 8 704 15 q 676 0 688 0 l 167 0 q 147 8 154 0 q 139 28 139 17 l 139 944 q 147 964 139 956 q 168 972 156 972 q 189 964 181 972 q 197 944 197 956 l 197 56 l 676 56 m 1096 -14 q 937 39 1007 -14 q 832 179 867 92 q 829 193 829 188 q 838 211 829 204 q 857 218 846 218 q 883 200 875 218 q 967 85 910 129 q 1096 42 1024 42 q 1267 106 1203 42 q 1331 276 1331 169 l 1331 944 q 1339 964 1331 956 q 1361 972 1347 972 q 1381 964 1374 972 q 1389 944 1389 956 l 1389 276 q 1352 124 1389 190 q 1249 22 1315 58 q 1096 -14 1182 -14 z "},"Ĺ":{"ha":725,"x_min":139,"x_max":704,"o":"m 676 56 q 696 47 688 56 q 704 28 704 39 q 696 8 704 15 q 676 0 688 0 l 167 0 q 147 8 154 0 q 139 28 139 17 l 139 944 q 147 964 139 956 q 168 972 156 972 q 189 964 181 972 q 197 944 197 956 l 197 56 l 676 56 m 160 1039 q 147 1044 151 1039 q 143 1056 143 1049 q 156 1076 143 1067 l 281 1169 q 311 1181 294 1181 q 335 1171 326 1181 q 343 1147 343 1161 q 324 1114 343 1125 l 189 1049 q 160 1039 169 1039 z "},"Ľ":{"ha":726,"x_min":139,"x_max":706,"o":"m 706 911 q 687 833 706 869 q 640 774 668 796 q 586 753 611 753 q 569 758 576 753 q 561 775 561 764 q 567 792 561 788 q 587 800 572 796 q 610 808 601 804 q 640 839 629 818 q 650 882 650 860 q 626 915 650 915 q 590 903 606 915 q 579 931 579 917 q 598 963 579 949 q 640 976 617 976 q 688 958 669 976 q 706 911 706 940 m 676 56 q 696 47 688 56 q 704 28 704 39 q 696 8 704 15 q 676 0 688 0 l 167 0 q 147 8 154 0 q 139 28 139 17 l 139 944 q 147 964 139 956 q 167 972 156 972 q 187 964 179 972 q 194 944 194 956 l 194 63 q 201 56 194 56 l 676 56 z "},"Ļ":{"ha":725,"x_min":139,"x_max":704,"o":"m 676 56 q 696 47 688 56 q 704 28 704 39 q 696 8 704 15 q 676 0 688 0 l 167 0 q 147 8 154 0 q 139 28 139 17 l 139 944 q 147 964 139 956 q 168 972 156 972 q 189 964 181 972 q 197 944 197 956 l 197 56 l 676 56 m 468 -150 q 439 -219 468 -192 q 372 -247 410 -247 q 331 -225 331 -247 q 335 -208 331 -215 q 349 -201 340 -201 q 360 -203 353 -201 q 375 -206 368 -206 q 389 -204 383 -206 q 413 -158 413 -200 q 399 -142 413 -142 q 385 -147 393 -142 q 369 -153 376 -153 q 347 -143 356 -154 q 338 -121 338 -132 q 355 -87 338 -100 q 403 -74 372 -74 q 450 -93 432 -74 q 468 -150 468 -112 z "},"Ŀ":{"ha":746,"x_min":139,"x_max":704,"o":"m 676 56 q 696 47 688 56 q 704 28 704 39 q 696 8 704 15 q 676 0 688 0 l 167 0 q 147 8 154 0 q 139 28 139 17 l 139 944 q 147 964 139 956 q 168 972 156 972 q 189 964 181 972 q 197 944 197 956 l 197 56 l 676 56 m 654 354 q 624 367 636 354 q 611 397 611 379 l 611 429 q 624 460 611 449 q 654 472 636 472 l 660 472 q 691 460 679 472 q 703 429 703 449 l 703 397 q 691 367 703 379 q 660 354 679 354 l 654 354 z "},"Ḷ":{"ha":725,"x_min":139,"x_max":704,"o":"m 676 56 q 696 47 688 56 q 704 28 704 39 q 696 8 704 15 q 676 0 688 0 l 167 0 q 147 8 154 0 q 139 28 139 17 l 139 944 q 147 964 139 956 q 168 972 156 972 q 189 964 181 972 q 197 944 197 956 l 197 56 l 676 56 m 397 -190 q 362 -176 375 -190 q 349 -140 349 -162 l 349 -129 q 363 -93 349 -107 q 399 -79 376 -79 q 431 -93 418 -79 q 444 -129 444 -107 l 444 -140 q 431 -176 444 -162 q 397 -190 418 -190 z "},"ǈ":{"ha":1097,"x_min":139,"x_max":933,"o":"m 676 56 q 696 47 688 56 q 704 28 704 39 q 696 8 704 15 q 676 0 688 0 l 167 0 q 147 8 154 0 q 139 28 139 17 l 139 944 q 147 964 139 956 q 168 972 156 972 q 189 964 181 972 q 197 944 197 956 l 197 56 l 676 56 m 724 -275 q 704 -268 711 -275 q 697 -250 697 -261 l 697 -247 q 704 -230 697 -237 q 722 -221 711 -222 q 817 -178 776 -212 q 858 -81 858 -143 l 858 667 q 866 686 858 678 q 886 694 874 694 q 906 686 899 694 q 914 667 914 678 l 914 -81 q 883 -183 914 -139 q 808 -251 853 -228 q 724 -275 764 -275 m 886 811 q 851 824 864 811 q 838 856 838 836 l 838 867 q 851 899 838 886 q 888 911 865 911 q 920 899 907 911 q 933 867 933 886 l 933 856 q 920 824 933 836 q 886 811 907 811 z "},"Ḻ":{"ha":725,"x_min":139,"x_max":704,"o":"m 676 56 q 696 47 688 56 q 704 28 704 39 q 696 8 704 15 q 676 0 688 0 l 167 0 q 147 8 154 0 q 139 28 139 17 l 139 944 q 147 964 139 956 q 168 972 156 972 q 189 964 181 972 q 197 944 197 956 l 197 56 l 676 56 m 265 -162 q 238 -137 238 -162 q 265 -111 238 -111 l 543 -111 q 571 -137 571 -111 q 543 -162 571 -162 l 265 -162 z "},"Ł":{"ha":779,"x_min":69,"x_max":758,"o":"m 731 56 q 750 47 742 56 q 758 28 758 39 q 750 8 758 15 q 731 0 742 0 l 221 0 q 201 8 208 0 q 193 28 193 17 l 193 524 l 108 486 q 94 483 104 483 q 76 490 82 483 q 69 510 69 497 q 86 536 69 528 l 193 583 l 193 944 q 201 964 193 956 q 221 972 210 972 q 241 964 233 972 q 249 944 249 956 l 249 607 l 364 658 q 379 663 372 663 q 398 653 392 663 q 404 635 404 644 q 386 608 404 617 l 249 547 l 249 56 l 731 56 z "},"M":{"ha":1151,"x_min":139,"x_max":1013,"o":"m 988 972 q 1006 963 999 971 q 1013 944 1013 956 l 1013 28 q 1003 8 1013 17 q 983 0 994 0 q 963 8 971 0 q 954 28 954 17 l 954 858 l 596 317 q 576 306 589 306 q 554 317 561 306 l 194 860 l 194 28 q 186 8 194 17 q 167 0 178 0 q 147 8 154 0 q 139 28 139 17 l 139 944 q 147 963 139 954 q 165 972 154 972 q 192 960 183 972 l 576 388 l 961 960 q 988 972 972 975 z "},"Ṃ":{"ha":1151,"x_min":139,"x_max":1013,"o":"m 988 972 q 1006 963 999 971 q 1013 944 1013 956 l 1013 28 q 1003 8 1013 17 q 983 0 994 0 q 963 8 971 0 q 954 28 954 17 l 954 858 l 596 317 q 576 306 589 306 q 554 317 561 306 l 194 860 l 194 28 q 186 8 194 17 q 167 0 178 0 q 147 8 154 0 q 139 28 139 17 l 139 944 q 147 963 139 954 q 165 972 154 972 q 192 960 183 972 l 576 388 l 961 960 q 988 972 972 975 m 576 -190 q 541 -176 554 -190 q 528 -140 528 -162 l 528 -129 q 542 -93 528 -107 q 578 -79 556 -79 q 610 -93 597 -79 q 624 -129 624 -107 l 624 -140 q 610 -176 624 -162 q 576 -190 597 -190 z "},"N":{"ha":1007,"x_min":139,"x_max":868,"o":"m 842 972 q 861 965 854 972 q 868 946 868 957 l 868 31 q 860 8 868 15 q 839 0 851 0 q 817 11 825 0 l 192 865 l 192 24 q 184 7 192 14 q 165 0 176 0 q 146 7 153 0 q 139 24 139 14 l 139 944 q 147 965 139 958 q 164 972 154 972 q 185 963 176 972 l 815 103 l 815 946 q 823 965 815 957 q 842 972 831 972 z "},"Ǌ":{"ha":1810,"x_min":139,"x_max":1671,"o":"m 842 972 q 861 965 854 972 q 868 946 868 957 l 868 31 q 860 8 868 15 q 839 0 851 0 q 817 11 825 0 l 192 865 l 192 24 q 184 7 192 14 q 165 0 176 0 q 146 7 153 0 q 139 24 139 14 l 139 944 q 147 965 139 958 q 164 972 154 972 q 185 963 176 972 l 815 103 l 815 946 q 823 965 815 957 q 842 972 831 972 m 1378 -14 q 1219 39 1289 -14 q 1114 179 1149 92 q 1111 193 1111 188 q 1119 211 1111 204 q 1139 218 1128 218 q 1165 200 1157 218 q 1249 85 1192 129 q 1378 42 1306 42 q 1549 106 1485 42 q 1613 276 1613 169 l 1613 944 q 1621 964 1613 956 q 1643 972 1629 972 q 1663 964 1656 972 q 1671 944 1671 956 l 1671 276 q 1634 124 1671 190 q 1531 22 1597 58 q 1378 -14 1464 -14 z "},"Ń":{"ha":1007,"x_min":139,"x_max":868,"o":"m 842 972 q 861 965 854 972 q 868 946 868 957 l 868 31 q 860 8 868 15 q 839 0 851 0 q 817 11 825 0 l 192 865 l 192 24 q 184 7 192 14 q 165 0 176 0 q 146 7 153 0 q 139 24 139 14 l 139 944 q 147 965 139 958 q 164 972 154 972 q 185 963 176 972 l 815 103 l 815 946 q 823 965 815 957 q 842 972 831 972 m 510 1039 q 497 1044 501 1039 q 493 1056 493 1049 q 506 1076 493 1067 l 631 1169 q 661 1181 644 1181 q 685 1171 676 1181 q 693 1147 693 1161 q 674 1114 693 1125 l 539 1049 q 510 1039 519 1039 z "},"Ň":{"ha":1007,"x_min":139,"x_max":868,"o":"m 842 972 q 861 965 854 972 q 868 946 868 957 l 868 31 q 860 8 868 15 q 839 0 851 0 q 817 11 825 0 l 192 865 l 192 24 q 184 7 192 14 q 165 0 176 0 q 146 7 153 0 q 139 24 139 14 l 139 944 q 147 965 139 958 q 164 972 154 972 q 185 963 176 972 l 815 103 l 815 946 q 823 965 815 957 q 842 972 831 972 m 647 1224 q 659 1219 654 1224 q 664 1207 664 1214 q 656 1190 664 1199 l 543 1071 q 510 1054 532 1054 l 496 1054 q 463 1071 474 1054 l 350 1189 q 342 1206 342 1197 q 347 1217 342 1213 q 358 1222 351 1222 q 385 1208 368 1222 l 507 1114 l 621 1210 q 647 1224 638 1224 z "},"Ņ":{"ha":1007,"x_min":139,"x_max":868,"o":"m 842 972 q 861 965 854 972 q 868 946 868 957 l 868 31 q 860 8 868 15 q 839 0 851 0 q 817 11 825 0 l 192 865 l 192 24 q 184 7 192 14 q 165 0 176 0 q 146 7 153 0 q 139 24 139 14 l 139 944 q 147 965 139 958 q 164 972 154 972 q 185 963 176 972 l 815 103 l 815 946 q 823 965 815 957 q 842 972 831 972 m 575 -150 q 546 -219 575 -192 q 479 -247 517 -247 q 438 -225 438 -247 q 442 -208 438 -215 q 456 -201 447 -201 q 467 -203 460 -201 q 482 -206 475 -206 q 496 -204 490 -206 q 519 -158 519 -200 q 506 -142 519 -142 q 492 -147 500 -142 q 476 -153 483 -153 q 453 -143 463 -154 q 444 -121 444 -132 q 462 -87 444 -100 q 510 -74 479 -74 q 557 -93 539 -74 q 575 -150 575 -112 z "},"Ṅ":{"ha":1007,"x_min":139,"x_max":868,"o":"m 842 972 q 861 965 854 972 q 868 946 868 957 l 868 31 q 860 8 868 15 q 839 0 851 0 q 817 11 825 0 l 192 865 l 192 24 q 184 7 192 14 q 165 0 176 0 q 146 7 153 0 q 139 24 139 14 l 139 944 q 147 965 139 958 q 164 972 154 972 q 185 963 176 972 l 815 103 l 815 946 q 823 965 815 957 q 842 972 831 972 m 504 1083 q 469 1097 482 1083 q 456 1133 456 1111 l 456 1144 q 469 1181 456 1167 q 506 1194 483 1194 q 538 1181 525 1194 q 551 1144 551 1167 l 551 1133 q 538 1097 551 1111 q 504 1083 525 1083 z "},"Ṇ":{"ha":1007,"x_min":139,"x_max":868,"o":"m 842 972 q 861 965 854 972 q 868 946 868 957 l 868 31 q 860 8 868 15 q 839 0 851 0 q 817 11 825 0 l 192 865 l 192 24 q 184 7 192 14 q 165 0 176 0 q 146 7 153 0 q 139 24 139 14 l 139 944 q 147 965 139 958 q 164 972 154 972 q 185 963 176 972 l 815 103 l 815 946 q 823 965 815 957 q 842 972 831 972 m 504 -190 q 469 -176 482 -190 q 456 -140 456 -162 l 456 -129 q 469 -93 456 -107 q 506 -79 483 -79 q 538 -93 525 -79 q 551 -129 551 -107 l 551 -140 q 538 -176 551 -162 q 504 -190 525 -190 z "},"Ŋ":{"ha":1035,"x_min":139,"x_max":896,"o":"m 868 967 q 888 958 881 967 q 896 939 896 950 l 896 -61 q 653 -278 896 -278 q 631 -270 639 -278 q 622 -250 622 -262 q 631 -230 622 -237 q 651 -222 639 -222 q 801 -181 763 -222 q 840 -61 839 -140 l 842 17 l 194 864 l 194 28 q 186 8 194 17 q 167 0 178 0 q 147 8 154 0 q 139 28 139 17 l 139 944 q 147 965 139 957 q 168 972 156 972 q 181 968 175 972 q 190 960 188 964 l 840 110 l 840 939 q 849 958 840 950 q 868 967 857 967 z "},"Ɲ":{"ha":1007,"x_min":-25,"x_max":868,"o":"m 842 972 q 861 965 854 972 q 868 946 868 957 l 868 31 q 860 8 868 15 q 839 0 851 0 q 817 11 825 0 l 192 865 l 192 -81 q 136 -213 192 -164 q 6 -275 81 -262 l 0 -275 q -18 -268 -11 -275 q -25 -250 -25 -261 q -18 -230 -25 -237 q 0 -221 -11 -222 q 97 -178 56 -212 q 139 -81 139 -143 l 139 944 q 147 965 139 958 q 164 972 154 972 q 185 963 176 972 l 815 103 l 815 946 q 823 965 815 957 q 842 972 831 972 z "},"ǋ":{"ha":1379,"x_min":139,"x_max":1215,"o":"m 842 972 q 861 965 854 972 q 868 946 868 957 l 868 31 q 860 8 868 15 q 839 0 851 0 q 817 11 825 0 l 192 865 l 192 24 q 184 7 192 14 q 165 0 176 0 q 146 7 153 0 q 139 24 139 14 l 139 944 q 147 965 139 958 q 164 972 154 972 q 185 963 176 972 l 815 103 l 815 946 q 823 965 815 957 q 842 972 831 972 m 1006 -275 q 986 -268 993 -275 q 979 -250 979 -261 l 979 -247 q 986 -230 979 -237 q 1004 -221 993 -222 q 1099 -178 1058 -212 q 1140 -81 1140 -143 l 1140 667 q 1148 686 1140 678 q 1168 694 1156 694 q 1188 686 1181 694 q 1196 667 1196 678 l 1196 -81 q 1165 -183 1196 -139 q 1090 -251 1135 -228 q 1006 -275 1046 -275 m 1168 811 q 1133 824 1146 811 q 1119 856 1119 836 l 1119 867 q 1133 899 1119 886 q 1169 911 1147 911 q 1202 899 1189 911 q 1215 867 1215 886 l 1215 856 q 1202 824 1215 836 q 1168 811 1189 811 z "},"Ṉ":{"ha":1007,"x_min":139,"x_max":868,"o":"m 842 972 q 861 965 854 972 q 868 946 868 957 l 868 31 q 860 8 868 15 q 839 0 851 0 q 817 11 825 0 l 192 865 l 192 24 q 184 7 192 14 q 165 0 176 0 q 146 7 153 0 q 139 24 139 14 l 139 944 q 147 965 139 958 q 164 972 154 972 q 185 963 176 972 l 815 103 l 815 946 q 823 965 815 957 q 842 972 831 972 m 372 -162 q 344 -137 344 -162 q 372 -111 344 -111 l 650 -111 q 678 -137 678 -111 q 650 -162 678 -162 l 372 -162 z "},"Ñ":{"ha":1007,"x_min":139,"x_max":868,"o":"m 842 972 q 861 965 854 972 q 868 946 868 957 l 868 31 q 860 8 868 15 q 839 0 851 0 q 817 11 825 0 l 192 865 l 192 24 q 184 7 192 14 q 165 0 176 0 q 146 7 153 0 q 139 24 139 14 l 139 944 q 147 965 139 958 q 164 972 154 972 q 185 963 176 972 l 815 103 l 815 946 q 823 965 815 957 q 842 972 831 972 m 328 1086 q 307 1110 307 1086 q 311 1135 307 1121 q 353 1199 322 1178 q 421 1219 383 1219 q 464 1209 442 1219 q 522 1176 486 1199 q 572 1149 554 1157 q 604 1140 589 1140 q 638 1157 625 1140 q 656 1203 651 1174 q 663 1221 657 1214 q 681 1228 669 1228 q 703 1201 703 1228 q 700 1181 703 1197 q 593 1090 679 1090 q 554 1100 575 1090 q 500 1131 533 1110 q 447 1158 464 1150 q 415 1167 431 1167 q 353 1106 371 1167 q 328 1086 347 1086 z "},"O":{"ha":1067,"x_min":69,"x_max":997,"o":"m 997 486 q 938 226 997 340 q 774 49 879 113 q 533 -14 668 -14 q 293 49 399 -14 q 128 226 188 113 q 69 486 69 340 q 128 746 69 632 q 293 923 188 860 q 533 986 399 986 q 774 923 668 986 q 938 746 879 860 q 997 486 997 632 m 939 486 q 888 718 939 617 q 744 875 836 819 q 533 931 651 931 q 323 875 415 931 q 179 718 231 819 q 128 486 128 617 q 179 254 128 356 q 323 97 231 153 q 533 42 415 42 q 744 97 651 42 q 888 254 836 153 q 939 486 939 356 z "},"Ó":{"ha":1067,"x_min":69,"x_max":997,"o":"m 997 486 q 938 226 997 340 q 774 49 879 113 q 533 -14 668 -14 q 293 49 399 -14 q 128 226 188 113 q 69 486 69 340 q 128 746 69 632 q 293 923 188 860 q 533 986 399 986 q 774 923 668 986 q 938 746 879 860 q 997 486 997 632 m 939 486 q 888 718 939 617 q 744 875 836 819 q 533 931 651 931 q 323 875 415 931 q 179 718 231 819 q 128 486 128 617 q 179 254 128 356 q 323 97 231 153 q 533 42 415 42 q 744 97 651 42 q 888 254 836 153 q 939 486 939 356 m 539 1039 q 526 1044 531 1039 q 522 1056 522 1049 q 535 1076 522 1067 l 660 1169 q 690 1181 674 1181 q 714 1171 706 1181 q 722 1147 722 1161 q 703 1114 722 1125 l 568 1049 q 539 1039 549 1039 z "},"Ŏ":{"ha":1067,"x_min":69,"x_max":997,"o":"m 997 486 q 938 226 997 340 q 774 49 879 113 q 533 -14 668 -14 q 293 49 399 -14 q 128 226 188 113 q 69 486 69 340 q 128 746 69 632 q 293 923 188 860 q 533 986 399 986 q 774 923 668 986 q 938 746 879 860 q 997 486 997 632 m 939 486 q 888 718 939 617 q 744 875 836 819 q 533 931 651 931 q 323 875 415 931 q 179 718 231 819 q 128 486 128 617 q 179 254 128 356 q 323 97 231 153 q 533 42 415 42 q 744 97 651 42 q 888 254 836 153 q 939 486 939 356 m 533 1083 q 417 1121 464 1083 q 353 1226 369 1158 q 351 1236 351 1229 q 374 1257 351 1257 q 391 1252 386 1257 q 401 1233 396 1247 q 533 1138 439 1138 q 664 1233 626 1138 q 674 1251 668 1246 q 692 1256 681 1256 q 712 1249 707 1256 q 714 1226 717 1242 q 650 1121 697 1158 q 533 1083 603 1083 z "},"Ǒ":{"ha":1067,"x_min":69,"x_max":997,"o":"m 997 486 q 938 226 997 340 q 774 49 879 113 q 533 -14 668 -14 q 293 49 399 -14 q 128 226 188 113 q 69 486 69 340 q 128 746 69 632 q 293 923 188 860 q 533 986 399 986 q 774 923 668 986 q 938 746 879 860 q 997 486 997 632 m 939 486 q 888 718 939 617 q 744 875 836 819 q 533 931 651 931 q 323 875 415 931 q 179 718 231 819 q 128 486 128 617 q 179 254 128 356 q 323 97 231 153 q 533 42 415 42 q 744 97 651 42 q 888 254 836 153 q 939 486 939 356 m 676 1224 q 688 1219 683 1224 q 693 1207 693 1214 q 685 1190 693 1199 l 572 1071 q 539 1054 561 1054 l 525 1054 q 492 1071 503 1054 l 379 1189 q 371 1206 371 1197 q 376 1217 371 1213 q 388 1222 381 1222 q 414 1208 397 1222 l 536 1114 l 650 1210 q 676 1224 667 1224 z "},"Ô":{"ha":1067,"x_min":69,"x_max":997,"o":"m 997 486 q 938 226 997 340 q 774 49 879 113 q 533 -14 668 -14 q 293 49 399 -14 q 128 226 188 113 q 69 486 69 340 q 128 746 69 632 q 293 923 188 860 q 533 986 399 986 q 774 923 668 986 q 938 746 879 860 q 997 486 997 632 m 939 486 q 888 718 939 617 q 744 875 836 819 q 533 931 651 931 q 323 875 415 931 q 179 718 231 819 q 128 486 128 617 q 179 254 128 356 q 323 97 231 153 q 533 42 415 42 q 744 97 651 42 q 888 254 836 153 q 939 486 939 356 m 685 1101 q 693 1085 693 1093 q 688 1073 693 1078 q 676 1068 683 1068 q 650 1082 667 1068 l 528 1176 l 414 1081 q 388 1067 397 1067 q 376 1072 381 1067 q 371 1083 371 1076 q 379 1100 371 1092 l 492 1219 q 508 1233 501 1229 q 525 1236 514 1236 l 539 1236 q 556 1233 550 1236 q 572 1219 563 1229 l 685 1101 z "},"Ố":{"ha":1067,"x_min":69,"x_max":997,"o":"m 997 486 q 938 226 997 340 q 774 49 879 113 q 533 -14 668 -14 q 293 49 399 -14 q 128 226 188 113 q 69 486 69 340 q 128 746 69 632 q 293 923 188 860 q 533 986 399 986 q 774 923 668 986 q 938 746 879 860 q 997 486 997 632 m 939 486 q 888 718 939 617 q 744 875 836 819 q 533 931 651 931 q 323 875 415 931 q 179 718 231 819 q 128 486 128 617 q 179 254 128 356 q 323 97 231 153 q 533 42 415 42 q 744 97 651 42 q 888 254 836 153 q 939 486 939 356 m 685 1101 q 693 1085 693 1093 q 688 1073 693 1078 q 676 1068 683 1068 q 650 1082 667 1068 l 528 1176 l 414 1081 q 388 1067 397 1067 q 376 1072 381 1067 q 371 1083 371 1076 q 379 1100 371 1092 l 492 1219 q 508 1233 501 1229 q 525 1236 514 1236 l 539 1236 q 556 1233 550 1236 q 572 1219 563 1229 l 685 1101 m 711 1146 q 699 1151 703 1146 q 694 1163 694 1156 q 707 1183 694 1174 l 832 1276 q 863 1288 846 1288 q 886 1278 878 1288 q 894 1254 894 1268 q 875 1221 894 1232 l 740 1156 q 711 1146 721 1146 z "},"Ộ":{"ha":1067,"x_min":69,"x_max":997,"o":"m 997 486 q 938 226 997 340 q 774 49 879 113 q 533 -14 668 -14 q 293 49 399 -14 q 128 226 188 113 q 69 486 69 340 q 128 746 69 632 q 293 923 188 860 q 533 986 399 986 q 774 923 668 986 q 938 746 879 860 q 997 486 997 632 m 939 486 q 888 718 939 617 q 744 875 836 819 q 533 931 651 931 q 323 875 415 931 q 179 718 231 819 q 128 486 128 617 q 179 254 128 356 q 323 97 231 153 q 533 42 415 42 q 744 97 651 42 q 888 254 836 153 q 939 486 939 356 m 533 -190 q 498 -176 511 -190 q 485 -140 485 -162 l 485 -129 q 499 -93 485 -107 q 535 -79 513 -79 q 567 -93 554 -79 q 581 -129 581 -107 l 581 -140 q 567 -176 581 -162 q 533 -190 554 -190 m 685 1101 q 693 1085 693 1093 q 688 1073 693 1078 q 676 1068 683 1068 q 650 1082 667 1068 l 528 1176 l 414 1081 q 388 1067 397 1067 q 376 1072 381 1067 q 371 1083 371 1076 q 379 1100 371 1092 l 492 1219 q 508 1233 501 1229 q 525 1236 514 1236 l 539 1236 q 556 1233 550 1236 q 572 1219 563 1229 l 685 1101 z "},"Ồ":{"ha":1067,"x_min":69,"x_max":997,"o":"m 997 486 q 938 226 997 340 q 774 49 879 113 q 533 -14 668 -14 q 293 49 399 -14 q 128 226 188 113 q 69 486 69 340 q 128 746 69 632 q 293 923 188 860 q 533 986 399 986 q 774 923 668 986 q 938 746 879 860 q 997 486 997 632 m 939 486 q 888 718 939 617 q 744 875 836 819 q 533 931 651 931 q 323 875 415 931 q 179 718 231 819 q 128 486 128 617 q 179 254 128 356 q 323 97 231 153 q 533 42 415 42 q 744 97 651 42 q 888 254 836 153 q 939 486 939 356 m 685 1101 q 693 1085 693 1093 q 688 1073 693 1078 q 676 1068 683 1068 q 650 1082 667 1068 l 528 1176 l 414 1081 q 388 1067 397 1067 q 376 1072 381 1067 q 371 1083 371 1076 q 379 1100 371 1092 l 492 1219 q 508 1233 501 1229 q 525 1236 514 1236 l 539 1236 q 556 1233 550 1236 q 572 1219 563 1229 l 685 1101 m 690 1224 q 661 1233 681 1224 l 526 1299 q 507 1332 507 1310 q 515 1356 507 1346 q 539 1365 524 1365 q 569 1354 556 1365 l 694 1261 q 707 1240 707 1251 q 703 1228 707 1233 q 690 1224 699 1224 z "},"Ổ":{"ha":1067,"x_min":69,"x_max":997,"o":"m 997 486 q 938 226 997 340 q 774 49 879 113 q 533 -14 668 -14 q 293 49 399 -14 q 128 226 188 113 q 69 486 69 340 q 128 746 69 632 q 293 923 188 860 q 533 986 399 986 q 774 923 668 986 q 938 746 879 860 q 997 486 997 632 m 939 486 q 888 718 939 617 q 744 875 836 819 q 533 931 651 931 q 323 875 415 931 q 179 718 231 819 q 128 486 128 617 q 179 254 128 356 q 323 97 231 153 q 533 42 415 42 q 744 97 651 42 q 888 254 836 153 q 939 486 939 356 m 683 1111 q 692 1094 692 1103 q 687 1083 692 1088 q 675 1078 682 1078 q 649 1092 665 1078 l 526 1186 l 413 1090 q 386 1076 396 1076 q 374 1081 379 1076 q 369 1093 369 1086 q 378 1110 369 1101 l 490 1229 q 524 1246 501 1246 l 538 1246 q 571 1229 560 1246 l 683 1111 m 618 1342 q 719 1386 663 1386 q 797 1356 771 1386 q 822 1290 822 1326 q 810 1249 822 1268 q 769 1203 797 1231 q 757 1171 758 1192 q 749 1156 756 1161 q 733 1151 743 1151 q 717 1158 722 1151 q 711 1174 711 1164 q 731 1229 711 1208 q 750 1249 738 1236 q 768 1272 763 1263 q 774 1292 774 1281 q 758 1323 774 1310 q 722 1336 743 1336 q 657 1310 692 1336 q 632 1299 643 1299 q 614 1307 622 1299 q 608 1322 608 1315 q 618 1342 608 1332 z "},"Ỗ":{"ha":1067,"x_min":69,"x_max":997,"o":"m 997 486 q 938 226 997 340 q 774 49 879 113 q 533 -14 668 -14 q 293 49 399 -14 q 128 226 188 113 q 69 486 69 340 q 128 746 69 632 q 293 923 188 860 q 533 986 399 986 q 774 923 668 986 q 938 746 879 860 q 997 486 997 632 m 939 486 q 888 718 939 617 q 744 875 836 819 q 533 931 651 931 q 323 875 415 931 q 179 718 231 819 q 128 486 128 617 q 179 254 128 356 q 323 97 231 153 q 533 42 415 42 q 744 97 651 42 q 888 254 836 153 q 939 486 939 356 m 685 1101 q 693 1085 693 1093 q 688 1073 693 1078 q 676 1068 683 1068 q 650 1082 667 1068 l 528 1176 l 414 1081 q 388 1067 397 1067 q 376 1072 381 1067 q 371 1083 371 1076 q 379 1100 371 1092 l 492 1219 q 508 1233 501 1229 q 525 1236 514 1236 l 539 1236 q 556 1233 550 1236 q 572 1219 563 1229 l 685 1101 m 357 1247 q 336 1271 336 1247 q 340 1296 336 1282 q 382 1360 351 1339 q 450 1381 413 1381 q 493 1370 471 1381 q 551 1338 515 1360 q 601 1310 583 1318 q 633 1301 618 1301 q 667 1318 654 1301 q 685 1364 681 1335 q 692 1382 686 1375 q 710 1389 699 1389 q 732 1363 732 1389 q 729 1342 732 1358 q 622 1251 708 1251 q 583 1261 604 1251 q 529 1292 563 1271 q 476 1319 493 1311 q 444 1328 460 1328 q 382 1267 400 1328 q 357 1247 376 1247 z "},"Ȍ":{"ha":1067,"x_min":69,"x_max":997,"o":"m 997 486 q 938 226 997 340 q 774 49 879 113 q 533 -14 668 -14 q 293 49 399 -14 q 128 226 188 113 q 69 486 69 340 q 128 746 69 632 q 293 923 188 860 q 533 986 399 986 q 774 923 668 986 q 938 746 879 860 q 997 486 997 632 m 939 486 q 888 718 939 617 q 744 875 836 819 q 533 931 651 931 q 323 875 415 931 q 179 718 231 819 q 128 486 128 617 q 179 254 128 356 q 323 97 231 153 q 533 42 415 42 q 744 97 651 42 q 888 254 836 153 q 939 486 939 356 m 489 1050 q 460 1060 479 1050 l 325 1125 q 306 1158 306 1136 q 314 1182 306 1172 q 338 1192 322 1192 q 368 1181 354 1192 l 493 1088 q 506 1067 506 1078 q 501 1055 506 1060 q 489 1050 497 1050 m 704 1044 q 675 1054 694 1044 l 540 1119 q 521 1153 521 1131 q 529 1176 521 1167 q 553 1186 538 1186 q 583 1175 569 1186 l 708 1082 q 721 1061 721 1072 q 717 1049 721 1054 q 704 1044 713 1044 z "},"Ö":{"ha":1067,"x_min":69,"x_max":997,"o":"m 997 486 q 938 226 997 340 q 774 49 879 113 q 533 -14 668 -14 q 293 49 399 -14 q 128 226 188 113 q 69 486 69 340 q 128 746 69 632 q 293 923 188 860 q 533 986 399 986 q 774 923 668 986 q 938 746 879 860 q 997 486 997 632 m 939 486 q 888 718 939 617 q 744 875 836 819 q 533 931 651 931 q 323 875 415 931 q 179 718 231 819 q 128 486 128 617 q 179 254 128 356 q 323 97 231 153 q 533 42 415 42 q 744 97 651 42 q 888 254 836 153 q 939 486 939 356 m 421 1083 q 385 1097 399 1083 q 372 1133 372 1111 l 372 1144 q 386 1181 372 1167 q 422 1194 400 1194 q 455 1181 442 1194 q 468 1144 468 1167 l 468 1133 q 455 1097 468 1111 q 421 1083 442 1083 m 647 1083 q 612 1097 625 1083 q 599 1133 599 1111 l 599 1144 q 613 1181 599 1167 q 649 1194 626 1194 q 681 1181 668 1194 q 694 1144 694 1167 l 694 1133 q 681 1097 694 1111 q 647 1083 668 1083 z "},"Ȫ":{"ha":1067,"x_min":69,"x_max":997,"o":"m 997 486 q 938 226 997 340 q 774 49 879 113 q 533 -14 668 -14 q 293 49 399 -14 q 128 226 188 113 q 69 486 69 340 q 128 746 69 632 q 293 923 188 860 q 533 986 399 986 q 774 923 668 986 q 938 746 879 860 q 997 486 997 632 m 939 486 q 888 718 939 617 q 744 875 836 819 q 533 931 651 931 q 323 875 415 931 q 179 718 231 819 q 128 486 128 617 q 179 254 128 356 q 323 97 231 153 q 533 42 415 42 q 744 97 651 42 q 888 254 836 153 q 939 486 939 356 m 421 1083 q 385 1097 399 1083 q 372 1133 372 1111 l 372 1144 q 386 1181 372 1167 q 422 1194 400 1194 q 455 1181 442 1194 q 468 1144 468 1167 l 468 1133 q 455 1097 468 1111 q 421 1083 442 1083 m 647 1083 q 612 1097 625 1083 q 599 1133 599 1111 l 599 1144 q 613 1181 599 1167 q 649 1194 626 1194 q 681 1181 668 1194 q 694 1144 694 1167 l 694 1133 q 681 1097 694 1111 q 647 1083 668 1083 m 358 1333 q 328 1358 328 1333 q 358 1386 328 1386 l 719 1386 q 750 1358 750 1386 q 719 1333 750 1333 l 358 1333 z "},"Ȱ":{"ha":1067,"x_min":69,"x_max":997,"o":"m 997 486 q 938 226 997 340 q 774 49 879 113 q 533 -14 668 -14 q 293 49 399 -14 q 128 226 188 113 q 69 486 69 340 q 128 746 69 632 q 293 923 188 860 q 533 986 399 986 q 774 923 668 986 q 938 746 879 860 q 997 486 997 632 m 939 486 q 888 718 939 617 q 744 875 836 819 q 533 931 651 931 q 323 875 415 931 q 179 718 231 819 q 128 486 128 617 q 179 254 128 356 q 323 97 231 153 q 533 42 415 42 q 744 97 651 42 q 888 254 836 153 q 939 486 939 356 m 533 1083 q 498 1097 511 1083 q 485 1133 485 1111 l 485 1144 q 499 1181 485 1167 q 535 1194 513 1194 q 567 1181 554 1194 q 581 1144 581 1167 l 581 1133 q 567 1097 581 1111 q 533 1083 554 1083 m 358 1333 q 328 1358 328 1333 q 358 1386 328 1386 l 719 1386 q 750 1358 750 1386 q 719 1333 750 1333 l 358 1333 z "},"Ọ":{"ha":1067,"x_min":69,"x_max":997,"o":"m 997 486 q 938 226 997 340 q 774 49 879 113 q 533 -14 668 -14 q 293 49 399 -14 q 128 226 188 113 q 69 486 69 340 q 128 746 69 632 q 293 923 188 860 q 533 986 399 986 q 774 923 668 986 q 938 746 879 860 q 997 486 997 632 m 939 486 q 888 718 939 617 q 744 875 836 819 q 533 931 651 931 q 323 875 415 931 q 179 718 231 819 q 128 486 128 617 q 179 254 128 356 q 323 97 231 153 q 533 42 415 42 q 744 97 651 42 q 888 254 836 153 q 939 486 939 356 m 533 -190 q 498 -176 511 -190 q 485 -140 485 -162 l 485 -129 q 499 -93 485 -107 q 535 -79 513 -79 q 567 -93 554 -79 q 581 -129 581 -107 l 581 -140 q 567 -176 581 -162 q 533 -190 554 -190 z "},"Ò":{"ha":1067,"x_min":69,"x_max":997,"o":"m 997 486 q 938 226 997 340 q 774 49 879 113 q 533 -14 668 -14 q 293 49 399 -14 q 128 226 188 113 q 69 486 69 340 q 128 746 69 632 q 293 923 188 860 q 533 986 399 986 q 774 923 668 986 q 938 746 879 860 q 997 486 997 632 m 939 486 q 888 718 939 617 q 744 875 836 819 q 533 931 651 931 q 323 875 415 931 q 179 718 231 819 q 128 486 128 617 q 179 254 128 356 q 323 97 231 153 q 533 42 415 42 q 744 97 651 42 q 888 254 836 153 q 939 486 939 356 m 533 1039 q 504 1049 524 1039 l 369 1114 q 350 1147 350 1125 q 358 1171 350 1161 q 382 1181 367 1181 q 413 1169 399 1181 l 538 1076 q 550 1056 550 1067 q 546 1044 550 1049 q 533 1039 542 1039 z "},"Ỏ":{"ha":1067,"x_min":69,"x_max":997,"o":"m 997 486 q 938 226 997 340 q 774 49 879 113 q 533 -14 668 -14 q 293 49 399 -14 q 128 226 188 113 q 69 486 69 340 q 128 746 69 632 q 293 923 188 860 q 533 986 399 986 q 774 923 668 986 q 938 746 879 860 q 997 486 997 632 m 939 486 q 888 718 939 617 q 744 875 836 819 q 533 931 651 931 q 323 875 415 931 q 179 718 231 819 q 128 486 128 617 q 179 254 128 356 q 323 97 231 153 q 533 42 415 42 q 744 97 651 42 q 888 254 836 153 q 939 486 939 356 m 436 1242 q 538 1286 481 1286 q 615 1256 589 1286 q 640 1190 640 1226 q 628 1149 640 1168 q 588 1103 615 1131 q 575 1071 576 1092 q 567 1056 574 1061 q 551 1051 561 1051 q 535 1058 540 1051 q 529 1074 529 1064 q 549 1129 529 1108 q 568 1149 556 1136 q 586 1172 581 1163 q 592 1192 592 1181 q 576 1223 592 1210 q 540 1236 561 1236 q 475 1210 510 1236 q 450 1199 461 1199 q 432 1207 440 1199 q 426 1222 426 1215 q 436 1242 426 1232 z "},"Ơ":{"ha":1067,"x_min":69,"x_max":997,"o":"m 743 939 q 929 762 861 881 q 997 486 997 643 q 938 226 997 340 q 774 49 879 113 q 533 -14 668 -14 q 293 49 399 -14 q 128 226 188 113 q 69 486 69 340 q 128 746 69 632 q 293 923 188 860 q 533 986 399 986 q 651 972 597 986 q 750 999 719 974 q 781 1086 781 1025 q 787 1116 781 1104 q 806 1128 793 1128 q 831 1086 831 1128 q 808 997 831 1035 q 743 939 785 960 m 533 42 q 744 97 651 42 q 888 254 836 153 q 939 486 939 356 q 888 718 939 617 q 744 875 836 819 q 533 931 651 931 q 323 875 415 931 q 179 718 231 819 q 128 486 128 617 q 179 254 128 356 q 323 97 231 153 q 533 42 415 42 z "},"Ớ":{"ha":1067,"x_min":69,"x_max":997,"o":"m 743 939 q 929 762 861 881 q 997 486 997 643 q 938 226 997 340 q 774 49 879 113 q 533 -14 668 -14 q 293 49 399 -14 q 128 226 188 113 q 69 486 69 340 q 128 746 69 632 q 293 923 188 860 q 533 986 399 986 q 651 972 597 986 q 750 999 719 974 q 781 1086 781 1025 q 787 1116 781 1104 q 806 1128 793 1128 q 831 1086 831 1128 q 808 997 831 1035 q 743 939 785 960 m 533 42 q 744 97 651 42 q 888 254 836 153 q 939 486 939 356 q 888 718 939 617 q 744 875 836 819 q 533 931 651 931 q 323 875 415 931 q 179 718 231 819 q 128 486 128 617 q 179 254 128 356 q 323 97 231 153 q 533 42 415 42 m 539 1039 q 526 1044 531 1039 q 522 1056 522 1049 q 535 1076 522 1067 l 660 1169 q 690 1181 674 1181 q 714 1171 706 1181 q 722 1147 722 1161 q 703 1114 722 1125 l 568 1049 q 539 1039 549 1039 z "},"Ợ":{"ha":1067,"x_min":69,"x_max":997,"o":"m 743 939 q 929 762 861 881 q 997 486 997 643 q 938 226 997 340 q 774 49 879 113 q 533 -14 668 -14 q 293 49 399 -14 q 128 226 188 113 q 69 486 69 340 q 128 746 69 632 q 293 923 188 860 q 533 986 399 986 q 651 972 597 986 q 750 999 719 974 q 781 1086 781 1025 q 787 1116 781 1104 q 806 1128 793 1128 q 831 1086 831 1128 q 808 997 831 1035 q 743 939 785 960 m 533 42 q 744 97 651 42 q 888 254 836 153 q 939 486 939 356 q 888 718 939 617 q 744 875 836 819 q 533 931 651 931 q 323 875 415 931 q 179 718 231 819 q 128 486 128 617 q 179 254 128 356 q 323 97 231 153 q 533 42 415 42 m 533 -190 q 498 -176 511 -190 q 485 -140 485 -162 l 485 -129 q 499 -93 485 -107 q 535 -79 513 -79 q 567 -93 554 -79 q 581 -129 581 -107 l 581 -140 q 567 -176 581 -162 q 533 -190 554 -190 z "},"Ờ":{"ha":1067,"x_min":69,"x_max":997,"o":"m 743 939 q 929 762 861 881 q 997 486 997 643 q 938 226 997 340 q 774 49 879 113 q 533 -14 668 -14 q 293 49 399 -14 q 128 226 188 113 q 69 486 69 340 q 128 746 69 632 q 293 923 188 860 q 533 986 399 986 q 651 972 597 986 q 750 999 719 974 q 781 1086 781 1025 q 787 1116 781 1104 q 806 1128 793 1128 q 831 1086 831 1128 q 808 997 831 1035 q 743 939 785 960 m 533 42 q 744 97 651 42 q 888 254 836 153 q 939 486 939 356 q 888 718 939 617 q 744 875 836 819 q 533 931 651 931 q 323 875 415 931 q 179 718 231 819 q 128 486 128 617 q 179 254 128 356 q 323 97 231 153 q 533 42 415 42 m 533 1039 q 504 1049 524 1039 l 369 1114 q 350 1147 350 1125 q 358 1171 350 1161 q 382 1181 367 1181 q 413 1169 399 1181 l 538 1076 q 550 1056 550 1067 q 546 1044 550 1049 q 533 1039 542 1039 z "},"Ở":{"ha":1067,"x_min":69,"x_max":997,"o":"m 743 939 q 929 762 861 881 q 997 486 997 643 q 938 226 997 340 q 774 49 879 113 q 533 -14 668 -14 q 293 49 399 -14 q 128 226 188 113 q 69 486 69 340 q 128 746 69 632 q 293 923 188 860 q 533 986 399 986 q 651 972 597 986 q 750 999 719 974 q 781 1086 781 1025 q 787 1116 781 1104 q 806 1128 793 1128 q 831 1086 831 1128 q 808 997 831 1035 q 743 939 785 960 m 533 42 q 744 97 651 42 q 888 254 836 153 q 939 486 939 356 q 888 718 939 617 q 744 875 836 819 q 533 931 651 931 q 323 875 415 931 q 179 718 231 819 q 128 486 128 617 q 179 254 128 356 q 323 97 231 153 q 533 42 415 42 m 436 1242 q 538 1286 481 1286 q 615 1256 589 1286 q 640 1190 640 1226 q 628 1149 640 1168 q 588 1103 615 1131 q 575 1071 576 1092 q 567 1056 574 1061 q 551 1051 561 1051 q 535 1058 540 1051 q 529 1074 529 1064 q 549 1129 529 1108 q 568 1149 556 1136 q 586 1172 581 1163 q 592 1192 592 1181 q 576 1223 592 1210 q 540 1236 561 1236 q 475 1210 510 1236 q 450 1199 461 1199 q 432 1207 440 1199 q 426 1222 426 1215 q 436 1242 426 1232 z "},"Ỡ":{"ha":1067,"x_min":69,"x_max":997,"o":"m 743 939 q 929 762 861 881 q 997 486 997 643 q 938 226 997 340 q 774 49 879 113 q 533 -14 668 -14 q 293 49 399 -14 q 128 226 188 113 q 69 486 69 340 q 128 746 69 632 q 293 923 188 860 q 533 986 399 986 q 651 972 597 986 q 750 999 719 974 q 781 1086 781 1025 q 787 1116 781 1104 q 806 1128 793 1128 q 831 1086 831 1128 q 808 997 831 1035 q 743 939 785 960 m 533 42 q 744 97 651 42 q 888 254 836 153 q 939 486 939 356 q 888 718 939 617 q 744 875 836 819 q 533 931 651 931 q 323 875 415 931 q 179 718 231 819 q 128 486 128 617 q 179 254 128 356 q 323 97 231 153 q 533 42 415 42 m 357 1086 q 336 1110 336 1086 q 340 1135 336 1121 q 382 1199 351 1178 q 450 1219 413 1219 q 493 1209 471 1219 q 551 1176 515 1199 q 601 1149 583 1157 q 633 1140 618 1140 q 667 1157 654 1140 q 685 1203 681 1174 q 692 1221 686 1214 q 710 1228 699 1228 q 732 1201 732 1228 q 729 1181 732 1197 q 622 1090 708 1090 q 583 1100 604 1090 q 529 1131 563 1110 q 476 1158 493 1150 q 444 1167 460 1167 q 382 1106 400 1167 q 357 1086 376 1086 z "},"Ő":{"ha":1067,"x_min":69,"x_max":997,"o":"m 997 486 q 938 226 997 340 q 774 49 879 113 q 533 -14 668 -14 q 293 49 399 -14 q 128 226 188 113 q 69 486 69 340 q 128 746 69 632 q 293 923 188 860 q 533 986 399 986 q 774 923 668 986 q 938 746 879 860 q 997 486 997 632 m 939 486 q 888 718 939 617 q 744 875 836 819 q 533 931 651 931 q 323 875 415 931 q 179 718 231 819 q 128 486 128 617 q 179 254 128 356 q 323 97 231 153 q 533 42 415 42 q 744 97 651 42 q 888 254 836 153 q 939 486 939 356 m 392 1018 q 381 1023 385 1018 q 376 1035 376 1028 q 383 1053 376 1042 l 469 1182 q 506 1204 482 1204 q 531 1195 521 1204 q 542 1169 542 1186 q 532 1146 542 1158 l 428 1039 q 392 1018 407 1018 m 597 1018 q 586 1023 590 1018 q 582 1035 582 1028 q 589 1053 582 1042 l 675 1182 q 711 1204 688 1204 q 737 1195 726 1204 q 747 1169 747 1186 q 738 1146 747 1158 l 633 1039 q 597 1018 613 1018 z "},"Ȏ":{"ha":1067,"x_min":69,"x_max":997,"o":"m 997 486 q 938 226 997 340 q 774 49 879 113 q 533 -14 668 -14 q 293 49 399 -14 q 128 226 188 113 q 69 486 69 340 q 128 746 69 632 q 293 923 188 860 q 533 986 399 986 q 774 923 668 986 q 938 746 879 860 q 997 486 997 632 m 939 486 q 888 718 939 617 q 744 875 836 819 q 533 931 651 931 q 323 875 415 931 q 179 718 231 819 q 128 486 128 617 q 179 254 128 356 q 323 97 231 153 q 533 42 415 42 q 744 97 651 42 q 888 254 836 153 q 939 486 939 356 m 531 1172 q 615 1153 576 1172 q 676 1101 653 1133 q 699 1033 699 1069 q 691 1016 699 1024 q 672 1008 683 1008 q 643 1036 647 1008 q 605 1097 636 1075 q 531 1119 574 1119 q 456 1097 488 1119 q 418 1036 424 1075 q 389 1008 415 1008 q 370 1016 378 1008 q 363 1033 363 1024 q 385 1101 363 1069 q 447 1153 408 1133 q 531 1172 485 1172 z "},"Ō":{"ha":1067,"x_min":69,"x_max":997,"o":"m 997 486 q 938 226 997 340 q 774 49 879 113 q 533 -14 668 -14 q 293 49 399 -14 q 128 226 188 113 q 69 486 69 340 q 128 746 69 632 q 293 923 188 860 q 533 986 399 986 q 774 923 668 986 q 938 746 879 860 q 997 486 997 632 m 939 486 q 888 718 939 617 q 744 875 836 819 q 533 931 651 931 q 323 875 415 931 q 179 718 231 819 q 128 486 128 617 q 179 254 128 356 q 323 97 231 153 q 533 42 415 42 q 744 97 651 42 q 888 254 836 153 q 939 486 939 356 m 358 1111 q 328 1136 328 1111 q 358 1164 328 1164 l 719 1164 q 750 1136 750 1164 q 719 1111 750 1111 l 358 1111 z "},"Ṓ":{"ha":1067,"x_min":69,"x_max":997,"o":"m 997 486 q 938 226 997 340 q 774 49 879 113 q 533 -14 668 -14 q 293 49 399 -14 q 128 226 188 113 q 69 486 69 340 q 128 746 69 632 q 293 923 188 860 q 533 986 399 986 q 774 923 668 986 q 938 746 879 860 q 997 486 997 632 m 939 486 q 888 718 939 617 q 744 875 836 819 q 533 931 651 931 q 323 875 415 931 q 179 718 231 819 q 128 486 128 617 q 179 254 128 356 q 323 97 231 153 q 533 42 415 42 q 744 97 651 42 q 888 254 836 153 q 939 486 939 356 m 358 1111 q 328 1136 328 1111 q 358 1164 328 1164 l 719 1164 q 750 1136 750 1164 q 719 1111 750 1111 l 358 1111 m 539 1246 q 526 1251 531 1246 q 522 1263 522 1256 q 535 1283 522 1274 l 660 1376 q 690 1388 674 1388 q 714 1378 706 1388 q 722 1354 722 1368 q 703 1321 722 1332 l 568 1256 q 539 1246 549 1246 z "},"Ṑ":{"ha":1067,"x_min":69,"x_max":997,"o":"m 997 486 q 938 226 997 340 q 774 49 879 113 q 533 -14 668 -14 q 293 49 399 -14 q 128 226 188 113 q 69 486 69 340 q 128 746 69 632 q 293 923 188 860 q 533 986 399 986 q 774 923 668 986 q 938 746 879 860 q 997 486 997 632 m 939 486 q 888 718 939 617 q 744 875 836 819 q 533 931 651 931 q 323 875 415 931 q 179 718 231 819 q 128 486 128 617 q 179 254 128 356 q 323 97 231 153 q 533 42 415 42 q 744 97 651 42 q 888 254 836 153 q 939 486 939 356 m 358 1111 q 328 1136 328 1111 q 358 1164 328 1164 l 719 1164 q 750 1136 750 1164 q 719 1111 750 1111 l 358 1111 m 533 1246 q 504 1256 524 1246 l 369 1321 q 350 1354 350 1332 q 358 1378 350 1368 q 382 1388 367 1388 q 413 1376 399 1388 l 538 1283 q 550 1263 550 1274 q 546 1251 550 1256 q 533 1246 542 1246 z "},"Ǫ":{"ha":1067,"x_min":69,"x_max":997,"o":"m 607 -8 q 550 -53 574 -24 q 526 -118 526 -83 q 549 -182 526 -158 q 603 -206 572 -206 q 628 -204 619 -206 q 640 -196 636 -203 q 659 -176 651 -182 q 676 -169 667 -169 q 690 -175 685 -169 q 696 -189 696 -181 q 667 -237 696 -217 q 596 -257 639 -257 q 510 -221 547 -257 q 474 -129 474 -185 q 526 -14 474 -60 q 290 51 393 -12 q 128 228 186 115 q 69 486 69 342 q 128 746 69 632 q 293 923 188 860 q 533 986 399 986 q 774 923 668 986 q 938 746 879 860 q 997 486 997 632 q 948 248 997 354 q 810 75 899 142 q 607 -8 722 8 m 128 486 q 179 254 128 356 q 323 97 231 153 q 533 42 415 42 q 744 97 651 42 q 888 254 836 153 q 939 486 939 356 q 888 718 939 617 q 744 875 836 819 q 533 931 651 931 q 323 875 415 931 q 179 718 231 819 q 128 486 128 617 z "},"Ø":{"ha":1001,"x_min":68,"x_max":997,"o":"m 851 864 q 959 699 921 796 q 997 486 997 603 q 938 226 997 340 q 774 49 879 113 q 533 -14 668 -14 q 360 17 440 -14 q 219 106 281 47 l 126 -6 q 111 -22 118 -17 q 92 -28 104 -28 q 75 -21 82 -28 q 68 -4 68 -14 q 75 14 68 4 l 183 144 q 99 297 128 210 q 69 486 69 385 q 128 746 69 632 q 293 923 188 860 q 533 986 399 986 q 811 897 692 986 l 881 982 q 894 994 889 992 q 911 997 900 997 q 927 991 919 997 q 935 975 935 985 q 926 954 935 964 l 851 864 m 128 486 q 221 189 128 308 l 774 854 q 533 931 671 931 q 323 875 415 931 q 179 718 231 819 q 128 486 128 617 m 533 42 q 744 97 651 42 q 888 254 836 153 q 939 486 939 356 q 906 675 939 589 q 814 819 874 761 l 256 150 q 381 69 310 97 q 533 42 451 42 z "},"Ǿ":{"ha":1001,"x_min":68,"x_max":997,"o":"m 851 864 q 959 699 921 796 q 997 486 997 603 q 938 226 997 340 q 774 49 879 113 q 533 -14 668 -14 q 360 17 440 -14 q 219 106 281 47 l 126 -6 q 111 -22 118 -17 q 92 -28 104 -28 q 75 -21 82 -28 q 68 -4 68 -14 q 75 14 68 4 l 183 144 q 99 297 128 210 q 69 486 69 385 q 128 746 69 632 q 293 923 188 860 q 533 986 399 986 q 811 897 692 986 l 881 982 q 894 994 889 992 q 911 997 900 997 q 927 991 919 997 q 935 975 935 985 q 926 954 935 964 l 851 864 m 128 486 q 221 189 128 308 l 774 854 q 533 931 671 931 q 323 875 415 931 q 179 718 231 819 q 128 486 128 617 m 533 42 q 744 97 651 42 q 888 254 836 153 q 939 486 939 356 q 906 675 939 589 q 814 819 874 761 l 256 150 q 381 69 310 97 q 533 42 451 42 m 507 1039 q 494 1044 499 1039 q 490 1056 490 1049 q 503 1076 490 1067 l 628 1169 q 658 1181 642 1181 q 682 1171 674 1181 q 690 1147 690 1161 q 671 1114 690 1125 l 536 1049 q 507 1039 517 1039 z "},"Õ":{"ha":1067,"x_min":69,"x_max":997,"o":"m 997 486 q 938 226 997 340 q 774 49 879 113 q 533 -14 668 -14 q 293 49 399 -14 q 128 226 188 113 q 69 486 69 340 q 128 746 69 632 q 293 923 188 860 q 533 986 399 986 q 774 923 668 986 q 938 746 879 860 q 997 486 997 632 m 939 486 q 888 718 939 617 q 744 875 836 819 q 533 931 651 931 q 323 875 415 931 q 179 718 231 819 q 128 486 128 617 q 179 254 128 356 q 323 97 231 153 q 533 42 415 42 q 744 97 651 42 q 888 254 836 153 q 939 486 939 356 m 357 1086 q 336 1110 336 1086 q 340 1135 336 1121 q 382 1199 351 1178 q 450 1219 413 1219 q 493 1209 471 1219 q 551 1176 515 1199 q 601 1149 583 1157 q 633 1140 618 1140 q 667 1157 654 1140 q 685 1203 681 1174 q 692 1221 686 1214 q 710 1228 699 1228 q 732 1201 732 1228 q 729 1181 732 1197 q 622 1090 708 1090 q 583 1100 604 1090 q 529 1131 563 1110 q 476 1158 493 1150 q 444 1167 460 1167 q 382 1106 400 1167 q 357 1086 376 1086 z "},"Ṍ":{"ha":1067,"x_min":69,"x_max":997,"o":"m 997 486 q 938 226 997 340 q 774 49 879 113 q 533 -14 668 -14 q 293 49 399 -14 q 128 226 188 113 q 69 486 69 340 q 128 746 69 632 q 293 923 188 860 q 533 986 399 986 q 774 923 668 986 q 938 746 879 860 q 997 486 997 632 m 939 486 q 888 718 939 617 q 744 875 836 819 q 533 931 651 931 q 323 875 415 931 q 179 718 231 819 q 128 486 128 617 q 179 254 128 356 q 323 97 231 153 q 533 42 415 42 q 744 97 651 42 q 888 254 836 153 q 939 486 939 356 m 357 1086 q 336 1110 336 1086 q 340 1135 336 1121 q 382 1199 351 1178 q 450 1219 413 1219 q 493 1209 471 1219 q 551 1176 515 1199 q 601 1149 583 1157 q 633 1140 618 1140 q 667 1157 654 1140 q 685 1203 681 1174 q 692 1221 686 1214 q 710 1228 699 1228 q 732 1201 732 1228 q 729 1181 732 1197 q 622 1090 708 1090 q 583 1100 604 1090 q 529 1131 563 1110 q 476 1158 493 1150 q 444 1167 460 1167 q 382 1106 400 1167 q 357 1086 376 1086 m 539 1294 q 526 1299 531 1294 q 522 1311 522 1304 q 535 1332 522 1322 l 660 1425 q 690 1436 674 1436 q 714 1426 706 1436 q 722 1403 722 1417 q 703 1369 722 1381 l 568 1304 q 539 1294 549 1294 z "},"Ṏ":{"ha":1067,"x_min":69,"x_max":997,"o":"m 997 486 q 938 226 997 340 q 774 49 879 113 q 533 -14 668 -14 q 293 49 399 -14 q 128 226 188 113 q 69 486 69 340 q 128 746 69 632 q 293 923 188 860 q 533 986 399 986 q 774 923 668 986 q 938 746 879 860 q 997 486 997 632 m 939 486 q 888 718 939 617 q 744 875 836 819 q 533 931 651 931 q 323 875 415 931 q 179 718 231 819 q 128 486 128 617 q 179 254 128 356 q 323 97 231 153 q 533 42 415 42 q 744 97 651 42 q 888 254 836 153 q 939 486 939 356 m 357 1086 q 336 1110 336 1086 q 340 1135 336 1121 q 382 1199 351 1178 q 450 1219 413 1219 q 493 1209 471 1219 q 551 1176 515 1199 q 601 1149 583 1157 q 633 1140 618 1140 q 667 1157 654 1140 q 685 1203 681 1174 q 692 1221 686 1214 q 710 1228 699 1228 q 732 1201 732 1228 q 729 1181 732 1197 q 622 1090 708 1090 q 583 1100 604 1090 q 529 1131 563 1110 q 476 1158 493 1150 q 444 1167 460 1167 q 382 1106 400 1167 q 357 1086 376 1086 m 421 1339 q 385 1353 399 1339 q 372 1389 372 1367 l 372 1400 q 386 1436 372 1422 q 422 1450 400 1450 q 455 1436 442 1450 q 468 1400 468 1422 l 468 1389 q 455 1353 468 1367 q 421 1339 442 1339 m 647 1339 q 612 1353 625 1339 q 599 1389 599 1367 l 599 1400 q 613 1436 599 1422 q 649 1450 626 1450 q 681 1436 668 1450 q 694 1400 694 1422 l 694 1389 q 681 1353 694 1367 q 647 1339 668 1339 z "},"Ȭ":{"ha":1067,"x_min":69,"x_max":997,"o":"m 997 486 q 938 226 997 340 q 774 49 879 113 q 533 -14 668 -14 q 293 49 399 -14 q 128 226 188 113 q 69 486 69 340 q 128 746 69 632 q 293 923 188 860 q 533 986 399 986 q 774 923 668 986 q 938 746 879 860 q 997 486 997 632 m 939 486 q 888 718 939 617 q 744 875 836 819 q 533 931 651 931 q 323 875 415 931 q 179 718 231 819 q 128 486 128 617 q 179 254 128 356 q 323 97 231 153 q 533 42 415 42 q 744 97 651 42 q 888 254 836 153 q 939 486 939 356 m 357 1086 q 336 1110 336 1086 q 340 1135 336 1121 q 382 1199 351 1178 q 450 1219 413 1219 q 493 1209 471 1219 q 551 1176 515 1199 q 601 1149 583 1157 q 633 1140 618 1140 q 667 1157 654 1140 q 685 1203 681 1174 q 692 1221 686 1214 q 710 1228 699 1228 q 732 1201 732 1228 q 729 1181 732 1197 q 622 1090 708 1090 q 583 1100 604 1090 q 529 1131 563 1110 q 476 1158 493 1150 q 444 1167 460 1167 q 382 1106 400 1167 q 357 1086 376 1086 m 358 1367 q 328 1392 328 1367 q 358 1419 328 1419 l 719 1419 q 750 1392 750 1419 q 719 1367 750 1367 l 358 1367 z "},"Œ":{"ha":1386,"x_min":69,"x_max":1317,"o":"m 1289 56 q 1308 47 1300 56 q 1317 28 1317 39 q 1308 8 1317 15 q 1289 0 1300 0 l 472 0 q 247 65 338 0 q 113 239 157 129 q 69 486 69 349 q 113 728 69 618 q 248 906 157 839 q 472 972 339 972 l 1289 972 q 1308 964 1300 972 q 1317 944 1317 956 q 1308 924 1317 932 q 1289 917 1300 917 l 807 917 l 807 536 l 1226 536 q 1246 528 1238 536 q 1254 508 1254 519 q 1246 488 1254 496 q 1226 481 1238 481 l 807 481 l 807 56 l 1289 56 m 125 486 q 215 175 125 294 q 486 56 304 56 l 750 56 l 750 917 l 486 917 q 283 858 364 917 q 164 702 203 800 q 125 486 125 604 z "},"P":{"ha":825,"x_min":139,"x_max":763,"o":"m 500 972 q 690 899 618 972 q 763 707 763 825 q 730 566 763 629 q 638 467 697 503 q 500 432 578 432 l 197 432 l 197 28 q 188 8 197 17 q 168 0 179 0 q 147 8 156 0 q 139 28 139 17 l 139 944 q 147 964 139 956 q 167 972 156 972 l 500 972 m 500 488 q 649 549 593 488 q 704 707 704 611 q 649 860 704 803 q 500 917 594 917 l 197 917 l 197 488 l 500 488 z "},"Þ":{"ha":810,"x_min":139,"x_max":747,"o":"m 485 815 q 675 742 603 815 q 747 550 747 668 q 715 409 747 472 q 622 310 682 346 q 485 275 563 275 l 194 275 l 194 28 q 186 8 194 17 q 167 0 178 0 q 147 8 154 0 q 139 28 139 17 l 139 1000 q 147 1019 139 1011 q 167 1028 156 1028 q 187 1019 179 1028 q 194 1000 194 1011 l 194 815 l 485 815 m 485 331 q 633 392 578 331 q 689 550 689 454 q 634 703 689 646 q 485 760 579 760 l 194 760 l 194 331 l 485 331 z "},"Q":{"ha":1086,"x_min":69,"x_max":1107,"o":"m 1083 -90 q 1101 -97 1094 -90 q 1107 -114 1107 -103 q 1068 -167 1107 -140 q 972 -212 1029 -194 q 863 -229 914 -229 q 733 -212 786 -229 q 613 -162 681 -196 q 514 -119 556 -133 q 418 -106 472 -106 q 383 -110 399 -106 q 344 -125 367 -115 q 311 -136 319 -136 q 292 -128 300 -136 q 283 -107 283 -119 q 299 -83 283 -90 l 501 -12 q 277 60 375 -6 q 124 235 179 125 q 69 486 69 346 q 128 746 69 632 q 293 923 188 860 q 533 986 399 986 q 774 923 668 986 q 938 746 879 860 q 997 486 997 632 q 953 260 997 361 q 830 90 910 158 q 646 -1 750 22 l 475 -57 q 555 -75 518 -61 q 643 -114 592 -89 q 756 -161 710 -146 q 863 -176 801 -176 q 951 -163 914 -176 q 1022 -131 988 -150 q 1049 -110 1033 -125 q 1066 -96 1057 -101 q 1083 -90 1075 -90 m 128 486 q 179 254 128 356 q 323 97 231 153 q 533 42 415 42 q 744 97 651 42 q 888 254 836 153 q 939 486 939 356 q 888 718 939 617 q 744 875 836 819 q 533 931 651 931 q 323 875 415 931 q 179 718 231 819 q 128 486 128 617 z "},"R":{"ha":922,"x_min":139,"x_max":846,"o":"m 831 54 q 846 29 846 44 q 838 9 846 17 q 819 1 831 1 q 807 4 811 1 q 747 74 769 25 q 725 236 725 124 q 664 392 725 350 q 522 435 603 435 l 197 435 l 197 28 q 189 8 197 17 q 168 0 181 0 q 147 8 156 0 q 139 28 139 17 l 139 944 q 147 964 139 956 q 167 972 156 972 l 533 972 q 676 940 614 972 q 774 850 739 907 q 808 721 808 793 q 759 561 808 628 q 631 471 710 494 q 740 388 697 450 q 783 236 783 326 q 795 106 783 143 q 831 54 807 69 m 540 490 q 689 560 628 499 q 750 719 750 621 q 689 861 750 806 q 526 917 628 917 l 197 917 l 197 490 l 540 490 z "},"Ŕ":{"ha":922,"x_min":139,"x_max":846,"o":"m 831 54 q 846 29 846 44 q 838 9 846 17 q 819 1 831 1 q 807 4 811 1 q 747 74 769 25 q 725 236 725 124 q 664 392 725 350 q 522 435 603 435 l 197 435 l 197 28 q 189 8 197 17 q 168 0 181 0 q 147 8 156 0 q 139 28 139 17 l 139 944 q 147 964 139 956 q 167 972 156 972 l 533 972 q 676 940 614 972 q 774 850 739 907 q 808 721 808 793 q 759 561 808 628 q 631 471 710 494 q 740 388 697 450 q 783 236 783 326 q 795 106 783 143 q 831 54 807 69 m 540 490 q 689 560 628 499 q 750 719 750 621 q 689 861 750 806 q 526 917 628 917 l 197 917 l 197 490 l 540 490 m 460 1039 q 447 1044 451 1039 q 443 1056 443 1049 q 456 1076 443 1067 l 581 1169 q 611 1181 594 1181 q 635 1171 626 1181 q 643 1147 643 1161 q 624 1114 643 1125 l 489 1049 q 460 1039 469 1039 z "},"Ř":{"ha":922,"x_min":139,"x_max":846,"o":"m 831 54 q 846 29 846 44 q 838 9 846 17 q 819 1 831 1 q 807 4 811 1 q 747 74 769 25 q 725 236 725 124 q 664 392 725 350 q 522 435 603 435 l 197 435 l 197 28 q 189 8 197 17 q 168 0 181 0 q 147 8 156 0 q 139 28 139 17 l 139 944 q 147 964 139 956 q 167 972 156 972 l 533 972 q 676 940 614 972 q 774 850 739 907 q 808 721 808 793 q 759 561 808 628 q 631 471 710 494 q 740 388 697 450 q 783 236 783 326 q 795 106 783 143 q 831 54 807 69 m 540 490 q 689 560 628 499 q 750 719 750 621 q 689 861 750 806 q 526 917 628 917 l 197 917 l 197 490 l 540 490 m 597 1224 q 609 1219 604 1224 q 614 1207 614 1214 q 606 1190 614 1199 l 493 1071 q 460 1054 482 1054 l 446 1054 q 413 1071 424 1054 l 300 1189 q 292 1206 292 1197 q 297 1217 292 1213 q 308 1222 301 1222 q 335 1208 318 1222 l 457 1114 l 571 1210 q 597 1224 588 1224 z "},"Ŗ":{"ha":922,"x_min":139,"x_max":846,"o":"m 831 54 q 846 29 846 44 q 838 9 846 17 q 819 1 831 1 q 807 4 811 1 q 747 74 769 25 q 725 236 725 124 q 664 392 725 350 q 522 435 603 435 l 197 435 l 197 28 q 189 8 197 17 q 168 0 181 0 q 147 8 156 0 q 139 28 139 17 l 139 944 q 147 964 139 956 q 167 972 156 972 l 533 972 q 676 940 614 972 q 774 850 739 907 q 808 721 808 793 q 759 561 808 628 q 631 471 710 494 q 740 388 697 450 q 783 236 783 326 q 795 106 783 143 q 831 54 807 69 m 540 490 q 689 560 628 499 q 750 719 750 621 q 689 861 750 806 q 526 917 628 917 l 197 917 l 197 490 l 540 490 m 525 -150 q 496 -219 525 -192 q 429 -247 467 -247 q 388 -225 388 -247 q 392 -208 388 -215 q 406 -201 397 -201 q 417 -203 410 -201 q 432 -206 425 -206 q 446 -204 440 -206 q 469 -158 469 -200 q 456 -142 469 -142 q 442 -147 450 -142 q 426 -153 433 -153 q 403 -143 413 -154 q 394 -121 394 -132 q 412 -87 394 -100 q 460 -74 429 -74 q 507 -93 489 -74 q 525 -150 525 -112 z "},"Ȑ":{"ha":922,"x_min":139,"x_max":846,"o":"m 831 54 q 846 29 846 44 q 838 9 846 17 q 819 1 831 1 q 807 4 811 1 q 747 74 769 25 q 725 236 725 124 q 664 392 725 350 q 522 435 603 435 l 197 435 l 197 28 q 189 8 197 17 q 168 0 181 0 q 147 8 156 0 q 139 28 139 17 l 139 944 q 147 964 139 956 q 167 972 156 972 l 533 972 q 676 940 614 972 q 774 850 739 907 q 808 721 808 793 q 759 561 808 628 q 631 471 710 494 q 740 388 697 450 q 783 236 783 326 q 795 106 783 143 q 831 54 807 69 m 540 490 q 689 560 628 499 q 750 719 750 621 q 689 861 750 806 q 526 917 628 917 l 197 917 l 197 490 l 540 490 m 410 1050 q 381 1060 400 1050 l 246 1125 q 226 1158 226 1136 q 235 1182 226 1172 q 258 1192 243 1192 q 289 1181 275 1192 l 414 1088 q 426 1067 426 1078 q 422 1055 426 1060 q 410 1050 418 1050 m 625 1044 q 596 1054 615 1044 l 461 1119 q 442 1153 442 1131 q 450 1176 442 1167 q 474 1186 458 1186 q 504 1175 490 1186 l 629 1082 q 642 1061 642 1072 q 638 1049 642 1054 q 625 1044 633 1044 z "},"Ṛ":{"ha":922,"x_min":139,"x_max":846,"o":"m 831 54 q 846 29 846 44 q 838 9 846 17 q 819 1 831 1 q 807 4 811 1 q 747 74 769 25 q 725 236 725 124 q 664 392 725 350 q 522 435 603 435 l 197 435 l 197 28 q 189 8 197 17 q 168 0 181 0 q 147 8 156 0 q 139 28 139 17 l 139 944 q 147 964 139 956 q 167 972 156 972 l 533 972 q 676 940 614 972 q 774 850 739 907 q 808 721 808 793 q 759 561 808 628 q 631 471 710 494 q 740 388 697 450 q 783 236 783 326 q 795 106 783 143 q 831 54 807 69 m 540 490 q 689 560 628 499 q 750 719 750 621 q 689 861 750 806 q 526 917 628 917 l 197 917 l 197 490 l 540 490 m 454 -190 q 419 -176 432 -190 q 406 -140 406 -162 l 406 -129 q 419 -93 406 -107 q 456 -79 433 -79 q 488 -93 475 -79 q 501 -129 501 -107 l 501 -140 q 488 -176 501 -162 q 454 -190 475 -190 z "},"Ȓ":{"ha":922,"x_min":139,"x_max":846,"o":"m 831 54 q 846 29 846 44 q 838 9 846 17 q 819 1 831 1 q 807 4 811 1 q 747 74 769 25 q 725 236 725 124 q 664 392 725 350 q 522 435 603 435 l 197 435 l 197 28 q 189 8 197 17 q 168 0 181 0 q 147 8 156 0 q 139 28 139 17 l 139 944 q 147 964 139 956 q 167 972 156 972 l 533 972 q 676 940 614 972 q 774 850 739 907 q 808 721 808 793 q 759 561 808 628 q 631 471 710 494 q 740 388 697 450 q 783 236 783 326 q 795 106 783 143 q 831 54 807 69 m 540 490 q 689 560 628 499 q 750 719 750 621 q 689 861 750 806 q 526 917 628 917 l 197 917 l 197 490 l 540 490 m 451 1172 q 535 1153 497 1172 q 597 1101 574 1133 q 619 1033 619 1069 q 612 1016 619 1024 q 593 1008 604 1008 q 564 1036 568 1008 q 526 1097 557 1075 q 451 1119 494 1119 q 376 1097 408 1119 q 339 1036 344 1075 q 310 1008 336 1008 q 291 1016 299 1008 q 283 1033 283 1024 q 306 1101 283 1069 q 367 1153 329 1133 q 451 1172 406 1172 z "},"Ṟ":{"ha":922,"x_min":139,"x_max":846,"o":"m 831 54 q 846 29 846 44 q 838 9 846 17 q 819 1 831 1 q 807 4 811 1 q 747 74 769 25 q 725 236 725 124 q 664 392 725 350 q 522 435 603 435 l 197 435 l 197 28 q 189 8 197 17 q 168 0 181 0 q 147 8 156 0 q 139 28 139 17 l 139 944 q 147 964 139 956 q 167 972 156 972 l 533 972 q 676 940 614 972 q 774 850 739 907 q 808 721 808 793 q 759 561 808 628 q 631 471 710 494 q 740 388 697 450 q 783 236 783 326 q 795 106 783 143 q 831 54 807 69 m 540 490 q 689 560 628 499 q 750 719 750 621 q 689 861 750 806 q 526 917 628 917 l 197 917 l 197 490 l 540 490 m 322 -162 q 294 -137 294 -162 q 322 -111 294 -111 l 600 -111 q 628 -137 628 -111 q 600 -162 628 -162 l 322 -162 z "},"S":{"ha":764,"x_min":49,"x_max":693,"o":"m 388 -14 q 208 22 285 -14 q 57 132 132 57 q 49 153 49 140 q 58 174 49 164 q 79 185 68 185 q 103 172 92 185 q 231 75 157 108 q 388 42 306 42 q 564 93 494 42 q 633 229 633 144 q 597 339 632 296 q 512 408 563 382 q 374 465 461 433 q 224 529 278 501 q 133 608 171 557 q 94 743 94 660 q 132 867 94 811 q 239 954 169 922 q 400 986 308 986 q 556 956 482 986 q 672 872 629 926 q 686 843 686 853 q 676 823 686 832 q 653 814 665 814 q 635 822 642 814 q 535 901 596 872 q 400 931 474 931 q 224 881 294 931 q 154 744 154 831 q 188 643 154 685 q 274 576 222 601 q 401 522 325 550 q 556 458 499 488 q 653 374 613 429 q 693 226 693 318 q 656 107 693 163 q 548 19 618 51 q 388 -14 478 -14 z "},"Ś":{"ha":764,"x_min":49,"x_max":693,"o":"m 388 -14 q 208 22 285 -14 q 57 132 132 57 q 49 153 49 140 q 58 174 49 164 q 79 185 68 185 q 103 172 92 185 q 231 75 157 108 q 388 42 306 42 q 564 93 494 42 q 633 229 633 144 q 597 339 632 296 q 512 408 563 382 q 374 465 461 433 q 224 529 278 501 q 133 608 171 557 q 94 743 94 660 q 132 867 94 811 q 239 954 169 922 q 400 986 308 986 q 556 956 482 986 q 672 872 629 926 q 686 843 686 853 q 676 823 686 832 q 653 814 665 814 q 635 822 642 814 q 535 901 596 872 q 400 931 474 931 q 224 881 294 931 q 154 744 154 831 q 188 643 154 685 q 274 576 222 601 q 401 522 325 550 q 556 458 499 488 q 653 374 613 429 q 693 226 693 318 q 656 107 693 163 q 548 19 618 51 q 388 -14 478 -14 m 388 1039 q 375 1044 379 1039 q 371 1056 371 1049 q 383 1076 371 1067 l 508 1169 q 539 1181 522 1181 q 563 1171 554 1181 q 571 1147 571 1161 q 551 1114 571 1125 l 417 1049 q 388 1039 397 1039 z "},"Ṥ":{"ha":764,"x_min":49,"x_max":693,"o":"m 388 -14 q 208 22 285 -14 q 57 132 132 57 q 49 153 49 140 q 58 174 49 164 q 79 185 68 185 q 103 172 92 185 q 231 75 157 108 q 388 42 306 42 q 564 93 494 42 q 633 229 633 144 q 597 339 632 296 q 512 408 563 382 q 374 465 461 433 q 224 529 278 501 q 133 608 171 557 q 94 743 94 660 q 132 867 94 811 q 239 954 169 922 q 400 986 308 986 q 556 956 482 986 q 672 872 629 926 q 686 843 686 853 q 676 823 686 832 q 653 814 665 814 q 635 822 642 814 q 535 901 596 872 q 400 931 474 931 q 224 881 294 931 q 154 744 154 831 q 188 643 154 685 q 274 576 222 601 q 401 522 325 550 q 556 458 499 488 q 653 374 613 429 q 693 226 693 318 q 656 107 693 163 q 548 19 618 51 q 388 -14 478 -14 m 388 1039 q 375 1044 379 1039 q 371 1056 371 1049 q 383 1076 371 1067 l 508 1169 q 539 1181 522 1181 q 563 1171 554 1181 q 571 1147 571 1161 q 551 1114 571 1125 l 417 1049 q 388 1039 397 1039 m 442 1286 q 406 1300 419 1286 q 393 1336 393 1314 l 393 1347 q 407 1383 393 1369 q 443 1397 421 1397 q 476 1383 463 1397 q 489 1347 489 1369 l 489 1336 q 476 1300 489 1314 q 442 1286 463 1286 z "},"Š":{"ha":764,"x_min":49,"x_max":693,"o":"m 388 -14 q 208 22 285 -14 q 57 132 132 57 q 49 153 49 140 q 58 174 49 164 q 79 185 68 185 q 103 172 92 185 q 231 75 157 108 q 388 42 306 42 q 564 93 494 42 q 633 229 633 144 q 597 339 632 296 q 512 408 563 382 q 374 465 461 433 q 224 529 278 501 q 133 608 171 557 q 94 743 94 660 q 132 867 94 811 q 239 954 169 922 q 400 986 308 986 q 556 956 482 986 q 672 872 629 926 q 686 843 686 853 q 676 823 686 832 q 653 814 665 814 q 635 822 642 814 q 535 901 596 872 q 400 931 474 931 q 224 881 294 931 q 154 744 154 831 q 188 643 154 685 q 274 576 222 601 q 401 522 325 550 q 556 458 499 488 q 653 374 613 429 q 693 226 693 318 q 656 107 693 163 q 548 19 618 51 q 388 -14 478 -14 m 525 1224 q 537 1219 532 1224 q 542 1207 542 1214 q 533 1190 542 1199 l 421 1071 q 388 1054 410 1054 l 374 1054 q 340 1071 351 1054 l 228 1189 q 219 1206 219 1197 q 224 1217 219 1213 q 236 1222 229 1222 q 263 1208 246 1222 l 385 1114 l 499 1210 q 525 1224 515 1224 z "},"Ṧ":{"ha":764,"x_min":49,"x_max":693,"o":"m 388 -14 q 208 22 285 -14 q 57 132 132 57 q 49 153 49 140 q 58 174 49 164 q 79 185 68 185 q 103 172 92 185 q 231 75 157 108 q 388 42 306 42 q 564 93 494 42 q 633 229 633 144 q 597 339 632 296 q 512 408 563 382 q 374 465 461 433 q 224 529 278 501 q 133 608 171 557 q 94 743 94 660 q 132 867 94 811 q 239 954 169 922 q 400 986 308 986 q 556 956 482 986 q 672 872 629 926 q 686 843 686 853 q 676 823 686 832 q 653 814 665 814 q 635 822 642 814 q 535 901 596 872 q 400 931 474 931 q 224 881 294 931 q 154 744 154 831 q 188 643 154 685 q 274 576 222 601 q 401 522 325 550 q 556 458 499 488 q 653 374 613 429 q 693 226 693 318 q 656 107 693 163 q 548 19 618 51 q 388 -14 478 -14 m 525 1224 q 537 1219 532 1224 q 542 1207 542 1214 q 533 1190 542 1199 l 421 1071 q 388 1054 410 1054 l 374 1054 q 340 1071 351 1054 l 228 1189 q 219 1206 219 1197 q 224 1217 219 1213 q 236 1222 229 1222 q 263 1208 246 1222 l 385 1114 l 499 1210 q 525 1224 515 1224 m 382 1306 q 347 1319 360 1306 q 333 1356 333 1333 l 333 1367 q 347 1403 333 1389 q 383 1417 361 1417 q 416 1403 403 1417 q 429 1367 429 1389 l 429 1356 q 416 1319 429 1333 q 382 1306 403 1306 z "},"Ş":{"ha":764,"x_min":49,"x_max":693,"o":"m 693 226 q 656 108 693 163 q 551 19 619 53 q 393 -14 482 -14 l 314 -175 q 285 -196 304 -196 q 253 -184 271 -196 q 236 -158 236 -172 q 243 -139 236 -146 l 347 -12 q 192 30 261 -6 q 57 132 124 65 q 49 153 49 140 q 58 174 49 164 q 79 185 68 185 q 103 172 92 185 q 231 75 157 108 q 388 42 306 42 q 564 93 494 42 q 633 229 633 144 q 597 339 632 296 q 512 408 563 382 q 374 465 461 433 q 224 529 278 501 q 133 608 171 557 q 94 743 94 660 q 132 867 94 811 q 239 954 169 922 q 400 986 308 986 q 556 956 482 986 q 672 872 629 926 q 686 843 686 853 q 676 823 686 832 q 653 814 665 814 q 635 822 642 814 q 535 901 596 872 q 400 931 474 931 q 224 881 294 931 q 154 744 154 831 q 188 643 154 685 q 274 576 222 601 q 401 522 325 550 q 556 458 499 488 q 653 374 613 429 q 693 226 693 318 z "},"Ŝ":{"ha":764,"x_min":49,"x_max":693,"o":"m 388 -14 q 208 22 285 -14 q 57 132 132 57 q 49 153 49 140 q 58 174 49 164 q 79 185 68 185 q 103 172 92 185 q 231 75 157 108 q 388 42 306 42 q 564 93 494 42 q 633 229 633 144 q 597 339 632 296 q 512 408 563 382 q 374 465 461 433 q 224 529 278 501 q 133 608 171 557 q 94 743 94 660 q 132 867 94 811 q 239 954 169 922 q 400 986 308 986 q 556 956 482 986 q 672 872 629 926 q 686 843 686 853 q 676 823 686 832 q 653 814 665 814 q 635 822 642 814 q 535 901 596 872 q 400 931 474 931 q 224 881 294 931 q 154 744 154 831 q 188 643 154 685 q 274 576 222 601 q 401 522 325 550 q 556 458 499 488 q 653 374 613 429 q 693 226 693 318 q 656 107 693 163 q 548 19 618 51 q 388 -14 478 -14 m 533 1101 q 542 1085 542 1093 q 537 1073 542 1078 q 525 1068 532 1068 q 499 1082 515 1068 l 376 1176 l 263 1081 q 236 1067 246 1067 q 224 1072 229 1067 q 219 1083 219 1076 q 228 1100 219 1092 l 340 1219 q 356 1233 350 1229 q 374 1236 363 1236 l 388 1236 q 405 1233 399 1236 q 421 1219 411 1229 l 533 1101 z "},"Ș":{"ha":764,"x_min":49,"x_max":693,"o":"m 388 -14 q 208 22 285 -14 q 57 132 132 57 q 49 153 49 140 q 58 174 49 164 q 79 185 68 185 q 103 172 92 185 q 231 75 157 108 q 388 42 306 42 q 564 93 494 42 q 633 229 633 144 q 597 339 632 296 q 512 408 563 382 q 374 465 461 433 q 224 529 278 501 q 133 608 171 557 q 94 743 94 660 q 132 867 94 811 q 239 954 169 922 q 400 986 308 986 q 556 956 482 986 q 672 872 629 926 q 686 843 686 853 q 676 823 686 832 q 653 814 665 814 q 635 822 642 814 q 535 901 596 872 q 400 931 474 931 q 224 881 294 931 q 154 744 154 831 q 188 643 154 685 q 274 576 222 601 q 401 522 325 550 q 556 458 499 488 q 653 374 613 429 q 693 226 693 318 q 656 107 693 163 q 548 19 618 51 q 388 -14 478 -14 m 453 -150 q 424 -219 453 -192 q 357 -247 394 -247 q 315 -225 315 -247 q 320 -208 315 -215 q 333 -201 325 -201 q 345 -203 338 -201 q 360 -206 353 -206 q 374 -204 368 -206 q 397 -158 397 -200 q 383 -142 397 -142 q 369 -147 378 -142 q 354 -153 361 -153 q 331 -143 340 -154 q 322 -121 322 -132 q 340 -87 322 -100 q 388 -74 357 -74 q 435 -93 417 -74 q 453 -150 453 -112 z "},"Ṡ":{"ha":764,"x_min":49,"x_max":693,"o":"m 388 -14 q 208 22 285 -14 q 57 132 132 57 q 49 153 49 140 q 58 174 49 164 q 79 185 68 185 q 103 172 92 185 q 231 75 157 108 q 388 42 306 42 q 564 93 494 42 q 633 229 633 144 q 597 339 632 296 q 512 408 563 382 q 374 465 461 433 q 224 529 278 501 q 133 608 171 557 q 94 743 94 660 q 132 867 94 811 q 239 954 169 922 q 400 986 308 986 q 556 956 482 986 q 672 872 629 926 q 686 843 686 853 q 676 823 686 832 q 653 814 665 814 q 635 822 642 814 q 535 901 596 872 q 400 931 474 931 q 224 881 294 931 q 154 744 154 831 q 188 643 154 685 q 274 576 222 601 q 401 522 325 550 q 556 458 499 488 q 653 374 613 429 q 693 226 693 318 q 656 107 693 163 q 548 19 618 51 q 388 -14 478 -14 m 382 1083 q 347 1097 360 1083 q 333 1133 333 1111 l 333 1144 q 347 1181 333 1167 q 383 1194 361 1194 q 416 1181 403 1194 q 429 1144 429 1167 l 429 1133 q 416 1097 429 1111 q 382 1083 403 1083 z "},"Ṣ":{"ha":764,"x_min":49,"x_max":693,"o":"m 388 -14 q 208 22 285 -14 q 57 132 132 57 q 49 153 49 140 q 58 174 49 164 q 79 185 68 185 q 103 172 92 185 q 231 75 157 108 q 388 42 306 42 q 564 93 494 42 q 633 229 633 144 q 597 339 632 296 q 512 408 563 382 q 374 465 461 433 q 224 529 278 501 q 133 608 171 557 q 94 743 94 660 q 132 867 94 811 q 239 954 169 922 q 400 986 308 986 q 556 956 482 986 q 672 872 629 926 q 686 843 686 853 q 676 823 686 832 q 653 814 665 814 q 635 822 642 814 q 535 901 596 872 q 400 931 474 931 q 224 881 294 931 q 154 744 154 831 q 188 643 154 685 q 274 576 222 601 q 401 522 325 550 q 556 458 499 488 q 653 374 613 429 q 693 226 693 318 q 656 107 693 163 q 548 19 618 51 q 388 -14 478 -14 m 382 -190 q 347 -176 360 -190 q 333 -140 333 -162 l 333 -129 q 347 -93 333 -107 q 383 -79 361 -79 q 416 -93 403 -79 q 429 -129 429 -107 l 429 -140 q 416 -176 429 -162 q 382 -190 403 -190 z "},"Ṩ":{"ha":764,"x_min":49,"x_max":693,"o":"m 388 -14 q 208 22 285 -14 q 57 132 132 57 q 49 153 49 140 q 58 174 49 164 q 79 185 68 185 q 103 172 92 185 q 231 75 157 108 q 388 42 306 42 q 564 93 494 42 q 633 229 633 144 q 597 339 632 296 q 512 408 563 382 q 374 465 461 433 q 224 529 278 501 q 133 608 171 557 q 94 743 94 660 q 132 867 94 811 q 239 954 169 922 q 400 986 308 986 q 556 956 482 986 q 672 872 629 926 q 686 843 686 853 q 676 823 686 832 q 653 814 665 814 q 635 822 642 814 q 535 901 596 872 q 400 931 474 931 q 224 881 294 931 q 154 744 154 831 q 188 643 154 685 q 274 576 222 601 q 401 522 325 550 q 556 458 499 488 q 653 374 613 429 q 693 226 693 318 q 656 107 693 163 q 548 19 618 51 q 388 -14 478 -14 m 382 -190 q 347 -176 360 -190 q 333 -140 333 -162 l 333 -129 q 347 -93 333 -107 q 383 -79 361 -79 q 416 -93 403 -79 q 429 -129 429 -107 l 429 -140 q 416 -176 429 -162 q 382 -190 403 -190 m 382 1083 q 347 1097 360 1083 q 333 1133 333 1111 l 333 1144 q 347 1181 333 1167 q 383 1194 361 1194 q 416 1181 403 1194 q 429 1144 429 1167 l 429 1133 q 416 1097 429 1111 q 382 1083 403 1083 z "},"ẞ":{"ha":961,"x_min":139,"x_max":890,"o":"m 693 503 q 796 435 757 465 q 863 354 835 406 q 890 226 890 303 q 858 107 890 163 q 765 19 825 51 q 628 -14 706 -14 q 506 15 557 -14 q 407 104 454 44 q 397 128 397 119 q 408 148 397 139 q 429 157 418 157 q 453 144 444 157 q 533 69 488 96 q 626 42 578 42 q 727 65 681 42 q 802 131 774 89 q 831 229 831 174 q 806 324 828 285 q 751 390 783 364 q 667 447 718 417 q 570 512 604 485 q 511 582 536 539 q 486 688 486 625 q 556 831 486 772 q 751 904 625 889 q 658 942 711 929 q 550 956 604 956 q 278 864 360 956 q 197 629 197 772 l 194 33 q 167 6 194 6 q 139 33 139 6 l 142 629 q 180 815 142 729 q 310 954 218 900 q 550 1008 401 1008 q 694 987 622 1008 q 813 931 767 965 q 831 912 826 918 q 836 896 836 906 q 808 869 836 874 q 613 806 681 856 q 546 689 546 757 q 565 609 546 642 q 614 554 585 576 q 693 503 643 532 z "},"Ə":{"ha":1046,"x_min":69,"x_max":976,"o":"m 522 986 q 750 919 646 986 q 915 737 854 851 q 976 486 976 622 q 915 235 976 350 q 750 53 854 121 q 522 -14 646 -14 q 300 51 403 -14 q 135 224 197 115 q 69 463 72 333 l 69 486 q 78 503 69 496 q 97 510 86 510 l 915 510 q 854 722 910 625 q 710 874 799 818 q 522 931 622 931 q 322 888 406 931 q 171 757 238 846 q 149 746 163 746 q 135 750 140 746 q 121 774 121 758 q 128 792 121 782 q 299 938 203 889 q 522 986 394 986 m 522 42 q 710 96 622 42 q 854 244 799 150 q 915 454 910 339 l 126 454 q 188 247 132 342 q 332 97 243 153 q 522 42 421 42 z "},"T":{"ha":828,"x_min":49,"x_max":779,"o":"m 751 972 q 771 965 763 972 q 779 946 779 957 q 772 926 779 933 q 751 919 764 919 l 442 919 l 442 28 q 433 8 442 17 q 414 0 425 0 q 394 8 401 0 q 386 28 386 17 l 386 919 l 76 919 q 57 927 65 919 q 49 946 49 935 q 57 965 49 957 q 76 972 65 972 l 751 972 z "},"Ŧ":{"ha":828,"x_min":49,"x_max":779,"o":"m 751 972 q 771 965 763 972 q 779 946 779 957 q 772 926 779 933 q 751 919 764 919 l 442 919 l 442 475 l 526 475 q 554 447 554 475 q 526 422 554 422 l 442 422 l 442 28 q 433 8 442 17 q 414 0 425 0 q 394 8 401 0 q 386 28 386 17 l 386 422 l 304 422 q 276 449 276 422 q 304 475 276 475 l 386 475 l 386 919 l 76 919 q 57 927 65 919 q 49 946 49 935 q 57 965 49 957 q 76 972 65 972 l 751 972 z "},"Ť":{"ha":828,"x_min":49,"x_max":779,"o":"m 751 972 q 771 965 763 972 q 779 946 779 957 q 772 926 779 933 q 751 919 764 919 l 442 919 l 442 28 q 433 8 442 17 q 414 0 425 0 q 394 8 401 0 q 386 28 386 17 l 386 919 l 76 919 q 57 927 65 919 q 49 946 49 935 q 57 965 49 957 q 76 972 65 972 l 751 972 m 557 1224 q 569 1219 564 1224 q 574 1207 574 1214 q 565 1190 574 1199 l 453 1071 q 419 1054 442 1054 l 406 1054 q 372 1071 383 1054 l 260 1189 q 251 1206 251 1197 q 256 1217 251 1213 q 268 1222 261 1222 q 294 1208 278 1222 l 417 1114 l 531 1210 q 557 1224 547 1224 z "},"Ţ":{"ha":828,"x_min":49,"x_max":779,"o":"m 751 972 q 771 965 763 972 q 779 946 779 957 q 772 926 779 933 q 751 919 764 919 l 442 919 l 442 28 q 438 14 442 21 l 439 14 l 346 -175 q 317 -196 336 -196 q 285 -184 303 -196 q 268 -158 268 -172 q 275 -139 268 -146 l 394 7 q 386 28 386 15 l 386 919 l 76 919 q 57 927 65 919 q 49 946 49 935 q 57 965 49 957 q 76 972 65 972 l 751 972 z "},"Ț":{"ha":828,"x_min":49,"x_max":779,"o":"m 751 972 q 771 965 763 972 q 779 946 779 957 q 772 926 779 933 q 751 919 764 919 l 442 919 l 442 28 q 433 8 442 17 q 414 0 425 0 q 394 8 401 0 q 386 28 386 17 l 386 919 l 76 919 q 57 927 65 919 q 49 946 49 935 q 57 965 49 957 q 76 972 65 972 l 751 972 m 485 -150 q 456 -219 485 -192 q 389 -247 426 -247 q 347 -225 347 -247 q 352 -208 347 -215 q 365 -201 357 -201 q 377 -203 369 -201 q 392 -206 385 -206 q 406 -204 400 -206 q 429 -158 429 -200 q 415 -142 429 -142 q 401 -147 410 -142 q 386 -153 393 -153 q 363 -143 372 -154 q 354 -121 354 -132 q 372 -87 354 -100 q 419 -74 389 -74 q 467 -93 449 -74 q 485 -150 485 -112 z "},"Ṭ":{"ha":828,"x_min":49,"x_max":779,"o":"m 751 972 q 771 965 763 972 q 779 946 779 957 q 772 926 779 933 q 751 919 764 919 l 442 919 l 442 28 q 433 8 442 17 q 414 0 425 0 q 394 8 401 0 q 386 28 386 17 l 386 919 l 76 919 q 57 927 65 919 q 49 946 49 935 q 57 965 49 957 q 76 972 65 972 l 751 972 m 414 -190 q 378 -176 392 -190 q 365 -140 365 -162 l 365 -129 q 379 -93 365 -107 q 415 -79 393 -79 q 448 -93 435 -79 q 461 -129 461 -107 l 461 -140 q 448 -176 461 -162 q 414 -190 435 -190 z "},"Ṯ":{"ha":828,"x_min":49,"x_max":779,"o":"m 751 972 q 771 965 763 972 q 779 946 779 957 q 772 926 779 933 q 751 919 764 919 l 442 919 l 442 28 q 433 8 442 17 q 414 0 425 0 q 394 8 401 0 q 386 28 386 17 l 386 919 l 76 919 q 57 927 65 919 q 49 946 49 935 q 57 965 49 957 q 76 972 65 972 l 751 972 m 282 -162 q 254 -137 254 -162 q 282 -111 254 -111 l 560 -111 q 588 -137 588 -111 q 560 -162 588 -162 l 282 -162 z "},"U":{"ha":993,"x_min":139,"x_max":854,"o":"m 826 972 q 847 964 839 972 q 854 944 854 956 l 854 344 q 806 165 854 247 q 675 35 757 83 q 497 -14 593 -14 q 318 35 400 -14 q 188 165 236 83 q 139 344 139 247 l 139 944 q 147 965 139 957 q 168 972 156 972 q 189 964 181 972 q 197 944 197 956 l 197 344 q 238 193 197 263 q 347 83 278 124 q 497 42 415 42 q 648 83 579 42 q 758 193 717 124 q 799 344 799 263 l 799 944 q 806 964 799 956 q 826 972 814 972 z "},"Ú":{"ha":993,"x_min":139,"x_max":854,"o":"m 826 972 q 847 964 839 972 q 854 944 854 956 l 854 344 q 806 165 854 247 q 675 35 757 83 q 497 -14 593 -14 q 318 35 400 -14 q 188 165 236 83 q 139 344 139 247 l 139 944 q 147 965 139 957 q 168 972 156 972 q 189 964 181 972 q 197 944 197 956 l 197 344 q 238 193 197 263 q 347 83 278 124 q 497 42 415 42 q 648 83 579 42 q 758 193 717 124 q 799 344 799 263 l 799 944 q 806 964 799 956 q 826 972 814 972 m 503 1039 q 490 1044 494 1039 q 486 1056 486 1049 q 499 1076 486 1067 l 624 1169 q 654 1181 638 1181 q 678 1171 669 1181 q 686 1147 686 1161 q 667 1114 686 1125 l 532 1049 q 503 1039 513 1039 z "},"Ŭ":{"ha":993,"x_min":139,"x_max":854,"o":"m 826 972 q 847 964 839 972 q 854 944 854 956 l 854 344 q 806 165 854 247 q 675 35 757 83 q 497 -14 593 -14 q 318 35 400 -14 q 188 165 236 83 q 139 344 139 247 l 139 944 q 147 965 139 957 q 168 972 156 972 q 189 964 181 972 q 197 944 197 956 l 197 344 q 238 193 197 263 q 347 83 278 124 q 497 42 415 42 q 648 83 579 42 q 758 193 717 124 q 799 344 799 263 l 799 944 q 806 964 799 956 q 826 972 814 972 m 497 1083 q 381 1121 428 1083 q 317 1226 333 1158 q 315 1236 315 1229 q 338 1257 315 1257 q 355 1252 350 1257 q 365 1233 360 1247 q 497 1138 403 1138 q 628 1233 590 1138 q 638 1251 632 1246 q 656 1256 644 1256 q 676 1249 671 1256 q 678 1226 681 1242 q 614 1121 661 1158 q 497 1083 567 1083 z "},"Ǔ":{"ha":993,"x_min":139,"x_max":854,"o":"m 826 972 q 847 964 839 972 q 854 944 854 956 l 854 344 q 806 165 854 247 q 675 35 757 83 q 497 -14 593 -14 q 318 35 400 -14 q 188 165 236 83 q 139 344 139 247 l 139 944 q 147 965 139 957 q 168 972 156 972 q 189 964 181 972 q 197 944 197 956 l 197 344 q 238 193 197 263 q 347 83 278 124 q 497 42 415 42 q 648 83 579 42 q 758 193 717 124 q 799 344 799 263 l 799 944 q 806 964 799 956 q 826 972 814 972 m 640 1224 q 652 1219 647 1224 q 657 1207 657 1214 q 649 1190 657 1199 l 536 1071 q 503 1054 525 1054 l 489 1054 q 456 1071 467 1054 l 343 1189 q 335 1206 335 1197 q 340 1217 335 1213 q 351 1222 344 1222 q 378 1208 361 1222 l 500 1114 l 614 1210 q 640 1224 631 1224 z "},"Û":{"ha":993,"x_min":139,"x_max":854,"o":"m 826 972 q 847 964 839 972 q 854 944 854 956 l 854 344 q 806 165 854 247 q 675 35 757 83 q 497 -14 593 -14 q 318 35 400 -14 q 188 165 236 83 q 139 344 139 247 l 139 944 q 147 965 139 957 q 168 972 156 972 q 189 964 181 972 q 197 944 197 956 l 197 344 q 238 193 197 263 q 347 83 278 124 q 497 42 415 42 q 648 83 579 42 q 758 193 717 124 q 799 344 799 263 l 799 944 q 806 964 799 956 q 826 972 814 972 m 649 1101 q 657 1085 657 1093 q 652 1073 657 1078 q 640 1068 647 1068 q 614 1082 631 1068 l 492 1176 l 378 1081 q 351 1067 361 1067 q 340 1072 344 1067 q 335 1083 335 1076 q 343 1100 335 1092 l 456 1219 q 472 1233 465 1229 q 489 1236 478 1236 l 503 1236 q 520 1233 514 1236 q 536 1219 526 1229 l 649 1101 z "},"Ȕ":{"ha":993,"x_min":139,"x_max":854,"o":"m 826 972 q 847 964 839 972 q 854 944 854 956 l 854 344 q 806 165 854 247 q 675 35 757 83 q 497 -14 593 -14 q 318 35 400 -14 q 188 165 236 83 q 139 344 139 247 l 139 944 q 147 965 139 957 q 168 972 156 972 q 189 964 181 972 q 197 944 197 956 l 197 344 q 238 193 197 263 q 347 83 278 124 q 497 42 415 42 q 648 83 579 42 q 758 193 717 124 q 799 344 799 263 l 799 944 q 806 964 799 956 q 826 972 814 972 m 453 1050 q 424 1060 443 1050 l 289 1125 q 269 1158 269 1136 q 278 1182 269 1172 q 301 1192 286 1192 q 332 1181 318 1192 l 457 1088 q 469 1067 469 1078 q 465 1055 469 1060 q 453 1050 461 1050 m 668 1044 q 639 1054 658 1044 l 504 1119 q 485 1153 485 1131 q 493 1176 485 1167 q 517 1186 501 1186 q 547 1175 533 1186 l 672 1082 q 685 1061 685 1072 q 681 1049 685 1054 q 668 1044 676 1044 z "},"Ü":{"ha":993,"x_min":139,"x_max":854,"o":"m 826 972 q 847 964 839 972 q 854 944 854 956 l 854 344 q 806 165 854 247 q 675 35 757 83 q 497 -14 593 -14 q 318 35 400 -14 q 188 165 236 83 q 139 344 139 247 l 139 944 q 147 965 139 957 q 168 972 156 972 q 189 964 181 972 q 197 944 197 956 l 197 344 q 238 193 197 263 q 347 83 278 124 q 497 42 415 42 q 648 83 579 42 q 758 193 717 124 q 799 344 799 263 l 799 944 q 806 964 799 956 q 826 972 814 972 m 385 1083 q 349 1097 363 1083 q 336 1133 336 1111 l 336 1144 q 350 1181 336 1167 q 386 1194 364 1194 q 419 1181 406 1194 q 432 1144 432 1167 l 432 1133 q 419 1097 432 1111 q 385 1083 406 1083 m 611 1083 q 576 1097 589 1083 q 563 1133 563 1111 l 563 1144 q 576 1181 563 1167 q 613 1194 590 1194 q 645 1181 632 1194 q 658 1144 658 1167 l 658 1133 q 645 1097 658 1111 q 611 1083 632 1083 z "},"Ụ":{"ha":993,"x_min":139,"x_max":854,"o":"m 826 972 q 847 964 839 972 q 854 944 854 956 l 854 344 q 806 165 854 247 q 675 35 757 83 q 497 -14 593 -14 q 318 35 400 -14 q 188 165 236 83 q 139 344 139 247 l 139 944 q 147 965 139 957 q 168 972 156 972 q 189 964 181 972 q 197 944 197 956 l 197 344 q 238 193 197 263 q 347 83 278 124 q 497 42 415 42 q 648 83 579 42 q 758 193 717 124 q 799 344 799 263 l 799 944 q 806 964 799 956 q 826 972 814 972 m 497 -190 q 462 -176 475 -190 q 449 -140 449 -162 l 449 -129 q 463 -93 449 -107 q 499 -79 476 -79 q 531 -93 518 -79 q 544 -129 544 -107 l 544 -140 q 531 -176 544 -162 q 497 -190 518 -190 z "},"Ù":{"ha":993,"x_min":139,"x_max":854,"o":"m 826 972 q 847 964 839 972 q 854 944 854 956 l 854 344 q 806 165 854 247 q 675 35 757 83 q 497 -14 593 -14 q 318 35 400 -14 q 188 165 236 83 q 139 344 139 247 l 139 944 q 147 965 139 957 q 168 972 156 972 q 189 964 181 972 q 197 944 197 956 l 197 344 q 238 193 197 263 q 347 83 278 124 q 497 42 415 42 q 648 83 579 42 q 758 193 717 124 q 799 344 799 263 l 799 944 q 806 964 799 956 q 826 972 814 972 m 497 1039 q 468 1049 488 1039 l 333 1114 q 314 1147 314 1125 q 322 1171 314 1161 q 346 1181 331 1181 q 376 1169 363 1181 l 501 1076 q 514 1056 514 1067 q 510 1044 514 1049 q 497 1039 506 1039 z "},"Ủ":{"ha":993,"x_min":139,"x_max":854,"o":"m 826 972 q 847 964 839 972 q 854 944 854 956 l 854 344 q 806 165 854 247 q 675 35 757 83 q 497 -14 593 -14 q 318 35 400 -14 q 188 165 236 83 q 139 344 139 247 l 139 944 q 147 965 139 957 q 168 972 156 972 q 189 964 181 972 q 197 944 197 956 l 197 344 q 238 193 197 263 q 347 83 278 124 q 497 42 415 42 q 648 83 579 42 q 758 193 717 124 q 799 344 799 263 l 799 944 q 806 964 799 956 q 826 972 814 972 m 400 1242 q 501 1286 444 1286 q 578 1256 553 1286 q 604 1190 604 1226 q 592 1149 604 1168 q 551 1103 579 1131 q 539 1071 540 1092 q 531 1056 538 1061 q 515 1051 525 1051 q 499 1058 504 1051 q 493 1074 493 1064 q 513 1129 493 1108 q 532 1149 519 1136 q 550 1172 544 1163 q 556 1192 556 1181 q 540 1223 556 1210 q 504 1236 525 1236 q 439 1210 474 1236 q 414 1199 425 1199 q 396 1207 404 1199 q 390 1222 390 1215 q 400 1242 390 1232 z "},"Ư":{"ha":993,"x_min":139,"x_max":1011,"o":"m 1011 1086 q 969 971 1011 1014 q 854 921 926 928 l 854 344 q 806 165 854 247 q 675 35 757 83 q 497 -14 593 -14 q 318 35 400 -14 q 188 165 236 83 q 139 344 139 247 l 139 944 q 147 965 139 957 q 168 972 156 972 q 189 964 181 972 q 197 944 197 956 l 197 344 q 238 193 197 263 q 347 83 278 124 q 497 42 415 42 q 648 83 579 42 q 758 193 717 124 q 799 344 799 263 l 799 944 q 806 964 799 956 q 826 972 814 972 q 929 999 897 972 q 961 1086 961 1025 q 967 1116 961 1104 q 986 1128 974 1128 q 1011 1086 1011 1128 z "},"Ứ":{"ha":993,"x_min":139,"x_max":1011,"o":"m 1011 1086 q 969 971 1011 1014 q 854 921 926 928 l 854 344 q 806 165 854 247 q 675 35 757 83 q 497 -14 593 -14 q 318 35 400 -14 q 188 165 236 83 q 139 344 139 247 l 139 944 q 147 965 139 957 q 168 972 156 972 q 189 964 181 972 q 197 944 197 956 l 197 344 q 238 193 197 263 q 347 83 278 124 q 497 42 415 42 q 648 83 579 42 q 758 193 717 124 q 799 344 799 263 l 799 944 q 806 964 799 956 q 826 972 814 972 q 929 999 897 972 q 961 1086 961 1025 q 967 1116 961 1104 q 986 1128 974 1128 q 1011 1086 1011 1128 m 503 1039 q 490 1044 494 1039 q 486 1056 486 1049 q 499 1076 486 1067 l 624 1169 q 654 1181 638 1181 q 678 1171 669 1181 q 686 1147 686 1161 q 667 1114 686 1125 l 532 1049 q 503 1039 513 1039 z "},"Ự":{"ha":993,"x_min":139,"x_max":1011,"o":"m 1011 1086 q 969 971 1011 1014 q 854 921 926 928 l 854 344 q 806 165 854 247 q 675 35 757 83 q 497 -14 593 -14 q 318 35 400 -14 q 188 165 236 83 q 139 344 139 247 l 139 944 q 147 965 139 957 q 168 972 156 972 q 189 964 181 972 q 197 944 197 956 l 197 344 q 238 193 197 263 q 347 83 278 124 q 497 42 415 42 q 648 83 579 42 q 758 193 717 124 q 799 344 799 263 l 799 944 q 806 964 799 956 q 826 972 814 972 q 929 999 897 972 q 961 1086 961 1025 q 967 1116 961 1104 q 986 1128 974 1128 q 1011 1086 1011 1128 m 497 -190 q 462 -176 475 -190 q 449 -140 449 -162 l 449 -129 q 463 -93 449 -107 q 499 -79 476 -79 q 531 -93 518 -79 q 544 -129 544 -107 l 544 -140 q 531 -176 544 -162 q 497 -190 518 -190 z "},"Ừ":{"ha":993,"x_min":139,"x_max":1011,"o":"m 1011 1086 q 969 971 1011 1014 q 854 921 926 928 l 854 344 q 806 165 854 247 q 675 35 757 83 q 497 -14 593 -14 q 318 35 400 -14 q 188 165 236 83 q 139 344 139 247 l 139 944 q 147 965 139 957 q 168 972 156 972 q 189 964 181 972 q 197 944 197 956 l 197 344 q 238 193 197 263 q 347 83 278 124 q 497 42 415 42 q 648 83 579 42 q 758 193 717 124 q 799 344 799 263 l 799 944 q 806 964 799 956 q 826 972 814 972 q 929 999 897 972 q 961 1086 961 1025 q 967 1116 961 1104 q 986 1128 974 1128 q 1011 1086 1011 1128 m 497 1039 q 468 1049 488 1039 l 333 1114 q 314 1147 314 1125 q 322 1171 314 1161 q 346 1181 331 1181 q 376 1169 363 1181 l 501 1076 q 514 1056 514 1067 q 510 1044 514 1049 q 497 1039 506 1039 z "},"Ử":{"ha":993,"x_min":139,"x_max":1011,"o":"m 1011 1086 q 969 971 1011 1014 q 854 921 926 928 l 854 344 q 806 165 854 247 q 675 35 757 83 q 497 -14 593 -14 q 318 35 400 -14 q 188 165 236 83 q 139 344 139 247 l 139 944 q 147 965 139 957 q 168 972 156 972 q 189 964 181 972 q 197 944 197 956 l 197 344 q 238 193 197 263 q 347 83 278 124 q 497 42 415 42 q 648 83 579 42 q 758 193 717 124 q 799 344 799 263 l 799 944 q 806 964 799 956 q 826 972 814 972 q 929 999 897 972 q 961 1086 961 1025 q 967 1116 961 1104 q 986 1128 974 1128 q 1011 1086 1011 1128 m 400 1242 q 501 1286 444 1286 q 578 1256 553 1286 q 604 1190 604 1226 q 592 1149 604 1168 q 551 1103 579 1131 q 539 1071 540 1092 q 531 1056 538 1061 q 515 1051 525 1051 q 499 1058 504 1051 q 493 1074 493 1064 q 513 1129 493 1108 q 532 1149 519 1136 q 550 1172 544 1163 q 556 1192 556 1181 q 540 1223 556 1210 q 504 1236 525 1236 q 439 1210 474 1236 q 414 1199 425 1199 q 396 1207 404 1199 q 390 1222 390 1215 q 400 1242 390 1232 z "},"Ữ":{"ha":993,"x_min":139,"x_max":1011,"o":"m 1011 1086 q 969 971 1011 1014 q 854 921 926 928 l 854 344 q 806 165 854 247 q 675 35 757 83 q 497 -14 593 -14 q 318 35 400 -14 q 188 165 236 83 q 139 344 139 247 l 139 944 q 147 965 139 957 q 168 972 156 972 q 189 964 181 972 q 197 944 197 956 l 197 344 q 238 193 197 263 q 347 83 278 124 q 497 42 415 42 q 648 83 579 42 q 758 193 717 124 q 799 344 799 263 l 799 944 q 806 964 799 956 q 826 972 814 972 q 929 999 897 972 q 961 1086 961 1025 q 967 1116 961 1104 q 986 1128 974 1128 q 1011 1086 1011 1128 m 321 1086 q 300 1110 300 1086 q 304 1135 300 1121 q 346 1199 315 1178 q 414 1219 376 1219 q 457 1209 435 1219 q 515 1176 479 1199 q 565 1149 547 1157 q 597 1140 582 1140 q 631 1157 618 1140 q 649 1203 644 1174 q 656 1221 650 1214 q 674 1228 663 1228 q 696 1201 696 1228 q 693 1181 696 1197 q 586 1090 672 1090 q 547 1100 568 1090 q 493 1131 526 1110 q 440 1158 457 1150 q 408 1167 424 1167 q 346 1106 364 1167 q 321 1086 340 1086 z "},"Ű":{"ha":993,"x_min":139,"x_max":854,"o":"m 826 972 q 847 964 839 972 q 854 944 854 956 l 854 344 q 806 165 854 247 q 675 35 757 83 q 497 -14 593 -14 q 318 35 400 -14 q 188 165 236 83 q 139 344 139 247 l 139 944 q 147 965 139 957 q 168 972 156 972 q 189 964 181 972 q 197 944 197 956 l 197 344 q 238 193 197 263 q 347 83 278 124 q 497 42 415 42 q 648 83 579 42 q 758 193 717 124 q 799 344 799 263 l 799 944 q 806 964 799 956 q 826 972 814 972 m 356 1018 q 344 1023 349 1018 q 340 1035 340 1028 q 347 1053 340 1042 l 433 1182 q 469 1204 446 1204 q 495 1195 485 1204 q 506 1169 506 1186 q 496 1146 506 1158 l 392 1039 q 356 1018 371 1018 m 561 1018 q 550 1023 554 1018 q 546 1035 546 1028 q 553 1053 546 1042 l 639 1182 q 675 1204 651 1204 q 701 1195 690 1204 q 711 1169 711 1186 q 701 1146 711 1158 l 597 1039 q 561 1018 576 1018 z "},"Ȗ":{"ha":993,"x_min":139,"x_max":854,"o":"m 826 972 q 847 964 839 972 q 854 944 854 956 l 854 344 q 806 165 854 247 q 675 35 757 83 q 497 -14 593 -14 q 318 35 400 -14 q 188 165 236 83 q 139 344 139 247 l 139 944 q 147 965 139 957 q 168 972 156 972 q 189 964 181 972 q 197 944 197 956 l 197 344 q 238 193 197 263 q 347 83 278 124 q 497 42 415 42 q 648 83 579 42 q 758 193 717 124 q 799 344 799 263 l 799 944 q 806 964 799 956 q 826 972 814 972 m 494 1172 q 578 1153 540 1172 q 640 1101 617 1133 q 663 1033 663 1069 q 655 1016 663 1024 q 636 1008 647 1008 q 607 1036 611 1008 q 569 1097 600 1075 q 494 1119 538 1119 q 419 1097 451 1119 q 382 1036 388 1075 q 353 1008 379 1008 q 334 1016 342 1008 q 326 1033 326 1024 q 349 1101 326 1069 q 410 1153 372 1133 q 494 1172 449 1172 z "},"Ū":{"ha":993,"x_min":139,"x_max":854,"o":"m 826 972 q 847 964 839 972 q 854 944 854 956 l 854 344 q 806 165 854 247 q 675 35 757 83 q 497 -14 593 -14 q 318 35 400 -14 q 188 165 236 83 q 139 344 139 247 l 139 944 q 147 965 139 957 q 168 972 156 972 q 189 964 181 972 q 197 944 197 956 l 197 344 q 238 193 197 263 q 347 83 278 124 q 497 42 415 42 q 648 83 579 42 q 758 193 717 124 q 799 344 799 263 l 799 944 q 806 964 799 956 q 826 972 814 972 m 322 1111 q 292 1136 292 1111 q 322 1164 292 1164 l 683 1164 q 714 1136 714 1164 q 683 1111 714 1111 l 322 1111 z "},"Ṻ":{"ha":993,"x_min":139,"x_max":854,"o":"m 826 972 q 847 964 839 972 q 854 944 854 956 l 854 344 q 806 165 854 247 q 675 35 757 83 q 497 -14 593 -14 q 318 35 400 -14 q 188 165 236 83 q 139 344 139 247 l 139 944 q 147 965 139 957 q 168 972 156 972 q 189 964 181 972 q 197 944 197 956 l 197 344 q 238 193 197 263 q 347 83 278 124 q 497 42 415 42 q 648 83 579 42 q 758 193 717 124 q 799 344 799 263 l 799 944 q 806 964 799 956 q 826 972 814 972 m 322 1111 q 292 1136 292 1111 q 322 1164 292 1164 l 683 1164 q 714 1136 714 1164 q 683 1111 714 1111 l 322 1111 m 385 1290 q 349 1304 363 1290 q 336 1340 336 1318 l 336 1351 q 350 1388 336 1374 q 386 1401 364 1401 q 419 1388 406 1401 q 432 1351 432 1374 l 432 1340 q 419 1304 432 1318 q 385 1290 406 1290 m 611 1290 q 576 1304 589 1290 q 563 1340 563 1318 l 563 1351 q 576 1388 563 1374 q 613 1401 590 1401 q 645 1388 632 1401 q 658 1351 658 1374 l 658 1340 q 645 1304 658 1318 q 611 1290 632 1290 z "},"Ų":{"ha":993,"x_min":139,"x_max":854,"o":"m 826 972 q 847 964 839 972 q 854 944 854 956 l 854 344 q 803 155 854 242 q 665 29 751 68 q 619 9 660 26 q 553 -42 579 -8 q 526 -118 526 -75 q 549 -182 526 -158 q 603 -206 572 -206 q 646 -192 638 -206 q 659 -175 653 -181 q 675 -169 665 -169 q 690 -176 685 -169 q 696 -189 696 -182 q 667 -237 696 -217 q 596 -257 639 -257 q 510 -221 547 -257 q 474 -129 474 -185 q 529 -12 474 -58 q 497 -14 518 -14 q 318 35 400 -14 q 188 165 236 83 q 139 344 139 247 l 139 944 q 147 965 139 957 q 168 972 156 972 q 189 964 181 972 q 197 944 197 956 l 197 344 q 238 193 197 263 q 347 83 278 124 q 497 42 415 42 q 650 83 581 42 q 759 193 719 124 q 799 344 799 263 l 799 944 q 806 964 799 956 q 826 972 814 972 z "},"Ů":{"ha":993,"x_min":139,"x_max":854,"o":"m 826 972 q 847 964 839 972 q 854 944 854 956 l 854 344 q 806 165 854 247 q 675 35 757 83 q 497 -14 593 -14 q 318 35 400 -14 q 188 165 236 83 q 139 344 139 247 l 139 944 q 147 965 139 957 q 168 972 156 972 q 189 964 181 972 q 197 944 197 956 l 197 344 q 238 193 197 263 q 347 83 278 124 q 497 42 415 42 q 648 83 579 42 q 758 193 717 124 q 799 344 799 263 l 799 944 q 806 964 799 956 q 826 972 814 972 m 497 1028 q 402 1066 443 1028 q 361 1158 361 1104 q 402 1251 361 1213 q 497 1289 443 1289 q 592 1251 551 1289 q 633 1158 633 1213 q 592 1066 633 1104 q 497 1028 551 1028 m 497 1072 q 558 1098 532 1072 q 583 1158 583 1124 q 558 1219 583 1194 q 497 1244 532 1244 q 436 1219 461 1244 q 411 1158 411 1194 q 436 1098 411 1124 q 497 1072 461 1072 z "},"Ũ":{"ha":993,"x_min":139,"x_max":854,"o":"m 826 972 q 847 964 839 972 q 854 944 854 956 l 854 344 q 806 165 854 247 q 675 35 757 83 q 497 -14 593 -14 q 318 35 400 -14 q 188 165 236 83 q 139 344 139 247 l 139 944 q 147 965 139 957 q 168 972 156 972 q 189 964 181 972 q 197 944 197 956 l 197 344 q 238 193 197 263 q 347 83 278 124 q 497 42 415 42 q 648 83 579 42 q 758 193 717 124 q 799 344 799 263 l 799 944 q 806 964 799 956 q 826 972 814 972 m 321 1086 q 300 1110 300 1086 q 304 1135 300 1121 q 346 1199 315 1178 q 414 1219 376 1219 q 457 1209 435 1219 q 515 1176 479 1199 q 565 1149 547 1157 q 597 1140 582 1140 q 631 1157 618 1140 q 649 1203 644 1174 q 656 1221 650 1214 q 674 1228 663 1228 q 696 1201 696 1228 q 693 1181 696 1197 q 586 1090 672 1090 q 547 1100 568 1090 q 493 1131 526 1110 q 440 1158 457 1150 q 408 1167 424 1167 q 346 1106 364 1167 q 321 1086 340 1086 z "},"Ṹ":{"ha":993,"x_min":139,"x_max":854,"o":"m 826 972 q 847 964 839 972 q 854 944 854 956 l 854 344 q 806 165 854 247 q 675 35 757 83 q 497 -14 593 -14 q 318 35 400 -14 q 188 165 236 83 q 139 344 139 247 l 139 944 q 147 965 139 957 q 168 972 156 972 q 189 964 181 972 q 197 944 197 956 l 197 344 q 238 193 197 263 q 347 83 278 124 q 497 42 415 42 q 648 83 579 42 q 758 193 717 124 q 799 344 799 263 l 799 944 q 806 964 799 956 q 826 972 814 972 m 321 1086 q 300 1110 300 1086 q 304 1135 300 1121 q 346 1199 315 1178 q 414 1219 376 1219 q 457 1209 435 1219 q 515 1176 479 1199 q 565 1149 547 1157 q 597 1140 582 1140 q 631 1157 618 1140 q 649 1203 644 1174 q 656 1221 650 1214 q 674 1228 663 1228 q 696 1201 696 1228 q 693 1181 696 1197 q 586 1090 672 1090 q 547 1100 568 1090 q 493 1131 526 1110 q 440 1158 457 1150 q 408 1167 424 1167 q 346 1106 364 1167 q 321 1086 340 1086 m 503 1294 q 490 1299 494 1294 q 486 1311 486 1304 q 499 1332 486 1322 l 624 1425 q 654 1436 638 1436 q 678 1426 669 1436 q 686 1403 686 1417 q 667 1369 686 1381 l 532 1304 q 503 1294 513 1294 z "},"V":{"ha":917,"x_min":50,"x_max":868,"o":"m 840 972 q 860 965 853 972 q 868 947 868 958 q 865 933 868 942 l 485 18 q 458 0 476 0 q 442 5 450 0 q 432 18 435 10 l 54 929 q 50 946 50 938 q 58 965 50 957 q 76 972 65 972 q 107 950 97 972 l 460 101 l 814 954 q 840 972 824 972 z "},"W":{"ha":1353,"x_min":49,"x_max":1304,"o":"m 1275 975 q 1296 968 1288 975 q 1304 949 1304 961 l 1301 935 l 983 18 q 973 5 981 10 q 958 0 965 0 q 931 17 936 0 l 676 658 l 422 17 q 393 0 415 0 q 378 5 385 0 q 369 18 371 10 l 51 935 l 49 947 q 58 967 49 960 q 79 975 68 975 q 95 970 88 975 q 106 957 103 965 l 400 107 l 650 739 q 676 757 657 757 q 692 752 685 757 q 703 739 700 747 l 954 106 l 1247 957 q 1275 975 1254 975 z "},"Ẃ":{"ha":1353,"x_min":49,"x_max":1304,"o":"m 1275 975 q 1296 968 1288 975 q 1304 949 1304 961 l 1301 935 l 983 18 q 973 5 981 10 q 958 0 965 0 q 931 17 936 0 l 676 658 l 422 17 q 393 0 415 0 q 378 5 385 0 q 369 18 371 10 l 51 935 l 49 947 q 58 967 49 960 q 79 975 68 975 q 95 970 88 975 q 106 957 103 965 l 400 107 l 650 739 q 676 757 657 757 q 692 752 685 757 q 703 739 700 747 l 954 106 l 1247 957 q 1275 975 1254 975 m 682 1039 q 669 1044 674 1039 q 665 1056 665 1049 q 678 1076 665 1067 l 803 1169 q 833 1181 817 1181 q 857 1171 849 1181 q 865 1147 865 1161 q 846 1114 865 1125 l 711 1049 q 682 1039 692 1039 z "},"Ŵ":{"ha":1353,"x_min":49,"x_max":1304,"o":"m 1275 975 q 1296 968 1288 975 q 1304 949 1304 961 l 1301 935 l 983 18 q 973 5 981 10 q 958 0 965 0 q 931 17 936 0 l 676 658 l 422 17 q 393 0 415 0 q 378 5 385 0 q 369 18 371 10 l 51 935 l 49 947 q 58 967 49 960 q 79 975 68 975 q 95 970 88 975 q 106 957 103 965 l 400 107 l 650 739 q 676 757 657 757 q 692 752 685 757 q 703 739 700 747 l 954 106 l 1247 957 q 1275 975 1254 975 m 828 1101 q 836 1085 836 1093 q 831 1073 836 1078 q 819 1068 826 1068 q 793 1082 810 1068 l 671 1176 l 557 1081 q 531 1067 540 1067 q 519 1072 524 1067 q 514 1083 514 1076 q 522 1100 514 1092 l 635 1219 q 651 1233 644 1229 q 668 1236 657 1236 l 682 1236 q 699 1233 693 1236 q 715 1219 706 1229 l 828 1101 z "},"Ẅ":{"ha":1353,"x_min":49,"x_max":1304,"o":"m 1275 975 q 1296 968 1288 975 q 1304 949 1304 961 l 1301 935 l 983 18 q 973 5 981 10 q 958 0 965 0 q 931 17 936 0 l 676 658 l 422 17 q 393 0 415 0 q 378 5 385 0 q 369 18 371 10 l 51 935 l 49 947 q 58 967 49 960 q 79 975 68 975 q 95 970 88 975 q 106 957 103 965 l 400 107 l 650 739 q 676 757 657 757 q 692 752 685 757 q 703 739 700 747 l 954 106 l 1247 957 q 1275 975 1254 975 m 564 1083 q 528 1097 542 1083 q 515 1133 515 1111 l 515 1144 q 529 1181 515 1167 q 565 1194 543 1194 q 598 1181 585 1194 q 611 1144 611 1167 l 611 1133 q 598 1097 611 1111 q 564 1083 585 1083 m 790 1083 q 755 1097 768 1083 q 742 1133 742 1111 l 742 1144 q 756 1181 742 1167 q 792 1194 769 1194 q 824 1181 811 1194 q 838 1144 838 1167 l 838 1133 q 824 1097 838 1111 q 790 1083 811 1083 z "},"Ẁ":{"ha":1353,"x_min":49,"x_max":1304,"o":"m 1275 975 q 1296 968 1288 975 q 1304 949 1304 961 l 1301 935 l 983 18 q 973 5 981 10 q 958 0 965 0 q 931 17 936 0 l 676 658 l 422 17 q 393 0 415 0 q 378 5 385 0 q 369 18 371 10 l 51 935 l 49 947 q 58 967 49 960 q 79 975 68 975 q 95 970 88 975 q 106 957 103 965 l 400 107 l 650 739 q 676 757 657 757 q 692 752 685 757 q 703 739 700 747 l 954 106 l 1247 957 q 1275 975 1254 975 m 676 1039 q 647 1049 667 1039 l 513 1114 q 493 1147 493 1125 q 501 1171 493 1161 q 525 1181 510 1181 q 556 1169 542 1181 l 681 1076 q 693 1056 693 1067 q 689 1044 693 1049 q 676 1039 685 1039 z "},"X":{"ha":818,"x_min":42,"x_max":776,"o":"m 769 40 q 776 24 776 31 q 768 3 776 11 q 747 -4 760 -4 q 725 7 732 -4 l 407 440 l 90 7 q 69 -4 83 -4 q 50 3 57 -4 q 43 19 43 11 q 50 38 43 26 l 376 483 l 47 932 q 42 949 42 939 q 50 969 42 961 q 69 976 58 976 q 93 965 86 976 l 411 531 l 728 967 q 749 978 736 978 q 769 972 761 978 q 776 956 776 965 q 769 936 776 946 l 443 486 l 769 40 z "},"Y":{"ha":760,"x_min":28,"x_max":732,"o":"m 732 951 q 726 933 732 944 l 410 503 l 410 28 q 401 8 410 17 q 381 0 393 0 q 360 8 368 0 q 351 28 351 17 l 351 497 l 33 933 q 28 951 28 940 q 37 969 28 961 q 57 978 46 978 q 81 965 72 978 l 381 556 l 681 965 q 704 978 689 978 q 724 969 717 978 q 732 951 732 960 z "},"Ý":{"ha":760,"x_min":28,"x_max":732,"o":"m 732 951 q 726 933 732 944 l 410 503 l 410 28 q 401 8 410 17 q 381 0 393 0 q 360 8 368 0 q 351 28 351 17 l 351 497 l 33 933 q 28 951 28 940 q 37 969 28 961 q 57 978 46 978 q 81 965 72 978 l 381 556 l 681 965 q 704 978 689 978 q 724 969 717 978 q 732 951 732 960 m 386 1039 q 374 1044 378 1039 q 369 1056 369 1049 q 382 1076 369 1067 l 507 1169 q 538 1181 521 1181 q 561 1171 553 1181 q 569 1147 569 1161 q 550 1114 569 1125 l 415 1049 q 386 1039 396 1039 z "},"Ŷ":{"ha":760,"x_min":28,"x_max":732,"o":"m 732 951 q 726 933 732 944 l 410 503 l 410 28 q 401 8 410 17 q 381 0 393 0 q 360 8 368 0 q 351 28 351 17 l 351 497 l 33 933 q 28 951 28 940 q 37 969 28 961 q 57 978 46 978 q 81 965 72 978 l 381 556 l 681 965 q 704 978 689 978 q 724 969 717 978 q 732 951 732 960 m 532 1101 q 540 1085 540 1093 q 535 1073 540 1078 q 524 1068 531 1068 q 497 1082 514 1068 l 375 1176 l 261 1081 q 235 1067 244 1067 q 223 1072 228 1067 q 218 1083 218 1076 q 226 1100 218 1092 l 339 1219 q 355 1233 349 1229 q 372 1236 361 1236 l 386 1236 q 403 1233 397 1236 q 419 1219 410 1229 l 532 1101 z "},"Ÿ":{"ha":760,"x_min":28,"x_max":732,"o":"m 732 951 q 726 933 732 944 l 410 503 l 410 28 q 401 8 410 17 q 381 0 393 0 q 360 8 368 0 q 351 28 351 17 l 351 497 l 33 933 q 28 951 28 940 q 37 969 28 961 q 57 978 46 978 q 81 965 72 978 l 381 556 l 681 965 q 704 978 689 978 q 724 969 717 978 q 732 951 732 960 m 268 1083 q 233 1097 246 1083 q 219 1133 219 1111 l 219 1144 q 233 1181 219 1167 q 269 1194 247 1194 q 302 1181 289 1194 q 315 1144 315 1167 l 315 1133 q 302 1097 315 1111 q 268 1083 289 1083 m 494 1083 q 459 1097 472 1083 q 446 1133 446 1111 l 446 1144 q 460 1181 446 1167 q 496 1194 474 1194 q 528 1181 515 1194 q 542 1144 542 1167 l 542 1133 q 528 1097 542 1111 q 494 1083 515 1083 z "},"Ẏ":{"ha":760,"x_min":28,"x_max":732,"o":"m 732 951 q 726 933 732 944 l 410 503 l 410 28 q 401 8 410 17 q 381 0 393 0 q 360 8 368 0 q 351 28 351 17 l 351 497 l 33 933 q 28 951 28 940 q 37 969 28 961 q 57 978 46 978 q 81 965 72 978 l 381 556 l 681 965 q 704 978 689 978 q 724 969 717 978 q 732 951 732 960 m 381 1083 q 345 1097 358 1083 q 332 1133 332 1111 l 332 1144 q 346 1181 332 1167 q 382 1194 360 1194 q 415 1181 401 1194 q 428 1144 428 1167 l 428 1133 q 415 1097 428 1111 q 381 1083 401 1083 z "},"Ỵ":{"ha":760,"x_min":28,"x_max":732,"o":"m 732 951 q 726 933 732 944 l 410 503 l 410 28 q 401 8 410 17 q 381 0 393 0 q 360 8 368 0 q 351 28 351 17 l 351 497 l 33 933 q 28 951 28 940 q 37 969 28 961 q 57 978 46 978 q 81 965 72 978 l 381 556 l 681 965 q 704 978 689 978 q 724 969 717 978 q 732 951 732 960 m 381 -190 q 345 -176 358 -190 q 332 -140 332 -162 l 332 -129 q 346 -93 332 -107 q 382 -79 360 -79 q 415 -93 401 -79 q 428 -129 428 -107 l 428 -140 q 415 -176 428 -162 q 381 -190 401 -190 z "},"Ỳ":{"ha":760,"x_min":28,"x_max":732,"o":"m 732 951 q 726 933 732 944 l 410 503 l 410 28 q 401 8 410 17 q 381 0 393 0 q 360 8 368 0 q 351 28 351 17 l 351 497 l 33 933 q 28 951 28 940 q 37 969 28 961 q 57 978 46 978 q 81 965 72 978 l 381 556 l 681 965 q 704 978 689 978 q 724 969 717 978 q 732 951 732 960 m 381 1039 q 351 1049 371 1039 l 217 1114 q 197 1147 197 1125 q 206 1171 197 1161 q 229 1181 214 1181 q 260 1169 246 1181 l 385 1076 q 397 1056 397 1067 q 393 1044 397 1049 q 381 1039 389 1039 z "},"Ỷ":{"ha":760,"x_min":28,"x_max":732,"o":"m 732 951 q 726 933 732 944 l 410 503 l 410 28 q 401 8 410 17 q 381 0 393 0 q 360 8 368 0 q 351 28 351 17 l 351 497 l 33 933 q 28 951 28 940 q 37 969 28 961 q 57 978 46 978 q 81 965 72 978 l 381 556 l 681 965 q 704 978 689 978 q 724 969 717 978 q 732 951 732 960 m 283 1242 q 385 1286 328 1286 q 462 1256 436 1286 q 488 1190 488 1226 q 475 1149 488 1168 q 435 1103 463 1131 q 422 1071 424 1092 q 415 1056 421 1061 q 399 1051 408 1051 q 382 1058 388 1051 q 376 1074 376 1064 q 396 1129 376 1108 q 415 1149 403 1136 q 433 1172 428 1163 q 439 1192 439 1181 q 424 1223 439 1210 q 388 1236 408 1236 q 322 1210 357 1236 q 297 1199 308 1199 q 279 1207 288 1199 q 274 1222 274 1215 q 283 1242 274 1232 z "},"Ȳ":{"ha":760,"x_min":28,"x_max":732,"o":"m 732 951 q 726 933 732 944 l 410 503 l 410 28 q 401 8 410 17 q 381 0 393 0 q 360 8 368 0 q 351 28 351 17 l 351 497 l 33 933 q 28 951 28 940 q 37 969 28 961 q 57 978 46 978 q 81 965 72 978 l 381 556 l 681 965 q 704 978 689 978 q 724 969 717 978 q 732 951 732 960 m 206 1111 q 175 1136 175 1111 q 206 1164 175 1164 l 567 1164 q 597 1136 597 1164 q 567 1111 597 1111 l 206 1111 z "},"Ỹ":{"ha":760,"x_min":28,"x_max":732,"o":"m 732 951 q 726 933 732 944 l 410 503 l 410 28 q 401 8 410 17 q 381 0 393 0 q 360 8 368 0 q 351 28 351 17 l 351 497 l 33 933 q 28 951 28 940 q 37 969 28 961 q 57 978 46 978 q 81 965 72 978 l 381 556 l 681 965 q 704 978 689 978 q 724 969 717 978 q 732 951 732 960 m 204 1086 q 183 1110 183 1086 q 188 1135 183 1121 q 229 1199 199 1178 q 297 1219 260 1219 q 340 1209 318 1219 q 399 1176 363 1199 q 448 1149 431 1157 q 481 1140 465 1140 q 515 1157 501 1140 q 532 1203 528 1174 q 540 1221 533 1214 q 557 1228 546 1228 q 579 1201 579 1228 q 576 1181 579 1197 q 469 1090 556 1090 q 431 1100 451 1090 q 376 1131 410 1110 q 324 1158 340 1150 q 292 1167 307 1167 q 229 1106 247 1167 q 204 1086 224 1086 z "},"Z":{"ha":893,"x_min":83,"x_max":824,"o":"m 794 53 q 814 44 806 53 q 822 26 822 36 q 814 8 822 15 q 794 0 806 0 l 111 0 q 91 9 99 0 q 83 29 83 18 q 89 46 83 39 l 744 919 l 139 919 q 119 927 128 919 q 111 946 111 935 q 119 965 111 957 q 139 972 128 972 l 792 972 q 816 964 808 972 q 824 944 824 956 q 818 928 824 935 l 164 53 l 794 53 z "},"Ź":{"ha":893,"x_min":83,"x_max":824,"o":"m 794 53 q 814 44 806 53 q 822 26 822 36 q 814 8 822 15 q 794 0 806 0 l 111 0 q 91 9 99 0 q 83 29 83 18 q 89 46 83 39 l 744 919 l 139 919 q 119 927 128 919 q 111 946 111 935 q 119 965 111 957 q 139 972 128 972 l 792 972 q 816 964 808 972 q 824 944 824 956 q 818 928 824 935 l 164 53 l 794 53 m 453 1039 q 440 1044 444 1039 q 436 1056 436 1049 q 449 1076 436 1067 l 574 1169 q 604 1181 588 1181 q 628 1171 619 1181 q 636 1147 636 1161 q 617 1114 636 1125 l 482 1049 q 453 1039 463 1039 z "},"Ž":{"ha":893,"x_min":83,"x_max":824,"o":"m 794 53 q 814 44 806 53 q 822 26 822 36 q 814 8 822 15 q 794 0 806 0 l 111 0 q 91 9 99 0 q 83 29 83 18 q 89 46 83 39 l 744 919 l 139 919 q 119 927 128 919 q 111 946 111 935 q 119 965 111 957 q 139 972 128 972 l 792 972 q 816 964 808 972 q 824 944 824 956 q 818 928 824 935 l 164 53 l 794 53 m 590 1224 q 602 1219 597 1224 q 607 1207 607 1214 q 599 1190 607 1199 l 486 1071 q 453 1054 475 1054 l 439 1054 q 406 1071 417 1054 l 293 1189 q 285 1206 285 1197 q 290 1217 285 1213 q 301 1222 294 1222 q 328 1208 311 1222 l 450 1114 l 564 1210 q 590 1224 581 1224 z "},"Ż":{"ha":893,"x_min":83,"x_max":824,"o":"m 794 53 q 814 44 806 53 q 822 26 822 36 q 814 8 822 15 q 794 0 806 0 l 111 0 q 91 9 99 0 q 83 29 83 18 q 89 46 83 39 l 744 919 l 139 919 q 119 927 128 919 q 111 946 111 935 q 119 965 111 957 q 139 972 128 972 l 792 972 q 816 964 808 972 q 824 944 824 956 q 818 928 824 935 l 164 53 l 794 53 m 447 1083 q 412 1097 425 1083 q 399 1133 399 1111 l 399 1144 q 413 1181 399 1167 q 449 1194 426 1194 q 481 1181 468 1194 q 494 1144 494 1167 l 494 1133 q 481 1097 494 1111 q 447 1083 468 1083 z "},"Ẓ":{"ha":893,"x_min":83,"x_max":824,"o":"m 794 53 q 814 44 806 53 q 822 26 822 36 q 814 8 822 15 q 794 0 806 0 l 111 0 q 91 9 99 0 q 83 29 83 18 q 89 46 83 39 l 744 919 l 139 919 q 119 927 128 919 q 111 946 111 935 q 119 965 111 957 q 139 972 128 972 l 792 972 q 816 964 808 972 q 824 944 824 956 q 818 928 824 935 l 164 53 l 794 53 m 447 -190 q 412 -176 425 -190 q 399 -140 399 -162 l 399 -129 q 413 -93 399 -107 q 449 -79 426 -79 q 481 -93 468 -79 q 494 -129 494 -107 l 494 -140 q 481 -176 494 -162 q 447 -190 468 -190 z "},"a":{"ha":826,"x_min":67,"x_max":711,"o":"m 683 693 q 703 685 696 693 q 711 665 711 676 l 711 28 q 703 8 711 17 q 683 0 694 0 q 663 8 671 0 q 656 28 656 17 l 656 153 q 549 34 621 82 q 389 -14 476 -14 q 224 34 297 -14 q 108 166 150 82 q 67 354 67 250 q 109 540 67 457 q 225 669 151 622 q 389 715 299 715 q 551 668 479 715 q 656 542 624 621 l 656 665 q 663 685 656 676 q 683 693 671 693 m 392 39 q 530 80 468 39 q 626 193 592 121 q 661 354 661 265 q 626 510 661 439 q 530 622 592 581 q 392 663 468 663 q 253 623 315 663 q 157 513 192 583 q 122 354 122 443 q 157 193 122 265 q 253 80 192 121 q 392 39 314 39 z "},"á":{"ha":826,"x_min":67,"x_max":711,"o":"m 683 693 q 703 685 696 693 q 711 665 711 676 l 711 28 q 703 8 711 17 q 683 0 694 0 q 663 8 671 0 q 656 28 656 17 l 656 153 q 549 34 621 82 q 389 -14 476 -14 q 224 34 297 -14 q 108 166 150 82 q 67 354 67 250 q 109 540 67 457 q 225 669 151 622 q 389 715 299 715 q 551 668 479 715 q 656 542 624 621 l 656 665 q 663 685 656 676 q 683 693 671 693 m 392 39 q 530 80 468 39 q 626 193 592 121 q 661 354 661 265 q 626 510 661 439 q 530 622 592 581 q 392 663 468 663 q 253 623 315 663 q 157 513 192 583 q 122 354 122 443 q 157 193 122 265 q 253 80 192 121 q 392 39 314 39 m 375 758 q 364 763 368 758 q 360 775 360 768 q 367 793 360 782 l 453 922 q 489 944 465 944 q 515 935 504 944 q 525 910 525 926 q 515 886 525 899 l 411 779 q 375 758 390 758 z "},"ă":{"ha":826,"x_min":67,"x_max":711,"o":"m 683 693 q 703 685 696 693 q 711 665 711 676 l 711 28 q 703 8 711 17 q 683 0 694 0 q 663 8 671 0 q 656 28 656 17 l 656 153 q 549 34 621 82 q 389 -14 476 -14 q 224 34 297 -14 q 108 166 150 82 q 67 354 67 250 q 109 540 67 457 q 225 669 151 622 q 389 715 299 715 q 551 668 479 715 q 656 542 624 621 l 656 665 q 663 685 656 676 q 683 693 671 693 m 392 39 q 530 80 468 39 q 626 193 592 121 q 661 354 661 265 q 626 510 661 439 q 530 622 592 581 q 392 663 468 663 q 253 623 315 663 q 157 513 192 583 q 122 354 122 443 q 157 193 122 265 q 253 80 192 121 q 392 39 314 39 m 386 796 q 302 822 340 796 q 241 889 264 847 q 218 976 218 931 q 226 994 218 986 q 244 1001 233 1001 q 274 974 271 1001 q 311 882 279 915 q 386 849 343 849 q 460 883 429 849 q 499 974 492 917 q 528 1001 503 1001 q 547 994 539 1001 q 554 976 554 986 q 531 889 554 931 q 470 822 508 847 q 386 796 432 796 z "},"ắ":{"ha":826,"x_min":67,"x_max":711,"o":"m 683 693 q 703 685 696 693 q 711 665 711 676 l 711 28 q 703 8 711 17 q 683 0 694 0 q 663 8 671 0 q 656 28 656 17 l 656 153 q 549 34 621 82 q 389 -14 476 -14 q 224 34 297 -14 q 108 166 150 82 q 67 354 67 250 q 109 540 67 457 q 225 669 151 622 q 389 715 299 715 q 551 668 479 715 q 656 542 624 621 l 656 665 q 663 685 656 676 q 683 693 671 693 m 392 39 q 530 80 468 39 q 626 193 592 121 q 661 354 661 265 q 626 510 661 439 q 530 622 592 581 q 392 663 468 663 q 253 623 315 663 q 157 513 192 583 q 122 354 122 443 q 157 193 122 265 q 253 80 192 121 q 392 39 314 39 m 404 810 q 320 835 358 810 q 259 903 282 861 q 236 990 236 944 q 244 1008 236 1000 q 263 1015 251 1015 q 292 988 289 1015 q 329 896 297 929 q 404 863 361 863 q 478 897 447 863 q 517 988 510 931 q 546 1015 521 1015 q 565 1008 557 1015 q 572 990 572 1000 q 549 903 572 944 q 488 835 526 861 q 404 810 450 810 m 393 992 q 382 997 386 992 q 378 1008 378 1001 q 385 1026 378 1015 l 471 1156 q 507 1178 483 1178 q 533 1169 522 1178 q 543 1143 543 1160 q 533 1119 543 1132 l 429 1013 q 393 992 408 992 z "},"ặ":{"ha":826,"x_min":67,"x_max":711,"o":"m 683 693 q 703 685 696 693 q 711 665 711 676 l 711 28 q 703 8 711 17 q 683 0 694 0 q 663 8 671 0 q 656 28 656 17 l 656 153 q 549 34 621 82 q 389 -14 476 -14 q 224 34 297 -14 q 108 166 150 82 q 67 354 67 250 q 109 540 67 457 q 225 669 151 622 q 389 715 299 715 q 551 668 479 715 q 656 542 624 621 l 656 665 q 663 685 656 676 q 683 693 671 693 m 392 39 q 530 80 468 39 q 626 193 592 121 q 661 354 661 265 q 626 510 661 439 q 530 622 592 581 q 392 663 468 663 q 253 623 315 663 q 157 513 192 583 q 122 354 122 443 q 157 193 122 265 q 253 80 192 121 q 392 39 314 39 m 386 -181 q 351 -168 364 -181 q 338 -136 338 -156 l 338 -125 q 351 -93 338 -106 q 388 -81 365 -81 q 420 -93 407 -81 q 433 -125 433 -106 l 433 -136 q 420 -168 433 -156 q 386 -181 407 -181 m 386 796 q 302 822 340 796 q 241 889 264 847 q 218 976 218 931 q 226 994 218 986 q 244 1001 233 1001 q 274 974 271 1001 q 311 882 279 915 q 386 849 343 849 q 460 883 429 849 q 499 974 492 917 q 528 1001 503 1001 q 547 994 539 1001 q 554 976 554 986 q 531 889 554 931 q 470 822 508 847 q 386 796 432 796 z "},"ằ":{"ha":826,"x_min":67,"x_max":711,"o":"m 683 693 q 703 685 696 693 q 711 665 711 676 l 711 28 q 703 8 711 17 q 683 0 694 0 q 663 8 671 0 q 656 28 656 17 l 656 153 q 549 34 621 82 q 389 -14 476 -14 q 224 34 297 -14 q 108 166 150 82 q 67 354 67 250 q 109 540 67 457 q 225 669 151 622 q 389 715 299 715 q 551 668 479 715 q 656 542 624 621 l 656 665 q 663 685 656 676 q 683 693 671 693 m 392 39 q 530 80 468 39 q 626 193 592 121 q 661 354 661 265 q 626 510 661 439 q 530 622 592 581 q 392 663 468 663 q 253 623 315 663 q 157 513 192 583 q 122 354 122 443 q 157 193 122 265 q 253 80 192 121 q 392 39 314 39 m 400 811 q 316 837 354 811 q 255 904 278 863 q 232 992 232 946 q 240 1009 232 1001 q 258 1017 247 1017 q 288 989 285 1017 q 325 897 293 931 q 400 864 357 864 q 474 898 443 864 q 513 989 506 932 q 542 1017 517 1017 q 560 1009 553 1017 q 568 992 568 1001 q 545 904 568 946 q 484 837 522 863 q 400 811 446 811 m 415 992 q 379 1013 400 992 l 281 1122 q 271 1146 271 1135 q 301 1178 271 1178 q 338 1156 325 1178 l 424 1026 q 431 1008 431 1015 q 426 997 431 1001 q 415 992 422 992 z "},"ẳ":{"ha":826,"x_min":67,"x_max":711,"o":"m 683 693 q 703 685 696 693 q 711 665 711 676 l 711 28 q 703 8 711 17 q 683 0 694 0 q 663 8 671 0 q 656 28 656 17 l 656 153 q 549 34 621 82 q 389 -14 476 -14 q 224 34 297 -14 q 108 166 150 82 q 67 354 67 250 q 109 540 67 457 q 225 669 151 622 q 389 715 299 715 q 551 668 479 715 q 656 542 624 621 l 656 665 q 663 685 656 676 q 683 693 671 693 m 392 39 q 530 80 468 39 q 626 193 592 121 q 661 354 661 265 q 626 510 661 439 q 530 622 592 581 q 392 663 468 663 q 253 623 315 663 q 157 513 192 583 q 122 354 122 443 q 157 193 122 265 q 253 80 192 121 q 392 39 314 39 m 400 785 q 316 810 354 785 q 255 878 278 836 q 232 965 232 919 q 240 983 232 975 q 258 990 247 990 q 288 963 285 990 q 325 871 293 904 q 400 838 357 838 q 474 872 443 838 q 513 963 506 906 q 542 990 517 990 q 560 983 553 990 q 568 965 568 975 q 545 878 568 919 q 484 810 522 836 q 400 785 446 785 m 286 1126 q 388 1171 331 1171 q 465 1141 439 1171 q 490 1075 490 1111 q 478 1034 490 1053 q 438 988 465 1015 q 425 956 426 976 q 417 941 424 946 q 401 936 411 936 q 385 942 390 936 q 379 958 379 949 q 399 1014 379 993 q 418 1034 406 1021 q 436 1056 431 1047 q 442 1076 442 1065 q 426 1108 442 1094 q 390 1121 411 1121 q 325 1094 360 1121 q 300 1083 311 1083 q 282 1092 290 1083 q 276 1107 276 1100 q 286 1126 276 1117 z "},"ẵ":{"ha":826,"x_min":67,"x_max":711,"o":"m 683 693 q 703 685 696 693 q 711 665 711 676 l 711 28 q 703 8 711 17 q 683 0 694 0 q 663 8 671 0 q 656 28 656 17 l 656 153 q 549 34 621 82 q 389 -14 476 -14 q 224 34 297 -14 q 108 166 150 82 q 67 354 67 250 q 109 540 67 457 q 225 669 151 622 q 389 715 299 715 q 551 668 479 715 q 656 542 624 621 l 656 665 q 663 685 656 676 q 683 693 671 693 m 392 39 q 530 80 468 39 q 626 193 592 121 q 661 354 661 265 q 626 510 661 439 q 530 622 592 581 q 392 663 468 663 q 253 623 315 663 q 157 513 192 583 q 122 354 122 443 q 157 193 122 265 q 253 80 192 121 q 392 39 314 39 m 403 783 q 319 809 357 783 q 258 876 281 835 q 235 964 235 918 q 242 981 235 974 q 261 989 250 989 q 290 961 288 989 q 328 869 296 903 q 403 836 360 836 q 477 870 446 836 q 515 961 508 904 q 544 989 519 989 q 563 981 556 989 q 571 964 571 974 q 548 876 571 918 q 487 809 525 835 q 403 783 449 783 m 240 1068 q 218 1088 218 1068 q 224 1117 218 1092 q 265 1181 235 1160 q 333 1201 296 1201 q 378 1191 354 1201 q 435 1160 401 1181 q 483 1134 464 1143 q 517 1125 501 1125 q 567 1185 558 1125 q 575 1203 568 1196 q 593 1210 582 1210 q 617 1189 617 1210 q 615 1175 617 1182 q 613 1163 614 1168 q 506 1072 593 1072 q 465 1082 488 1072 q 413 1111 443 1092 q 386 1126 406 1115 q 353 1141 367 1136 q 328 1146 339 1146 q 267 1088 283 1146 q 240 1068 261 1068 z "},"ǎ":{"ha":826,"x_min":67,"x_max":711,"o":"m 683 693 q 703 685 696 693 q 711 665 711 676 l 711 28 q 703 8 711 17 q 683 0 694 0 q 663 8 671 0 q 656 28 656 17 l 656 153 q 549 34 621 82 q 389 -14 476 -14 q 224 34 297 -14 q 108 166 150 82 q 67 354 67 250 q 109 540 67 457 q 225 669 151 622 q 389 715 299 715 q 551 668 479 715 q 656 542 624 621 l 656 665 q 663 685 656 676 q 683 693 671 693 m 392 39 q 530 80 468 39 q 626 193 592 121 q 661 354 661 265 q 626 510 661 439 q 530 622 592 581 q 392 663 468 663 q 253 623 315 663 q 157 513 192 583 q 122 354 122 443 q 157 193 122 265 q 253 80 192 121 q 392 39 314 39 m 543 944 q 555 940 550 944 q 560 928 560 935 q 551 911 560 919 l 439 792 q 406 775 428 775 l 392 775 q 358 792 369 775 l 246 910 q 238 926 238 918 q 242 938 238 933 q 254 943 247 943 q 281 929 264 943 l 403 835 l 517 931 q 543 944 533 944 z "},"â":{"ha":826,"x_min":67,"x_max":711,"o":"m 683 693 q 703 685 696 693 q 711 665 711 676 l 711 28 q 703 8 711 17 q 683 0 694 0 q 663 8 671 0 q 656 28 656 17 l 656 153 q 549 34 621 82 q 389 -14 476 -14 q 224 34 297 -14 q 108 166 150 82 q 67 354 67 250 q 109 540 67 457 q 225 669 151 622 q 389 715 299 715 q 551 668 479 715 q 656 542 624 621 l 656 665 q 663 685 656 676 q 683 693 671 693 m 392 39 q 530 80 468 39 q 626 193 592 121 q 661 354 661 265 q 626 510 661 439 q 530 622 592 581 q 392 663 468 663 q 253 623 315 663 q 157 513 192 583 q 122 354 122 443 q 157 193 122 265 q 253 80 192 121 q 392 39 314 39 m 556 822 q 564 806 564 814 q 559 794 564 799 q 547 789 554 789 q 521 803 538 789 l 399 897 l 285 801 q 258 788 268 788 q 247 792 251 788 q 242 804 242 797 q 250 821 242 813 l 363 940 q 396 957 374 957 l 410 957 q 443 940 432 957 l 556 822 z "},"ấ":{"ha":826,"x_min":67,"x_max":711,"o":"m 683 693 q 703 685 696 693 q 711 665 711 676 l 711 28 q 703 8 711 17 q 683 0 694 0 q 663 8 671 0 q 656 28 656 17 l 656 153 q 549 34 621 82 q 389 -14 476 -14 q 224 34 297 -14 q 108 166 150 82 q 67 354 67 250 q 109 540 67 457 q 225 669 151 622 q 389 715 299 715 q 551 668 479 715 q 656 542 624 621 l 656 665 q 663 685 656 676 q 683 693 671 693 m 392 39 q 530 80 468 39 q 626 193 592 121 q 661 354 661 265 q 626 510 661 439 q 530 622 592 581 q 392 663 468 663 q 253 623 315 663 q 157 513 192 583 q 122 354 122 443 q 157 193 122 265 q 253 80 192 121 q 392 39 314 39 m 544 815 q 553 799 553 807 q 548 787 553 792 q 536 782 543 782 q 510 796 526 782 l 388 890 l 274 794 q 247 781 257 781 q 235 785 240 781 q 231 797 231 790 q 239 814 231 806 l 351 933 q 385 950 363 950 l 399 950 q 432 933 421 950 l 544 815 m 538 897 q 526 902 531 897 q 522 914 522 907 q 529 932 522 921 l 615 1061 q 651 1083 628 1083 q 677 1074 667 1083 q 688 1049 688 1065 q 678 1025 688 1038 l 574 918 q 538 897 553 897 z "},"ậ":{"ha":826,"x_min":67,"x_max":711,"o":"m 683 693 q 703 685 696 693 q 711 665 711 676 l 711 28 q 703 8 711 17 q 683 0 694 0 q 663 8 671 0 q 656 28 656 17 l 656 153 q 549 34 621 82 q 389 -14 476 -14 q 224 34 297 -14 q 108 166 150 82 q 67 354 67 250 q 109 540 67 457 q 225 669 151 622 q 389 715 299 715 q 551 668 479 715 q 656 542 624 621 l 656 665 q 663 685 656 676 q 683 693 671 693 m 392 39 q 530 80 468 39 q 626 193 592 121 q 661 354 661 265 q 626 510 661 439 q 530 622 592 581 q 392 663 468 663 q 253 623 315 663 q 157 513 192 583 q 122 354 122 443 q 157 193 122 265 q 253 80 192 121 q 392 39 314 39 m 386 -181 q 351 -168 364 -181 q 338 -136 338 -156 l 338 -125 q 351 -93 338 -106 q 388 -81 365 -81 q 420 -93 407 -81 q 433 -125 433 -106 l 433 -136 q 420 -168 433 -156 q 386 -181 407 -181 m 556 822 q 564 806 564 814 q 559 794 564 799 q 547 789 554 789 q 521 803 538 789 l 399 897 l 285 801 q 258 788 268 788 q 247 792 251 788 q 242 804 242 797 q 250 821 242 813 l 363 940 q 396 957 374 957 l 410 957 q 443 940 432 957 l 556 822 z "},"ầ":{"ha":826,"x_min":67,"x_max":711,"o":"m 683 693 q 703 685 696 693 q 711 665 711 676 l 711 28 q 703 8 711 17 q 683 0 694 0 q 663 8 671 0 q 656 28 656 17 l 656 153 q 549 34 621 82 q 389 -14 476 -14 q 224 34 297 -14 q 108 166 150 82 q 67 354 67 250 q 109 540 67 457 q 225 669 151 622 q 389 715 299 715 q 551 668 479 715 q 656 542 624 621 l 656 665 q 663 685 656 676 q 683 693 671 693 m 392 39 q 530 80 468 39 q 626 193 592 121 q 661 354 661 265 q 626 510 661 439 q 530 622 592 581 q 392 663 468 663 q 253 623 315 663 q 157 513 192 583 q 122 354 122 443 q 157 193 122 265 q 253 80 192 121 q 392 39 314 39 m 533 815 q 542 799 542 807 q 537 787 542 792 q 525 782 532 782 q 499 796 515 782 l 376 890 l 263 794 q 236 781 246 781 q 224 785 229 781 q 219 797 219 790 q 228 814 219 806 l 340 933 q 374 950 351 950 l 388 950 q 421 933 410 950 l 533 815 m 553 911 q 517 932 538 911 l 418 1042 q 408 1065 408 1054 q 439 1097 408 1097 q 475 1075 463 1097 l 561 946 q 568 928 568 935 q 564 916 568 921 q 553 911 560 911 z "},"ẩ":{"ha":826,"x_min":67,"x_max":711,"o":"m 683 693 q 703 685 696 693 q 711 665 711 676 l 711 28 q 703 8 711 17 q 683 0 694 0 q 663 8 671 0 q 656 28 656 17 l 656 153 q 549 34 621 82 q 389 -14 476 -14 q 224 34 297 -14 q 108 166 150 82 q 67 354 67 250 q 109 540 67 457 q 225 669 151 622 q 389 715 299 715 q 551 668 479 715 q 656 542 624 621 l 656 665 q 663 685 656 676 q 683 693 671 693 m 392 39 q 530 80 468 39 q 626 193 592 121 q 661 354 661 265 q 626 510 661 439 q 530 622 592 581 q 392 663 468 663 q 253 623 315 663 q 157 513 192 583 q 122 354 122 443 q 157 193 122 265 q 253 80 192 121 q 392 39 314 39 m 550 832 q 558 815 558 824 q 553 803 558 808 q 542 799 549 799 q 515 813 532 799 l 393 907 l 279 811 q 253 797 263 797 q 241 802 246 797 q 236 814 236 807 q 244 831 236 822 l 357 950 q 390 967 368 967 l 404 967 q 438 950 426 967 l 550 832 m 485 1063 q 586 1107 529 1107 q 663 1077 638 1107 q 689 1011 689 1047 q 676 970 689 989 q 636 924 664 951 q 624 892 625 913 q 616 877 622 882 q 600 872 610 872 q 583 878 589 872 q 578 894 578 885 q 597 950 578 929 q 617 970 604 957 q 635 992 629 983 q 640 1013 640 1001 q 625 1044 640 1031 q 589 1057 610 1057 q 524 1031 558 1057 q 499 1019 510 1019 q 481 1028 489 1019 q 475 1043 475 1036 q 485 1063 475 1053 z "},"ẫ":{"ha":826,"x_min":67,"x_max":711,"o":"m 683 693 q 703 685 696 693 q 711 665 711 676 l 711 28 q 703 8 711 17 q 683 0 694 0 q 663 8 671 0 q 656 28 656 17 l 656 153 q 549 34 621 82 q 389 -14 476 -14 q 224 34 297 -14 q 108 166 150 82 q 67 354 67 250 q 109 540 67 457 q 225 669 151 622 q 389 715 299 715 q 551 668 479 715 q 656 542 624 621 l 656 665 q 663 685 656 676 q 683 693 671 693 m 392 39 q 530 80 468 39 q 626 193 592 121 q 661 354 661 265 q 626 510 661 439 q 530 622 592 581 q 392 663 468 663 q 253 623 315 663 q 157 513 192 583 q 122 354 122 443 q 157 193 122 265 q 253 80 192 121 q 392 39 314 39 m 556 815 q 564 799 564 807 q 559 787 564 792 q 547 782 554 782 q 521 796 538 782 l 399 890 l 285 794 q 258 781 268 781 q 247 785 251 781 q 242 797 242 790 q 250 814 242 806 l 363 933 q 396 950 374 950 l 410 950 q 443 933 432 950 l 556 815 m 229 964 q 207 983 207 964 q 213 1013 207 988 q 254 1076 224 1056 q 322 1097 285 1097 q 367 1087 343 1097 q 424 1056 390 1076 q 472 1030 453 1039 q 506 1021 490 1021 q 556 1081 547 1021 q 564 1099 557 1092 q 582 1106 571 1106 q 606 1085 606 1106 q 604 1071 606 1078 q 601 1058 603 1064 q 494 968 582 968 q 454 978 476 968 q 401 1007 432 988 q 375 1022 394 1011 q 342 1037 356 1032 q 317 1042 328 1042 q 256 983 272 1042 q 229 964 250 964 z "},"ȁ":{"ha":826,"x_min":67,"x_max":711,"o":"m 683 693 q 703 685 696 693 q 711 665 711 676 l 711 28 q 703 8 711 17 q 683 0 694 0 q 663 8 671 0 q 656 28 656 17 l 656 153 q 549 34 621 82 q 389 -14 476 -14 q 224 34 297 -14 q 108 166 150 82 q 67 354 67 250 q 109 540 67 457 q 225 669 151 622 q 389 715 299 715 q 551 668 479 715 q 656 542 624 621 l 656 665 q 663 685 656 676 q 683 693 671 693 m 392 39 q 530 80 468 39 q 626 193 592 121 q 661 354 661 265 q 626 510 661 439 q 530 622 592 581 q 392 663 468 663 q 253 623 315 663 q 157 513 192 583 q 122 354 122 443 q 157 193 122 265 q 253 80 192 121 q 392 39 314 39 m 344 824 q 308 844 329 824 l 210 954 q 200 978 200 967 q 231 1010 200 1010 q 267 988 254 1010 l 353 858 q 360 840 360 847 q 356 828 360 833 q 344 824 351 824 m 522 824 q 486 844 507 824 l 388 954 q 378 978 378 967 q 408 1010 378 1010 q 444 988 432 1010 l 531 858 q 538 840 538 847 q 533 828 538 833 q 522 824 529 824 z "},"ä":{"ha":826,"x_min":67,"x_max":711,"o":"m 683 693 q 703 685 696 693 q 711 665 711 676 l 711 28 q 703 8 711 17 q 683 0 694 0 q 663 8 671 0 q 656 28 656 17 l 656 153 q 549 34 621 82 q 389 -14 476 -14 q 224 34 297 -14 q 108 166 150 82 q 67 354 67 250 q 109 540 67 457 q 225 669 151 622 q 389 715 299 715 q 551 668 479 715 q 656 542 624 621 l 656 665 q 663 685 656 676 q 683 693 671 693 m 392 39 q 530 80 468 39 q 626 193 592 121 q 661 354 661 265 q 626 510 661 439 q 530 622 592 581 q 392 663 468 663 q 253 623 315 663 q 157 513 192 583 q 122 354 122 443 q 157 193 122 265 q 253 80 192 121 q 392 39 314 39 m 271 818 q 235 832 249 818 q 222 868 222 846 l 222 879 q 236 915 222 901 q 272 929 250 929 q 305 915 292 929 q 318 879 318 901 l 318 868 q 305 832 318 846 q 271 818 292 818 m 497 818 q 462 832 475 818 q 449 868 449 846 l 449 879 q 463 915 449 901 q 499 929 476 929 q 531 915 518 929 q 544 879 544 901 l 544 868 q 531 832 544 846 q 497 818 518 818 z "},"ạ":{"ha":826,"x_min":67,"x_max":711,"o":"m 683 693 q 703 685 696 693 q 711 665 711 676 l 711 28 q 703 8 711 17 q 683 0 694 0 q 663 8 671 0 q 656 28 656 17 l 656 153 q 549 34 621 82 q 389 -14 476 -14 q 224 34 297 -14 q 108 166 150 82 q 67 354 67 250 q 109 540 67 457 q 225 669 151 622 q 389 715 299 715 q 551 668 479 715 q 656 542 624 621 l 656 665 q 663 685 656 676 q 683 693 671 693 m 392 39 q 530 80 468 39 q 626 193 592 121 q 661 354 661 265 q 626 510 661 439 q 530 622 592 581 q 392 663 468 663 q 253 623 315 663 q 157 513 192 583 q 122 354 122 443 q 157 193 122 265 q 253 80 192 121 q 392 39 314 39 m 386 -181 q 351 -168 364 -181 q 338 -136 338 -156 l 338 -125 q 351 -93 338 -106 q 388 -81 365 -81 q 420 -93 407 -81 q 433 -125 433 -106 l 433 -136 q 420 -168 433 -156 q 386 -181 407 -181 z "},"à":{"ha":826,"x_min":67,"x_max":711,"o":"m 683 693 q 703 685 696 693 q 711 665 711 676 l 711 28 q 703 8 711 17 q 683 0 694 0 q 663 8 671 0 q 656 28 656 17 l 656 153 q 549 34 621 82 q 389 -14 476 -14 q 224 34 297 -14 q 108 166 150 82 q 67 354 67 250 q 109 540 67 457 q 225 669 151 622 q 389 715 299 715 q 551 668 479 715 q 656 542 624 621 l 656 665 q 663 685 656 676 q 683 693 671 693 m 392 39 q 530 80 468 39 q 626 193 592 121 q 661 354 661 265 q 626 510 661 439 q 530 622 592 581 q 392 663 468 663 q 253 623 315 663 q 157 513 192 583 q 122 354 122 443 q 157 193 122 265 q 253 80 192 121 q 392 39 314 39 m 401 769 q 365 790 386 769 l 267 900 q 257 924 257 913 q 288 956 257 956 q 324 933 311 956 l 410 804 q 417 786 417 793 q 413 774 417 779 q 401 769 408 769 z "},"ả":{"ha":826,"x_min":67,"x_max":711,"o":"m 683 693 q 703 685 696 693 q 711 665 711 676 l 711 28 q 703 8 711 17 q 683 0 694 0 q 663 8 671 0 q 656 28 656 17 l 656 153 q 549 34 621 82 q 389 -14 476 -14 q 224 34 297 -14 q 108 166 150 82 q 67 354 67 250 q 109 540 67 457 q 225 669 151 622 q 389 715 299 715 q 551 668 479 715 q 656 542 624 621 l 656 665 q 663 685 656 676 q 683 693 671 693 m 392 39 q 530 80 468 39 q 626 193 592 121 q 661 354 661 265 q 626 510 661 439 q 530 622 592 581 q 392 663 468 663 q 253 623 315 663 q 157 513 192 583 q 122 354 122 443 q 157 193 122 265 q 253 80 192 121 q 392 39 314 39 m 303 963 q 404 1007 347 1007 q 481 977 456 1007 q 507 911 507 947 q 494 870 507 889 q 454 824 482 851 q 442 792 443 813 q 434 777 440 782 q 418 772 428 772 q 401 778 407 772 q 396 794 396 785 q 415 850 396 829 q 435 870 422 857 q 453 892 447 883 q 458 913 458 901 q 443 944 458 931 q 407 957 428 957 q 342 931 376 957 q 317 919 328 919 q 299 928 307 919 q 293 943 293 936 q 303 963 293 953 z "},"ȃ":{"ha":826,"x_min":67,"x_max":711,"o":"m 683 693 q 703 685 696 693 q 711 665 711 676 l 711 28 q 703 8 711 17 q 683 0 694 0 q 663 8 671 0 q 656 28 656 17 l 656 153 q 549 34 621 82 q 389 -14 476 -14 q 224 34 297 -14 q 108 166 150 82 q 67 354 67 250 q 109 540 67 457 q 225 669 151 622 q 389 715 299 715 q 551 668 479 715 q 656 542 624 621 l 656 665 q 663 685 656 676 q 683 693 671 693 m 392 39 q 530 80 468 39 q 626 193 592 121 q 661 354 661 265 q 626 510 661 439 q 530 622 592 581 q 392 663 468 663 q 253 623 315 663 q 157 513 192 583 q 122 354 122 443 q 157 193 122 265 q 253 80 192 121 q 392 39 314 39 m 414 989 q 498 963 460 989 q 559 896 536 938 q 582 808 582 854 q 574 791 582 799 q 556 783 567 783 q 526 811 529 783 q 489 903 521 869 q 414 936 457 936 q 340 902 371 936 q 301 811 308 868 q 272 783 297 783 q 253 791 261 783 q 246 808 246 799 q 269 896 246 854 q 330 963 292 938 q 414 989 368 989 z "},"ā":{"ha":826,"x_min":67,"x_max":711,"o":"m 683 693 q 703 685 696 693 q 711 665 711 676 l 711 28 q 703 8 711 17 q 683 0 694 0 q 663 8 671 0 q 656 28 656 17 l 656 153 q 549 34 621 82 q 389 -14 476 -14 q 224 34 297 -14 q 108 166 150 82 q 67 354 67 250 q 109 540 67 457 q 225 669 151 622 q 389 715 299 715 q 551 668 479 715 q 656 542 624 621 l 656 665 q 663 685 656 676 q 683 693 671 693 m 392 39 q 530 80 468 39 q 626 193 592 121 q 661 354 661 265 q 626 510 661 439 q 530 622 592 581 q 392 663 468 663 q 253 623 315 663 q 157 513 192 583 q 122 354 122 443 q 157 193 122 265 q 253 80 192 121 q 392 39 314 39 m 229 840 q 201 868 201 840 q 229 897 201 897 l 563 897 q 590 868 590 897 q 563 840 590 840 l 229 840 z "},"ą":{"ha":824,"x_min":67,"x_max":761,"o":"m 742 -169 q 756 -175 750 -169 q 761 -189 761 -181 q 733 -237 761 -217 q 661 -257 704 -257 q 576 -221 613 -257 q 539 -129 539 -185 q 573 -33 539 -71 q 656 22 607 6 l 656 153 q 549 34 621 82 q 389 -14 476 -14 q 224 34 297 -14 q 108 166 150 82 q 67 354 67 250 q 109 540 67 457 q 225 669 151 622 q 389 715 299 715 q 551 668 479 715 q 656 542 624 621 l 656 665 q 663 685 656 676 q 683 693 671 693 q 703 685 696 693 q 711 665 711 676 l 711 28 q 672 -11 711 3 q 615 -53 639 -22 q 592 -118 592 -83 q 615 -182 592 -158 q 668 -206 638 -206 q 695 -202 685 -206 q 713 -189 706 -199 q 725 -176 718 -182 q 742 -169 732 -169 m 392 39 q 530 80 468 39 q 626 193 592 121 q 661 354 661 265 q 626 510 661 439 q 530 622 592 581 q 392 663 468 663 q 253 623 315 663 q 157 513 192 583 q 122 354 122 443 q 157 193 122 265 q 253 80 192 121 q 392 39 314 39 z "},"å":{"ha":826,"x_min":67,"x_max":711,"o":"m 683 693 q 703 685 696 693 q 711 665 711 676 l 711 28 q 703 8 711 17 q 683 0 694 0 q 663 8 671 0 q 656 28 656 17 l 656 153 q 549 34 621 82 q 389 -14 476 -14 q 224 34 297 -14 q 108 166 150 82 q 67 354 67 250 q 109 540 67 457 q 225 669 151 622 q 389 715 299 715 q 551 668 479 715 q 656 542 624 621 l 656 665 q 663 685 656 676 q 683 693 671 693 m 392 39 q 530 80 468 39 q 626 193 592 121 q 661 354 661 265 q 626 510 661 439 q 530 622 592 581 q 392 663 468 663 q 253 623 315 663 q 157 513 192 583 q 122 354 122 443 q 157 193 122 265 q 253 80 192 121 q 392 39 314 39 m 400 764 q 305 802 346 764 q 264 894 264 840 q 305 987 264 949 q 400 1025 346 1025 q 495 987 454 1025 q 536 894 536 949 q 495 802 536 840 q 400 764 454 764 m 400 808 q 460 834 435 808 q 486 894 486 860 q 460 956 486 931 q 400 981 435 981 q 339 956 364 981 q 314 894 314 931 q 339 834 314 860 q 400 808 364 808 z "},"ǻ":{"ha":826,"x_min":67,"x_max":711,"o":"m 683 693 q 703 685 696 693 q 711 665 711 676 l 711 28 q 703 8 711 17 q 683 0 694 0 q 663 8 671 0 q 656 28 656 17 l 656 153 q 549 34 621 82 q 389 -14 476 -14 q 224 34 297 -14 q 108 166 150 82 q 67 354 67 250 q 109 540 67 457 q 225 669 151 622 q 389 715 299 715 q 551 668 479 715 q 656 542 624 621 l 656 665 q 663 685 656 676 q 683 693 671 693 m 392 39 q 530 80 468 39 q 626 193 592 121 q 661 354 661 265 q 626 510 661 439 q 530 622 592 581 q 392 663 468 663 q 253 623 315 663 q 157 513 192 583 q 122 354 122 443 q 157 193 122 265 q 253 80 192 121 q 392 39 314 39 m 429 764 q 334 802 375 764 q 293 894 293 840 q 334 987 293 949 q 429 1025 375 1025 q 524 987 483 1025 q 565 894 565 949 q 524 802 565 840 q 429 764 483 764 m 429 808 q 490 834 464 808 q 515 894 515 860 q 490 956 515 931 q 429 981 464 981 q 368 956 393 981 q 343 894 343 931 q 368 834 343 860 q 429 808 393 808 m 435 1076 q 422 1081 426 1076 q 418 1093 418 1086 q 431 1114 418 1104 l 556 1207 q 586 1218 569 1218 q 610 1208 601 1218 q 618 1185 618 1199 q 599 1151 618 1163 l 464 1086 q 435 1076 444 1076 z "},"ã":{"ha":826,"x_min":67,"x_max":711,"o":"m 683 693 q 703 685 696 693 q 711 665 711 676 l 711 28 q 703 8 711 17 q 683 0 694 0 q 663 8 671 0 q 656 28 656 17 l 656 153 q 549 34 621 82 q 389 -14 476 -14 q 224 34 297 -14 q 108 166 150 82 q 67 354 67 250 q 109 540 67 457 q 225 669 151 622 q 389 715 299 715 q 551 668 479 715 q 656 542 624 621 l 656 665 q 663 685 656 676 q 683 693 671 693 m 392 39 q 530 80 468 39 q 626 193 592 121 q 661 354 661 265 q 626 510 661 439 q 530 622 592 581 q 392 663 468 663 q 253 623 315 663 q 157 513 192 583 q 122 354 122 443 q 157 193 122 265 q 253 80 192 121 q 392 39 314 39 m 224 803 q 201 822 201 803 q 207 851 201 826 q 249 915 218 894 q 317 936 279 936 q 361 926 338 936 q 418 894 385 915 q 466 869 447 878 q 500 860 485 860 q 550 919 542 860 q 558 938 551 931 q 576 944 565 944 q 600 924 600 944 q 599 910 600 917 q 596 897 597 903 q 489 807 576 807 q 449 817 471 807 q 396 846 426 826 q 369 860 389 850 q 336 876 350 871 q 311 881 322 881 q 250 822 267 881 q 224 803 244 803 z "},"æ":{"ha":1232,"x_min":67,"x_max":1165,"o":"m 1135 167 q 1151 159 1144 167 q 1158 142 1158 151 q 1153 125 1158 132 q 1039 25 1107 64 q 893 -14 971 -14 q 708 32 789 -14 q 582 160 626 78 q 275 -14 458 -14 q 176 10 224 -14 q 97 79 128 33 q 67 189 67 125 q 165 360 67 299 q 444 422 263 422 l 542 422 l 542 514 q 492 630 542 597 q 369 663 443 663 q 235 623 303 663 q 133 533 167 583 q 110 521 124 521 q 93 528 100 521 q 86 546 86 536 q 92 563 86 556 q 215 669 139 624 q 369 715 292 715 q 523 678 463 715 q 590 560 583 642 q 703 674 633 633 q 851 715 774 715 q 1003 680 933 715 q 1118 574 1074 644 q 1165 399 1163 503 q 1157 378 1165 388 q 1138 369 1149 369 l 592 369 l 592 351 q 626 194 592 265 q 729 81 661 122 q 893 39 797 39 q 1019 72 960 39 q 1111 154 1078 104 q 1135 167 1122 167 m 851 660 q 747 633 800 660 q 652 552 693 606 q 597 422 611 499 l 1108 422 l 1108 435 q 1063 556 1101 506 q 969 633 1025 607 q 851 660 913 660 m 281 39 q 393 67 336 39 q 494 135 450 94 q 558 213 539 175 q 538 347 538 274 l 538 369 l 447 369 q 207 323 292 369 q 122 194 122 276 q 146 109 122 144 q 206 56 169 74 q 281 39 243 39 z "}}}
